<svg xmlns="http://www.w3.org/2000/svg" width="47.6" height="47.9" viewBox="0 0 47.6 47.9"><g fill="#FFF"><path d="M0 47.9c.7-2 1.3-3.8 1.9-5.7.7-2.1 1.4-4.3 2.2-6.4.1-.3 0-.5-.1-.8C1.7 31 .7 26.7.9 22c.4-6.1 2.8-11.4 7.3-15.6C11.8 3 16.2.9 21.1.2c6.9-.9 13.1 1 18.4 5.5 4.5 3.8 7 8.7 7.9 14.5 1.4 9.5-3.5 19.1-12 23.7-4 2.2-8.3 3.1-12.8 2.8-3.3-.2-6.4-1.1-9.3-2.7-.3-.2-.5-.2-.8-.1-4 1.3-8 2.6-12 3.8-.1.1-.3.2-.5.2zM6 42c.2 0 .3-.1.4-.1 2.2-.7 4.3-1.4 6.5-2.1.4-.1.7-.1 1.1.1 4.1 2.6 8.6 3.5 13.4 2.6 6.4-1.2 11.2-4.7 14.2-10.5 1.9-3.8 2.6-7.8 1.8-12-1.1-5.8-4.2-10.4-9.3-13.4-4-2.4-8.3-3.3-12.8-2.5C14.7 5.3 9.8 8.8 6.8 14.8c-1.9 3.8-2.4 7.8-1.7 11.9.5 2.8 1.5 5.3 3.1 7.6.2.3.3.6.1 1-.4 1.1-.8 2.2-1.1 3.3-.4 1.1-.8 2.2-1.2 3.4z"/><path d="M12.5 17.7c0-2.2.9-3.9 2.5-5.3.4-.4.9-.5 1.5-.5.4 0 .8.1 1.2.1.5 0 .8.3 1 .7.6 1.7 1.3 3.4 1.8 5.1.1.3 0 .8-.2 1.1-.4.6-.8 1.1-1.3 1.6-.6.8-.7.8-.2 1.6 1.5 2.8 3.7 4.9 6.5 6.4l1.2.6c.6.3.9.3 1.4-.2.5-.6 1-1.2 1.5-1.7.1-.1.1-.2.2-.2.6-.7.8-.7 1.6-.3 1.5.7 2.9 1.5 4.4 2.3.7.4.7.6.6 1.4-.2 2.4-1.6 3.6-3.7 4.3-1.4.5-2.8.5-4.2 0-3-1-5.8-2.3-8.2-4.4-1.6-1.4-2.9-3-4.1-4.7-1.1-1.5-2.3-3-2.9-4.8-.3-1.1-.6-3.1-.6-3.1z"/></g></svg>