<svg height="100" viewBox="0 0 100 100" width="100" xmlns="http://www.w3.org/2000/svg"><g fill="none" fill-rule="evenodd"><circle cx="49.8" cy="50.1" fill="#f8f8f8" r="49.8"/><g stroke="#222" stroke-linecap="round" stroke-linejoin="round"><path d="m30 73.4c-11.3-11.3-12.3-30.7-1-42s29.7-10.3 41 1 12.3 29.7 1 41c-5.4 5.4-14.6 5.4-20 0l-11-11c-2-2-3-2-4-1s-1 3 1 5 2 5 0 7c-1.9 2-5 2-7 0z" fill="#fff"/><circle cx="60.7" cy="39.9" fill="#fcf2ee" r="4"/><circle cx="67.7" cy="52.4" fill="#fcf2ee" r="3"/><path d="m57.2 68.4c-2-2-2-5.1 0-7.1 1.9-2 5.1-2 7.1 0s2 5.1 0 7.1-5.1 2-7.1 0z" fill="#fcf2ee"/><circle cx="45" cy="37.2" fill="#fcf2ee" r="4"/></g></g></svg>