<svg id="Modo_de_aislamiento" xmlns="http://www.w3.org/2000/svg" width="99.6" height="99.5" viewBox="-276.8 221.8 99.6 99.5"><style>.st0{fill:#e1e1e1}.st1{display:none}.st2,.st3,.st4,.st5,.st6{display:inline;fill:#ffe3d9;stroke:#676464;stroke-width:1.5;stroke-linecap:round;stroke-linejoin:round;stroke-miterlimit:10}.st3,.st4,.st5,.st6{fill:#fe0}.st4,.st5,.st6{fill:#ffc2a8}.st5,.st6{fill:#e56977}.st6{fill:#6bc62a}.st7{fill:#e56977}.st8{fill:#ffaf91}.st9{fill:#676464}.st10,.st11{fill:none}.st11{stroke-width:2}.st11,.st12,.st13{stroke:#fff;stroke-miterlimit:10}.st12{stroke-width:2;stroke-linecap:round;stroke-linejoin:round;fill:none}.st13{fill:#fff}</style><circle class="st0" cx="-227" cy="271.4" r="49.8"/><g class="st1"><path class="st2" d="M-246.8 294.7c-11.3-11.3-12.3-30.7-1-42s29.7-10.3 41 1 12.3 29.7 1 41c-5.4 5.4-14.6 5.4-20 0l-11-11c-2-2-3-2-4-1s-1 3 1 5 2 5 0 7c-1.9 2-5 2-7 0z"/><circle class="st3" cx="-216.1" cy="261.2" r="4"/><circle class="st4" cx="-209.1" cy="273.7" r="3"/><path class="st5" d="M-219.6 289.7c-2-2-2-5.1 0-7.1 1.9-2 5.1-2 7.1 0s2 5.1 0 7.1-5.1 2-7.1 0z"/><circle class="st6" cx="-231.8" cy="258.5" r="4"/></g><path class="st7" d="M-213.4 248.3c-1.5 1.5-3 3.5-5 5.5 2-1.5 4-3.5 6-5-1.5 1-2.5 2.5-4 4 2-1 4-2 6-3.5-1.5 1.5-2 3.5-3.5 5 1.5-.5 2.5-1.5 3.5-2.5-2.5 1-4.5 3-5.5 5 2.5 0 5-2.5 6.5-5.5-3 2-2.5 2.5-3 5 2-1.5 3.5-2 4.5-4-2.5 2-3.5 4.5-3.5 7.6 2-1.5 3.5-2.5 4.5-5-2.5 1.5-3 3-4 5.5 1.5-1 2.5-1.5 3.5-4-.5 1.5-1.5 2.5-2 4 .5-.5 1.5-2 2-2.5-1 1.5-1.5 3.5-2 4.5l.6 1c1.5-3 5.1-6.5 7.1-8.1v1c-2-.5-3.6-2-4.1-2"/><path class="st7" d="M-215.5 246.1c-1.7 1.8-3.3 3.7-5 5.5-2.8 2.9 1.3 6.6 4.3 4.3 2.1-1.6 4-3.4 6-5 2.7-2.1-.9-6.8-3.7-4.7-1.8 1.3-3.1 2.9-4.6 4.5-2.4 2.5.6 6.3 3.7 4.7 2.1-1.1 4.1-2.2 6-3.5-1.2-1.6-2.4-3.2-3.7-4.7-1.4 1.6-2.2 3.5-3.5 5-1.8 2-.1 6.3 2.9 5.1 1.9-.8 3.4-1.8 4.9-3.3 2.6-2.6-.7-6.1-3.7-4.7-2.8 1.3-5.1 3.4-6.6 6.1-1 1.8.2 4.8 2.6 4.5 4.3-.4 7.2-3.4 9.2-7 1.3-2.5-1.5-6-4.1-4.1-2.8 1.9-3.8 3.6-4.4 6.8-.4 2.3 2.1 5.1 4.4 3.4 2.2-1.5 4.2-2.8 5.6-5.1 1.8-3.1-2.2-5.9-4.7-3.7-2.9 2.6-4.3 5.8-4.4 9.7-.1 2.1 2.7 4 4.5 2.6 2.3-1.7 4.4-3.4 5.6-6.1 1.1-2.5-1.4-6-4.1-4.1-2.9 1.9-4.2 4.2-5.4 7.3-1 2.5 2.4 4.8 4.4 3.4 2.1-1.4 3.6-2.8 4.6-5.1-1.8-.8-3.7-1.6-5.5-2.3-.6 1.4-1.4 2.6-2 4-1.2 2.8 3.2 5.1 5.1 2.9.7-.8 1.3-1.7 2-2.5-1.6-1.2-3.2-2.4-4.7-3.7-1 1.8-2.8 2.1-3.7 4-1.7 3.5 4.6 8.1 6.4 4.6 1.4-2.8 3.7-5.5 6.2-7.4-1.7-.7-2.6-1.4-4.6-2.1v1c2-.9 2.4-1.7 3.9-2.6-1.3-.8-2.6-1.8-4-2.3-3.7-1.3-5.4 4.6-1.8 5.8.7.2 1.2 1.3 1.9 1.7 2 1.2 5.1-.5 5.1-2.8 0-.3-.9-.5-.9-.9 0-2.8-2.9-3.7-4.9-2.1-2.8 2.3-6.1 5.8-7.8 9 1.7 1 5 1.7 6.7 2.7.9-1.8 1.5-3.8 2.6-5.5 1.7-2.9-2.4-6.3-4.7-3.7-.7.8-1.3 1.7-2 2.5 1.7 1 3.4 2 5.1 2.9.6-1.4 1.4-2.6 2-4 1.3-3.1-4.1-5.5-5.5-2.3-.6 1.4-1.2 2.1-2.4 2.9 1.5 1.1 3 2.3 4.4 3.4.6-1.6 1.2-2.8 2.6-3.7l-4.1-4.1c-.8 1.8-1.9 2.8-3.4 4 1.5.9 3 1.7 4.5 2.6.1-2.4.9-3.9 2.6-5.4-1.6-1.2-3.2-2.4-4.7-3.7-.8 1.4-2.2 2-3.4 2.9 1.5 1.1 3 2.3 4.4 3.4.3-1.9.1-2.2 1.6-3.2l-4.1-4.1c-.8 1.4-2.1 3.9-3.9 4 .9 1.5 1.7 3 2.6 4.5 1.1-1.9 2.5-3.1 4.5-4-1.2-1.6-2.4-3.2-3.7-4.7-.7.7-1.3 1.4-2.2 1.7 1 1.7 2 3.4 2.9 5.1 1.4-1.6 2.2-3.5 3.5-5 2.1-2.4.4-4-3-5.8-2.1-1.1-4.6 3.6-6.7 4.6 1.2 1.6 2.4 3.2 3.7 4.7 1.1-1.2 2.1-2.6 3.4-3.6-1.2-1.6-2.4-3.2-3.7-4.7-2.1 1.6-4 3.4-6 5l4.3 4.3c1.7-1.8 3.3-3.7 5-5.5 2.5-2.8-1.7-7.1-4.4-4.3z"/><path class="st8" d="M-237.9 274c-.6 4.4-1.8 8.8-1.2 13.3 3-5 4-11.1 5-16.8-.1 6.3-2.6 12.2-3 18.5 1.1-5.6 3-11 5.4-16.1-.7 4.5-2.3 8.7-3.4 13.1l2.7-6c-1.1 2.7-2.3 5.3-3 8.1 8.7-6 11.6-17.4 20.5-23.2-.1 4.8-5.1 9.2-8.4 12.1 3.7-3.7 8.2-7.4 10.1-12.4-1.9-.3-3.6-1.1-5-2.3-4.3 5.6-8.6 11.2-12.4 17.1 4.2-4.4 4.8-17.4 10.7-19.1-3.3-5-10.4 8.9-12.1 11.1 1.1-1.2 1.8-2.7 2-4.4-1.2 1-2.3 2.2-3.4 3.4l2-2c-1.4 1.3-2.7 2.7-3.7 4.4"/><path class="st8" d="M-240.8 273.2c-.7 4.7-1.7 9.3-1.3 14.1.2 2.8 4.1 4.3 5.6 1.5 3-5.5 4.2-11.4 5.3-17.5-2-.3-4-.5-5.9-.8-.3 6.3-2.4 12.2-3 18.5-.3 3.4 5.2 4.1 5.9.8 1.1-5.4 2.8-10.4 5.1-15.4-1.8-.8-3.7-1.6-5.5-2.3-.8 4.4-2.2 8.7-3.4 13.1-.8 3.2 4.1 5.6 5.5 2.3l2.7-6c-1.8-.8-3.7-1.6-5.5-2.3-1.1 2.7-2.2 5.3-3 8.1-.7 2.3 2.3 5 4.4 3.4 8.5-6.3 11.9-17.1 20.5-23.2-1.5-.9-3-1.7-4.5-2.6-.5 4.2-4.6 7.3-7.5 10l4.3 4.3c4.1-4 8.2-7.7 10.5-13 .8-1.7-.3-2.9-1.8-4.4-1.7-.3-3.1-.9-4.3-2-1.4-1-3.2-.1-4.1 1.1-4.3 5.6-8.5 11.2-12.4 17.1-1.9 2.8 2.6 6.3 4.7 3.7 2-2.4 3.1-5.1 4.2-8.1 1-2.9 2.1-9 5.3-10.3 2.2-.9 2.9-3.2 1.3-5.1-6.5-7.6-14 7.7-16.8 11.7-2.3 3.2 2.9 6.1 5.2 3.1 1.2-1.6 1.9-3.1 2.3-5.1.7-3-2.8-5-5.1-2.9-1.2 1.1-2.3 2.2-3.4 3.4-2.6 2.9 1.5 7 4.3 4.3l2-2-4.3-4.3c-1.6 1.6-2.9 3.2-4.2 5-2.3 3.2 3 6.2 5.2 3.1.9-1.4 2-2.6 3.2-3.8 2.7-2.8-1.5-7-4.3-4.3l-2 2 4.3 4.3c1.1-1.2 2.2-2.3 3.4-3.4-1.7-1-3.4-2-5.1-2.9-.2 1.4-.7 2.6-1.7 3.6 1.7 1 3.5 2 5.2 3.1.8-1.1 7.2-10.7 7.3-10.5.4-1.7.9-3.4 1.3-5.1-8.5 3.5-7 13.7-12.1 19.9 1.6 1.2 3.2 2.4 4.7 3.7 3.9-5.9 8.1-11.5 12.4-17.1-1.4.4-2.8.7-4.1 1.1 1.9 1.4 3.6 2.1 5.8 2.7-.6-1.5-1.2-3-1.8-4.4-2.1 4.8-5.9 8.2-9.6 11.8-2.8 2.7 1.4 6.8 4.3 4.3 4.5-4 8.5-8 9.3-14.2.3-2.2-2.8-3.8-4.5-2.6-8.7 6.2-12.1 16.9-20.5 23.2 1.5 1.1 3 2.3 4.4 3.4.9-2.8 1.9-5.4 3-8.1 1.3-3.1-4.1-5.5-5.5-2.3l-2.7 6c1.8.8 3.7 1.6 5.5 2.3 1.1-4.4 2.5-8.7 3.4-13.1.6-3.1-4-5.7-5.5-2.3-2.5 5.5-4.4 11-5.7 16.8 2 .3 4 .5 5.9.8.6-6.2 2.7-12.2 3-18.5.2-3.4-5.3-4.2-5.9-.8-1 5.6-2 11-4.7 16.1 1.9.5 3.8 1 5.6 1.5-.3-4.2.5-8.3 1.1-12.5.7-4.2-5.1-5.9-5.7-2z"/><path class="st8" d="M-241.3 278.1c-.3 2.3-.6 4.7-.2 7.1 1.8-3.1 2.5-6.8 3.2-10.3"/><path class="st8" d="M-244.2 277.3c-.4 3-.6 5.7-.2 8.7.4 2.6 4.4 2.8 5.5.7 1.9-3.5 2.7-7.2 3.5-11.1.8-3.8-5-5.4-5.8-1.6-.7 3.3-1.3 6.6-2.9 9.6 1.8.2 3.7.5 5.5.7-.3-1.8-.1-3.7.2-5.5.2-1.6-.4-3.2-2.1-3.7-1.4-.3-3.5.6-3.7 2.2zM-246.5 281.5c2.1-.3 4.6-1.3 5-3.6"/><path class="st8" d="M-245.7 284.4c3.1-.5 6.4-2.4 7.1-5.7.3-1.5-.4-3.3-2.1-3.7-1.5-.3-3.4.5-3.7 2.1 0 .2-.3.7 0 .3 0 .1-.4.6-.2.3.3-.3-.2.2-.3.2.5-.4-.1 0-.2.1-.1 0-.7.3-.3.2s-.3.1-.4.1l-1.5.3c-1.6.2-3.1 2.6-2.1 3.7 1.3 1.4 2.1 2.4 3.7 2.1z"/><g><path class="st9" d="M-254.7 301.2c-.4 0-.8-.2-1.1-.4-.4-.4-.5-1-.4-1.5l5.1-17.8c.1-.2.2-.5.4-.7l38.1-38.1c.6-.6 1.6-.6 2.1 0l12.7 12.7c.6.6.6 1.5 0 2.1l-38.1 38.1c-.2.2-.4.3-.7.4l-17.8 5.1s-.2.1-.3.1zm6.4-18.5l-4.2 14.8 14.8-4.2 36.8-36.8-10.6-10.6-36.8 36.8z"/></g><g><path class="st10" d="M-221.7 253.9l12.7 12.7"/><path class="st9" d="M-209 268.1c-.4 0-.8-.1-1.1-.4l-12.6-12.7c-.6-.6-.6-1.5 0-2.1s1.5-.6 2.1 0l12.7 12.7c.6.6.6 1.5 0 2.1-.3.3-.7.4-1.1.4z"/></g><g><path class="st10" d="M-248.6 281.4l12.1 12.1"/><path class="st9" d="M-236.5 295c-.4 0-.8-.1-1.1-.4l-12.1-12.2c-.6-.6-.6-1.5 0-2.1s1.5-.6 2.1 0l12.1 12.1c.6.6.6 1.5 0 2.1-.3.3-.6.5-1 .5z"/></g><g><circle class="st11" cx="-227" cy="530" r="6"/><path class="st12" d="M-218.1 521h7.2c1.6 0 3 1.3 3 3v14c0 1.7-1.4 3-3 3h-32c-1.6 0-3-1.3-3-3v-14c0-1.7 1.4-3 3-3h7.2M-236 521l5.3-4h7.5l5.2 4"/><path class="st13" d="M-213.1 523.9c-.6 0-1 .4-1 1s.4 1 1 1 1-.4 1-1c0-.5-.4-1-1-1z"/><circle class="st11" cx="-227" cy="530" r="29"/></g></svg>