<?xml version="1.0" encoding="UTF-8"?>
<svg width="103px" height="115px" viewBox="0 0 103 115" version="1.1" xmlns="http://www.w3.org/2000/svg" xmlns:xlink="http://www.w3.org/1999/xlink">
    <!-- Generator: Sketch 52.5 (67469) - http://www.bohemiancoding.com/sketch -->
    <title>Combined Shape</title>
    <desc>Created with Sketch.</desc>
    <g id="Page-1" stroke="none" stroke-width="1" fill="none" fill-rule="evenodd">
        <path d="M54.9481304,21.6392679 C53.806306,21.5466209 52.6563292,21.5 51.5,21.5 C28.3040405,21.5 9.5,40.3040405 9.5,63.5 C9.5,86.6959595 28.3040405,105.5 51.5,105.5 C74.6959595,105.5 93.5,86.6959595 93.5,63.5 C93.5,52.4712413 89.2367109,42.1252222 81.7330935,34.3458567 C80.0077227,32.5570808 80.0591228,29.708302 81.8478987,27.9829313 C83.6366746,26.2575605 86.4854533,26.3089605 88.2108241,28.0977364 C97.3167095,37.5382513 102.5,50.1169014 102.5,63.5 C102.5,91.6665222 79.6665222,114.5 51.5,114.5 C23.3334778,114.5 0.5,91.6665222 0.5,63.5 C0.5,35.5184836 23.0345092,12.8001838 50.9456778,12.5029503 L45.4428938,8.70286484 C43.397858,7.29061409 42.8848844,4.4879296 44.2971352,2.44289382 C45.7093859,0.397858042 48.5120704,-0.115115582 50.5571062,1.29713516 L68.8969499,13.9621742 C71.3113708,15.6295131 71.5099368,19.1243489 69.2999107,21.0544348 L52.7628013,35.4968176 C50.8908897,37.1316175 48.0481385,36.9394004 46.4133386,35.0674888 C44.7785388,33.1955772 44.9707558,30.352826 46.8426674,28.7180261 L54.9481304,21.6392679 Z" id="Combined-Shape" fill="#222222" fill-rule="nonzero"></path>
    </g>
</svg>