<svg id="Capa_1" xmlns="http://www.w3.org/2000/svg" viewBox="0 0 105.6 89.3"><style>.st0{fill:#EFCC35;} .st1{fill:#424143;}</style><path class="st0" d="M83.2 13.2c2.1 1.6 4.9 2.4 5.9 4.9.6-.8-.6-1.8-.8-2.7.8-9.4-8-8.4-11-15.4h-.8c.8 5 2.8 10.2 6.7 13.2z"/><path class="st0" d="M80.9 19.3c2.6 1.9 5.5 3.9 10.2 3.6 1.1.6 1.1 2.4 2.1 3.1.8-.3-.3-.5-.3-.8-.7-4.5 2-6 2.6-9.5.7-4.7-.2-8.7-3.1-11.6-2 5.4-1.9 11.2 0 16.7-1.1.3-1.1-1.1-1.8-.5.1.7.8.7.5 1.8-3.2-1.9-4.8-5.4-8.5-6.9-2.4-.3-4.4-1.1-7.4-.8 1.3 1.9 3.7 3.3 5.7 4.9z"/><path class="st0" d="M95.5 30c-.5-1.4-1.1-2.6-2.1-3.6.2 1.7 2.3 3.4 1.3 4.6-4.4-3.1-6.5-8.6-15.1-7.4.2 1.6 2.1 1.8 3.3 2.8 3.3 2.8 6.4 6.4 12 5.6 1.2 2.6.7 8.1.8 11-2.3-1.1-1.7-4.3-3.1-6.4 0 0-1.6-1.9-1.5-1.8-2-2-6.2-4.4-7.9-3.3 3.3 4.8 5.7 10.5 12 12.3 0 .3.4.2.5.5.1.8-.3 2.2.5 2.3 3-5.6 11.1-13 7.4-20.2-2.6 2.8-5.5 6.9-6.1 11.8-.2 1.4.7 3.8-.8 4.9-.7-3.5-.5-7.8-.5-12 3.4-2.8 5.2-10.7 2.3-15.4-3.3 2.7-3.4 9.3-3 14.3z"/><path class="st0" d="M88.3 65.9c.3-1.6 1-2.8 2.1-3.6 1.3-4.3 4.7-6.5 7.9-8.5 4.1-2.5 7.6-6.7 7.2-13.1-5.4 3-8.5 8.3-11 14.1-.9-2.5 1.2-3.9 0-5.4-.4 1.9-.1 4.5-1.5 5.4 0-7.8-2.8-12.7-8.2-15.1 1.2 3.7 1.2 7 2.6 10 1.4 3.1 6.3 4.3 4.9 8.2-.8 2-4.1 5.7-4.6 6.4 1.7-6.3.3-13.5-3.8-16.1-.1 3.3-1 7.9 0 11.8 1 2.2 2.2 4.1 3.3 6.2-1.9 1.9-6.1 3-6.1 5.9.7-1.4 2.2-2.1 3.1-3.3 7.9-3.2 17.8-4.4 19.7-13.6-5 1.2-8.7 3.6-12 6.4-1.1 1.6-1.6 3.7-3.6 4.3z"/><path class="st0" d="M84.2 72c-1.4 1-2.9 2.8-4.6 2 1.6-4.7 4.5-12.9.5-17.9-1.7 5-4.3 11.7-1.5 17.4-2 2.9-6.5 4.6-9.7 5.4 3.8-3.1 8.2-9.2 5.6-16.1-2.8 5.2-7.2 8.8-6.7 17.4-1.5 2.5-8.3 1.1-10.5 2 .9-1.9 3.1-2.6 5.1-3.3 1.9-3 6.4-6.3 4.6-11.3-3.7 4.3-10.2 6.1-10.4 13.8-.9 1.2-.7 2.7-3.7 2.8v.6c2 0 1.4 0 2.1.2 1.6.8 1.9 3.1 3.9 3.6-.1-2.1-4.1-3.3-2-5.1 2.6 4.7 13.4 7.1 19 3.3-5.1-2-9.6-4.6-17.2-4.1 1.9-.8 5-.6 7.7-.6.7-.3 1-1.1 1.8-1.1h2.3c4.4 4 14.7 1.9 17.4-2.2-4-.1-6.5-1.5-11-1-2.3.9-4.4 1.9-7.2 2.3 2.5-1.5 5.9-4.1 9.7-4.6 3-.4 6.1.4 8.7-.2 4.4-1.1 6.7-3.8 9-6.9-5.6-.8-9.8 1.5-12.9 3.6zM30.2 0h-.8c0 1-.3 1.8-.5 1.9-2.9 3-9.4 4.7-10.2 10.4-.4 2.7-.4 4-1 5.8C22.6 13 30.1 9 30.2 0z"/><path class="st0" d="M13 27.5c.2-1.3 1.5-3.1 2.6-4.4 1.5-.7 4.1-.3 5.6-.8 3.5-1 5.7-4.1 8.2-6.1.7-.6 2.1-.3 2-1.8-4.1-.3-6.7.8-9.5 1.8-2.5 1.6-3.4 4.7-6.4 5.6-.2-.7.4-.7.3-1.3-.5-.2-1.1.8-1.3 0 1.7-4.7 1.8-12.3-.5-16.4-4.6 5.2-.9 14.1-.5 21-.3.5-1.5 2.2-.5 2.4z"/><path class="st0" d="M10.7 45.1c.2-.7.9-.8 1-1.5 6.2-1.7 9.4-7.9 11.8-12.6-4.6.8-8.4 3.1-10 6.9-.7 1.7-.2 4-2.3 4.9-.5-2.3-.4-8.3.8-10.8 8 .1 11-4.7 15.1-8.5-.7-.2-2.9.1-4.4 0-.4 0-.2.7-.8.5-1.7.2-3.2.6-4.1 1.3-2.3 1.6-3 4.9-6.1 5.6-.3-1.5 1.7-2.7.5-3.3-.1 1.2-.6 1.9-1.3 2.6.8-4.8.6-12.1-2.8-14.9-1.3 3.6-1.7 6.2-1 9.7.6 3 3.2 5 3.6 7.4.6 3.7-.3 7-1 10.5-.3-1-1-1.5-.3-2.3-1.1-.5-.2-3-.5-4.4-1.7-3.7-2.8-8-6.1-10-2.1 10.9 5.1 14.7 8.5 21 .2-1-1-.8-.6-2.1zm1.8 8.2c.7-2-.3-4.2-1-5.6-.2 1.4.9 3.7 1 5.6z"/><path class="st0" d="M38.9 81.2c.3.5 1 .6 1.3 1 1.9-.3 5 .6 6.1-.5-2.4 0-4.9.1-6.7-.5-1.3-2.1-.9-4.9-1-7.7-1.2-2.8-2.6-5.4-4.6-7.4-.5-1.2-.7-2.8-2.1-3.1-1.3 6.2 1.1 11 3.8 14.1 1.2 0 2.2 1.2 1.8 2.1-2.7-1.6-6.7-2.3-8.7-4.4-1.4-1.4.3-3.3.5-4.9.7-4.9-1.6-9.4-2.8-13.3-3.2 3.3-2 11.4 0 15.1-1.4-2.7-4.6-3.6-6.4-5.9.1-1.9 2.2-3.1 2.8-5.1 1.1-3.5-.3-8 .3-12.6-3.5 1.9-5.2 7.4-4.6 12.8.1 1 1.3 2.8.3 3.6-1.4-2.7-3.3-5.1-4.4-8.2 2.6-4.6 6.7-8.2 6.9-15.2.4-.5 1.2-1.2.8-2.2h-1.3c-3.1 3-6.3 6.2-6.9 11.4-.1 1.1.6 3.7-.8 4.3.1-.7-.1-1.2-.5-1.4-.4.4-.6 1.5-1.5 1.3C9.4 48.2 6 43.6 0 40.8v2.6c2 4.6 4.4 8.8 7.9 11 1.5.9 3.5 1.3 4.9 2.6.8.7 1.3 1.5 2.2 2.3.8 2.5 3 3.5 3.1 6.7-1.4-1.2-2.6-2.5-3-4.6-3.5-2.5-7-4.9-11.8-6.1C5 63.4 14.4 66.2 22.8 68.7c1.4 1.9 3.5 3 4.4 5.4-1.2.7-2.5-.3-2.8-1.3-4-2.5-8.2-4.8-14.9-4.6 1.9 3.2 5.3 5.9 9.2 7.2 2.7.9 7.9-.8 10.2.3 2.9 1.3 6 3.3 8.2 4.6-4.4-.5-6.9-3-12.6-2.3-1.6.7-3.6 1-5.9 1 3.1 3.1 7.7 5.5 13.1 4.6 2.7-.5 4.2-2.9 7.2-2.4z"/><path class="st0" d="M51.5 84.1c-.9-1.3-1.7-2.6-1.7-4.9-1.6-4.4-4.6-7.3-8.4-9.5-.6-.8-1.1-2.3-2.3-1.8.1 7.9 5.4 10.7 10.3 13.8.1 1.7-1.8-.1-2.3.8.4 0 .9 0 .8.5-8.1-1-12.2 2-17.2 4.1 3.1 2.1 9.4 1.7 13.6.8 2.4-1 3.4-3.3 6.1-3.8-.3 2.1-2.4 2.7-3 4.6 2.2-1 2.6-3.6 5.6-3.8v-.6s-.8 0-1.5-.2z"/><g><path class="st1" d="M14 14.1v-2.4h5.4v2.4l-.9.1.8 4.9c0 .3.1 1.2.2 2.7 0-.2.1-.6.2-1.2s.2-1 .2-1.3l1.3-4.7h3.7l1.3 4.8c.1.3.2.8.3 1.3.1.6.1.9.2 1.1h.1c.1-1 .2-1.9.3-2.6l.8-4.9-.9-.2v-2.4h5.2v2.4l-.9.1-1.9 11.4h-4.2l-1.6-6.1c-.1-.3-.2-1-.4-2.1h-.1s-.1.3-.2.9c-.1.5-.2.9-.2 1.2l-1.6 6.1h-4.3l-1.9-11.4-.9-.1zm18.8 6.7v-1c0-1.7.4-3 1.3-3.9.9-.9 2.2-1.3 3.8-1.3 1 0 1.8.1 2.4.4.7.3 1.2.7 1.6 1.2.4.5.6 1.1.8 1.7s.2 1.3.2 2.1v1.1H36v.1c0 .8.1 1.3.4 1.6.3.3 1 .5 2 .5 1.5 0 2.8-.1 4-.2v2.2c-1.3.3-2.6.5-4.1.5-2 0-3.4-.4-4.3-1.2-.8-.7-1.2-2-1.2-3.8zm3.3-1.5h3.8v-.1c0-.7-.1-1.2-.4-1.6-.3-.4-.8-.6-1.5-.6s-1.2.2-1.5.6-.4.9-.4 1.6v.1zm7.8-6V11H48v4c.6-.2 1.3-.4 2.2-.4 1.6 0 2.8.4 3.5 1.2s1.1 2 1.1 3.7v1.3c0 1.8-.4 3.1-1.3 3.9-.9.8-2.2 1.2-4.1 1.2-1.4 0-3-.1-4.7-.3V13.4l-.8-.1zm4.1 9.9c.5 0 1 .1 1.5.1.8 0 1.3-.2 1.6-.5.3-.4.5-1 .5-2v-1.3c0-.9-.1-1.5-.4-1.8-.3-.3-.7-.5-1.4-.5s-1.3.1-1.8.3v5.7zm8.3-5.5c0-1.1.4-1.9 1.1-2.4.7-.5 1.9-.7 3.3-.7 1.7 0 3.1.1 4 .4v2.6h-2.1l-.2-.8h-1.3c-.6 0-1 0-1.2.1s-.3.3-.3.6.1.5.3.6.6.3 1.1.6l.9.4c1.2.5 2 .9 2.5 1.4.5.5.7 1.2.7 2.1 0 2.2-1.6 3.2-4.7 3.2-1.5 0-2.7-.1-3.8-.4v-2.7h2.2l.2.8h1.4c.6 0 1-.1 1.3-.2.2-.1.4-.4.4-.7 0-.3-.1-.5-.3-.7s-.6-.4-1.3-.7l-.8-.3c-1.1-.4-1.9-.9-2.4-1.4-.7-.3-1-1-1-1.8zm10.2 7.9v-2.4l.9-.1v-5.8l-.9-.1v-2.4h4.1V23l.9.1v2.4h-5v.1zm.8-12.2V11h3.4v2.4h-3.4zm5.2 3.7v-2.2h1.9v-2.5h3.2v2.5H80v2.4h-2.4v5.3c0 .5 0 .7.1.9.1.1.3.2.7.2.1 0 .6 0 1.5-.1v2c-.7.2-1.5.3-2.4.3-1.1 0-2-.2-2.5-.7s-.8-1.3-.8-2.5v-5.3l-1.7-.3zm8.9 3.7v-1c0-1.7.4-3 1.3-3.9s2.2-1.3 3.8-1.3c1 0 1.8.1 2.4.4.7.3 1.2.7 1.6 1.2s.6 1.1.8 1.7c.2.6.2 1.3.2 2.1v1.1h-6.9v.1c0 .8.1 1.3.4 1.6.3.3 1 .5 2 .5 1.5 0 2.8-.1 4-.2v2.2c-1.3.3-2.6.5-4.1.5-2 0-3.4-.4-4.3-1.2-.8-.7-1.2-2-1.2-3.8zm3.2-1.5h3.8v-.1c0-.7-.1-1.2-.4-1.6s-.8-.6-1.5-.6-1.2.2-1.5.6-.4.9-.4 1.6v.1zm-68 24.1v-1.3c0-1.8.4-3.1 1.2-3.8.8-.8 2-1.2 3.6-1.2.7 0 1.3 0 2 .1v-1.7l-.9-.1v-2.1h4.2v12.2l.9.1V48h-3.9v-.6c-.9.5-1.9.8-3 .8-1.3 0-2.3-.4-3-1.2-.8-.8-1.1-2-1.1-3.6zm3.2 0c0 .9.1 1.5.4 1.9s.7.5 1.4.5c.6 0 1.2-.1 1.8-.4v-5.7c-.6-.1-1.1-.1-1.6-.2-.7 0-1.2.2-1.5.5s-.5 1-.5 2v1.4zm9.1-.2v-1c0-1.7.4-3 1.3-3.9S32.4 37 34 37c1 0 1.8.1 2.4.4.7.3 1.2.7 1.6 1.2.4.5.6 1.1.8 1.7.2.6.2 1.3.2 2.1v1.1h-6.9v.1c0 .8.1 1.3.4 1.6.3.3 1 .5 2 .5 1.5 0 2.8-.1 4-.2v2.2c-1.3.3-2.6.5-4.1.5-2 0-3.4-.4-4.3-1.2-.8-.7-1.2-2-1.2-3.8zm3.2-1.4h3.8v-.1c0-.7-.1-1.2-.4-1.6-.3-.4-.8-.6-1.5-.6s-1.2.2-1.5.6c-.3.4-.4.9-.4 1.7 0-.1 0 0 0 0zm8.3 6.2v-2.4l.9-.1v-9.6l-.9-.1v-2.4h4.1v12.1l.9.1V48h-5zm10.1 0v-2.4l.9-.1 2.7-8.9-.9-.1v-2.4h7l3.3 11.4.9.1V48H59v-2.4l.7-.1-.3-1h-4l-.3 1 .7.1V48h-5.3zm5.5-6h3l-1-3.7c-.1-.3-.2-.7-.3-1.2-.1-.6-.2-.9-.2-.9h-.1c-.2 1-.3 1.7-.4 2.1L56 42zm9.8 6v-2.4l.9-.1v-5.7l-.9-.1v-2.4h3.9v.9c1.2-.8 2.4-1.1 3.5-1.1.6 0 1.1.1 1.6.2.4.1.8.3 1 .6.2.2.4.5.6.9.1.4.2.8.3 1.1 0 .4.1.8.1 1.3v4.3l.9.1V48h-4.1v-6.8c0-.6-.1-1.1-.3-1.3-.2-.2-.5-.4-1-.4s-1.3.2-2.3.6v5.4l.9.1V48h-5.1zm1.5-11.8v-.4c0-1.7.8-2.6 2.3-2.6.6 0 1.2.2 1.8.5l.8.4c.4.2.8.4 1.2.4.2 0 .4-.1.4-.2.1-.1.1-.3.1-.6v-.4h1.8v.4c0 1.7-.7 2.6-2.2 2.6-.7 0-1.4-.2-2-.6l-.8-.5c-.4-.3-.8-.4-1-.4s-.4.1-.4.2c-.1.1-.1.4-.1.7v.4l-1.9.1zm11.6 7V42c0-3.4 1.7-5 5.1-5s5.1 1.7 5.1 5v1.2c0 3.4-1.7 5-5.1 5-3.4.1-5.1-1.6-5.1-5zm3.3 0c0 .9.1 1.6.4 1.9.3.4.8.6 1.4.6.7 0 1.2-.2 1.4-.6.3-.4.4-1 .4-1.9V42c0-.9-.1-1.6-.4-2s-.8-.6-1.4-.6c-.7 0-1.1.2-1.4.6-.3.4-.4 1-.4 2v1.2zM21 74.7v-2.3c0-2.2.4-3.9 1.2-5 .8-1.1 2.3-2.2 4.5-3.4 1.5-.8 2.4-1.3 2.8-1.7s.6-.9.6-1.5-.2-1.1-.7-1.3-1.3-.4-2.6-.4c-.4 0-1.2 0-2.4.1l-.2 1.5h-2.8v-4.2c.6-.2 1.6-.4 2.8-.6 1.2-.2 2.4-.2 3.4-.2 2.5 0 4.3.4 5.4 1.2 1.1.8 1.7 2 1.7 3.6 0 1.3-.4 2.3-1.1 3.2-.7.9-2 1.8-3.9 2.8-1.7.9-2.8 1.6-3.3 2.1s-.7 1.3-.7 2.3v.2h5.7l.2-1.5h2.8v4.9H21v.2zm16.2-8.1v-2.2c0-5.7 2.5-8.6 7.5-8.6s7.5 2.9 7.5 8.6v2.2c0 5.7-2.5 8.6-7.5 8.6s-7.5-2.9-7.5-8.6zm4.6 0c0 1.9.2 3.2.7 3.9.5.7 1.2 1.1 2.2 1.1s1.7-.4 2.2-1.1.7-2 .7-3.9v-2.2c0-1.9-.2-3.2-.7-3.9s-1.2-1.1-2.2-1.1-1.7.4-2.2 1.1c-.5.7-.7 2-.7 3.9v2.2zm13 8.1v-3.2l4-.2v-11l-4 1v-3.4l5.3-1.8h3.3v15.2l4 .2v3.2H54.8zm15.1-7.2v-4.1c0-1.3.1-2.3.3-3.2.2-.9.6-1.6 1.1-2.3s1.3-1.2 2.3-1.5 2.3-.5 3.8-.5c2.2 0 4.2.2 6.1.7v4.2h-2.8l-.3-1.5c-1.6 0-2.5-.1-2.6-.1-.8 0-1.4.1-1.9.2s-.8.4-1.1.7c-.2.3-.4.7-.5 1.1-.1.4-.1.9-.1 1.5v.6c1-.2 2.2-.4 3.3-.4 1 0 1.9.1 2.7.2.8.1 1.5.4 2.1.8.6.4 1.1.9 1.5 1.6.3.7.5 1.6.5 2.7v.8c0 1.1-.2 2.1-.6 2.9s-.9 1.5-1.6 1.9c-.7.5-1.5.8-2.3 1s-1.7.3-2.7.3c-2.6 0-4.5-.6-5.6-1.8-1-1.2-1.6-3.1-1.6-5.8zm4.6.8c0 1.4.2 2.3.7 2.9.5.5 1.2.8 2.2.8.8 0 1.5-.2 1.9-.7.5-.6.7-1.3.7-2.3v-.7c0-1-.2-1.6-.6-2-.4-.3-1.1-.5-2.1-.5s-1.9.1-2.8.3v2.2z"/></g></svg>