<svg xmlns="http://www.w3.org/2000/svg" width="38.6" height="105" viewBox="0 0 38.6 105"><path fill="#FF615B" d="M11.5 0C10 0 8.7 1 7.9 1.8 7.2 1 5.8 0 4.3 0 1.6 0-.1 1.6-.1 4.3c0 2.2 2 4 2.1 4.1l5.4 5.2c.1.1.3.2.6.2.2 0 .4-.1.6-.2L14 8.4c.5-.5 2.1-2.1 2.1-4.1-.2-2.7-1.8-4.3-4.6-4.3zm0 1.6c1.8 0 2.8.9 2.8 2.7 0 1.4-1.4 2.7-1.5 2.9L8 11.9 3.1 7.2C2.9 7 1.5 5.7 1.5 4.3c0-1.8.9-2.7 2.8-2.7 1.2 0 2.6 1.4 3 1.8.1.2.4.3.6.3.2 0 .5-.1.6-.3.4-.4 1.9-1.8 3-1.8z"/><path fill="#FFF" d="M11.6 30.4c-1.5 0-2.9 1.1-3.7 1.8-.8-.7-2.2-1.8-3.7-1.8C1.6 30.4 0 32 0 34.7c0 2.2 2 4 2 4L7.5 44c.1.1.3.2.5.2s.3-.1.5-.2l5.5-5.3c.5-.5 2-2.1 2-4-.1-2.7-1.7-4.3-4.4-4.3zm2.9 4.3c0 1.4-1.3 2.8-1.6 3l-5 4.8-5-4.8c-.3-.3-1.6-1.6-1.6-3 0-1.9 1-2.9 2.9-2.9 1.3 0 2.7 1.4 3.1 1.9.2.3.8.3 1.1 0 .4-.5 1.9-1.9 3.1-1.9 2.1 0 3 1 3 2.9z"/><path fill="#BC433F" d="M11.6 91.3c-1.5 0-2.9 1.1-3.7 1.8-.8-.7-2.2-1.8-3.7-1.8-2.7 0-4.3 1.6-4.3 4.2 0 2.2 2 4 2 4l5.5 5.3c.1.1.3.2.5.2s.4-.1.5-.2l5.5-5.3c.5-.5 2-2.1 2-4 0-2.6-1.6-4.2-4.3-4.2zm2.9 4.2c0 1.5-1.4 2.9-1.6 3l-5 4.8-5-4.8c-.2-.2-1.6-1.6-1.6-3 0-1.9 1-2.9 2.9-2.9 1.3 0 2.7 1.4 3.1 1.9.2.3.8.3 1.1 0 .4-.5 1.9-1.9 3.1-1.9 2.1.1 3 1 3 2.9z"/><path fill="#FFF" d="M11.6 60.9c-1.5 0-2.9 1.1-3.7 1.8-.8-.7-2.2-1.8-3.7-1.8-2.7 0-4.3 1.6-4.3 4.2 0 2.2 2 4 2 4l5.5 5.2c.1.1.3.2.5.2s.4-.1.5-.2l5.5-5.2c.5-.5 2-2.1 2-4 0-2.6-1.6-4.2-4.3-4.2zM6 66.6L8.2 68l-1 2 1.1.5 1.5-3-2.2-1.3 1-2.1c.2-.2 1.7-1.7 3-1.7 2 0 2.9 1 2.9 2.8 0 1.5-1.4 2.9-1.6 3l-5 4.8-5-4.8c-.2-.2-1.6-1.5-1.6-3 0-1.9 1-2.8 2.9-2.8 1.3 0 2.6 1.4 3 1.7L6 66.6z"/><g fill="#4C4C4C"><path d="M34.2 10.9h.6c.2 0 .3-.1.3-.3V5.4c0-.2-.1-.3-.3-.3h-.6c-.2 0-.3.1-.3.3v5.2c.1.2.2.3.3.3z"/><path d="M38.3 2.3h-2.8L34.9.8c-.2-.4-.8-.8-1.2-.8h-2.9c-.5 0-1 .4-1.2.8L29 2.3h-2.8c-.2 0-.3.1-.3.3v.6c0 .2.1.3.3.3h.9V12c0 1 .6 1.8 1.4 1.8H36c.8 0 1.4-.8 1.4-1.8V3.4h.9c.2 0 .3-.1.3-.3v-.5c-.1-.2-.2-.3-.3-.3zm-7.6-1.1s.1-.1.2-.1h2.8s.1.1.2.1l.4 1h-4l.4-1zm5.5 10.7c0 .4-.2.7-.3.7h-7.5s-.3-.3-.3-.7V3.4h8v8.5z"/><path d="M31.9 10.9h.6c.2 0 .3-.1.3-.3V5.4c0-.2-.1-.3-.3-.3h-.6c-.2 0-.3.1-.3.3v5.2c.1.2.2.3.3.3zM29.7 10.9h.6c.2 0 .3-.1.3-.3V5.4c0-.2-.1-.3-.3-.3h-.6c-.2 0-.3.1-.3.3v5.2c0 .2.1.3.3.3z"/></g><g fill="#FFF"><path d="M34.2 41.3h.6c.2 0 .3-.1.3-.3v-5.2c0-.2-.1-.3-.3-.3h-.6c-.2 0-.3.1-.3.3V41c.1.2.2.3.3.3z"/><path d="M38.3 32.7h-2.8l-.6-1.5c-.2-.4-.7-.8-1.2-.8h-2.9c-.5 0-1 .4-1.2.8l-.6 1.5h-2.8c-.2 0-.3.1-.3.3v.6c0 .2.1.3.3.3h.9v8.5c0 1 .6 1.8 1.4 1.8H36c.8 0 1.4-.8 1.4-1.8v-8.5h.9c.2 0 .3-.1.3-.3V33c-.1-.2-.2-.3-.3-.3zm-7.6-1s.1-.1.2-.1h2.8s.1.1.2.1l.4 1h-4l.4-1zm5.5 10.7c0 .4-.2.7-.3.7h-7.5s-.3-.3-.3-.7v-8.5h8v8.5z"/><path d="M31.9 41.3h.6c.2 0 .3-.1.3-.3v-5.2c0-.2-.1-.3-.3-.3h-.6c-.2 0-.3.1-.3.3V41c.1.2.2.3.3.3zM29.7 41.3h.6c.2 0 .3-.1.3-.3v-5.2c0-.2-.1-.3-.3-.3h-.6c-.2 0-.3.1-.3.3V41c0 .2.1.3.3.3z"/></g></svg>