<?xml version="1.0" encoding="utf-8"?>
<svg version="1.1" id="Capa_1" xmlns="http://www.w3.org/2000/svg" xmlns:xlink="http://www.w3.org/1999/xlink" x="0px" y="0px" width="73.4px" height="232.6px" viewBox="0 0 73.4 232.6" enable-background="new 0 0 73.4 232.6" xml:space="preserve"><line fill="none" stroke="#FA626F" stroke-width="4" stroke-linecap="round" stroke-linejoin="round" stroke-miterlimit="10" x1="36.7" y1="124.4" x2="36.7" y2="102.7"/><path fill="#FA626F" stroke="#FA626F" stroke-width="2" stroke-linecap="round" stroke-linejoin="round" stroke-miterlimit="10" d="M36.7,131.2c-1.5,0-2.7,1.2-2.7,2.7c0,1.5,1.2,2.7,2.7,2.7c1.5,0,2.7-1.2,2.7-2.7C39.4,132.4,38.2,131.2,36.7,131.2L36.7,131.2z"/><polygon fill="none" stroke="#231F20" stroke-width="2" stroke-linecap="round" stroke-linejoin="round" stroke-miterlimit="10" points="71.2,146.3 2.2,146.3 36.7,83.8  "/><path fill="#FFF8EE" d="M52.6,27.4H20.8c0,0,3.9,8.3,15.9,8.3S52.6,27.4,52.6,27.4z"/><polygon fill="#FFF8EE" points="55.7,58.3 45,58.3 36.7,50 28.4,58.3 17.7,58.3 17.7,70.2 55.7,70.2   "/><path fill="none" stroke="#231F20" stroke-width="2" stroke-linecap="round" stroke-linejoin="round" stroke-miterlimit="10" d="M55.7,16.7c-0.1,10.8-8.3,19-19,19c-10.8,0-19-8.3-19-19V1.3h38V16.7z"/><line fill="none" stroke="#231F20" stroke-width="2" stroke-linecap="round" stroke-linejoin="round" stroke-miterlimit="10" x1="11.7" y1="1.3" x2="61.7" y2="1.3"/><path fill="none" stroke="#231F20" stroke-width="2" stroke-linecap="round" stroke-linejoin="round" stroke-miterlimit="10" d="M55.7,54.8c-0.1-10.8-8.3-19-19-19c-10.8,0-19,8.3-19,19v15.5h38V54.8z"/><line fill="none" stroke="#231F20" stroke-width="2" stroke-linecap="round" stroke-linejoin="round" stroke-miterlimit="10" x1="11.7" y1="70.2" x2="61.7" y2="70.2"/><polyline fill="none" stroke="#231F20" stroke-width="2" stroke-linecap="round" stroke-linejoin="round" stroke-miterlimit="10" points="17.7,58.3 28.4,58.3 36.7,50 45,58.3 55.7,58.3"/><line fill="none" stroke="#231F20" stroke-width="2" stroke-linecap="round" stroke-linejoin="round" stroke-miterlimit="10" x1="52.6" y1="27.4" x2="20.8" y2="27.4"/><path fill="none" stroke="#231F20" stroke-width="2" stroke-linecap="round" stroke-linejoin="round" stroke-miterlimit="10" d="M71.2,194.3c0,19-15.4,34.5-34.5,34.5c-19,0-34.5-15.4-34.5-34.5c0-19.1,15.4-34.5,34.5-34.5C55.7,159.8,71.2,175.3,71.2,194.3z"/><polyline fill="none" stroke="#179140" stroke-width="5" stroke-linecap="round" stroke-linejoin="round" stroke-miterlimit="10" points="53.9,182 31.8,209.1 19.5,196.8  "/></svg>
