<svg height="50" viewBox="0 0 181 50" width="181" xmlns="http://www.w3.org/2000/svg"><path d="m0 0h100v8h-100z" fill="#4baa3b"/><path d="m20 0v8m20-8v8m20-8v8m20-8v8" fill="none" stroke="#fff" stroke-miterlimit="10" stroke-width="2"/><g clip-rule="evenodd" fill-rule="evenodd"><path d="m78.6 37.2s-3.2.4-5.3.6c-.2 0-.4.2-.4.3-.1.2 0 .4.1.5 1.6 1.4 3.9 3.6 3.9 3.6s-.6 3.1-1.1 5.2c0 .2 0 .4.2.5s.4.1.5 0c1.9-1.1 4.6-2.6 4.6-2.6s2.8 1.6 4.6 2.6c.2.1.4.1.5 0 .2-.1.2-.3.2-.5-.4-2.1-1.1-5.2-1.1-5.2s2.4-2.1 3.9-3.6c.1-.1.2-.3.1-.5s-.2-.3-.4-.3c-2.1-.2-5.3-.6-5.3-.6s-1.3-2.9-2.2-4.9c-.1-.2-.3-.3-.5-.3s-.4.1-.5.3c-.4 2-1.8 4.9-1.8 4.9" fill="#d5d5d5"/><path d="m60.6 37.2s-3.2.4-5.3.6c-.2 0-.4.2-.4.3-.1.2 0 .4.1.5 1.6 1.4 3.9 3.6 3.9 3.6s-.6 3.1-1.1 5.2c0 .2 0 .4.2.5s.4.1.5 0c1.9-1.1 4.6-2.6 4.6-2.6s2.9 1.7 4.8 2.7c.2.1.4.1.5 0 .2-.1.2-.3.2-.5-.4-2.1-1.1-5.2-1.1-5.2s2.4-2.1 3.9-3.6c.1-.1.2-.3.1-.5s-.2-.3-.4-.3c-2.1-.2-5.3-.6-5.3-.6s-1.3-2.9-2.2-4.9c-.1-.2-.3-.3-.5-.3s-.4.1-.5.3c-.7 1.9-2 4.8-2 4.8" fill="#d5d5d5"/><path d="m42.5 37.2s-3.2.4-5.3.6c-.2 0-.4.2-.4.3-.1.2 0 .4.1.5 1.6 1.4 3.9 3.6 3.9 3.6s-.6 3.1-1.1 5.2c0 .2 0 .4.2.5s.4.1.5 0c1.9-1.1 4.6-2.6 4.6-2.6s2.8 1.6 4.6 2.6c.2.1.4.1.5 0 .2-.1.2-.3.2-.5-.4-2.1-1.1-5.2-1.1-5.2s2.4-2.1 3.9-3.6c.1-.1.2-.3.1-.5s-.2-.3-.4-.3c-2.1-.2-5.3-.6-5.3-.6s-1.3-2.9-2.2-4.9c-.1-.2-.3-.3-.5-.3s-.4.1-.5.3c-.5 2-1.8 4.9-1.8 4.9" fill="#d5d5d5"/><path d="m24.3 37.2s-3.2.4-5.3.6c-.2 0-.4.2-.4.3-.1.2 0 .4.1.5 1.6 1.4 3.9 3.6 3.9 3.6s-.6 3.1-1.1 5.2c0 .2 0 .4.2.5s.4.1.5 0c1.9-1.1 4.6-2.6 4.6-2.6s2.8 1.6 4.6 2.6c.2.1.4.1.5 0 .2-.1.2-.3.2-.5-.4-2.1-1.1-5.2-1.1-5.2s2.4-2.1 3.9-3.6c.1-.1.2-.3.1-.5s-.2-.3-.4-.3c-2.1-.2-5.3-.6-5.3-.6s-1.3-2.9-2.2-4.9c-.1-.2-.3-.3-.5-.3s-.4.1-.5.3c-.5 2-1.8 4.9-1.8 4.9" fill="#d5d5d5"/><path d="m6.1 37.2s-3.2.4-5.3.6c-.2 0-.4.2-.4.3-.1.2 0 .4.1.5 1.6 1.4 3.9 3.6 3.9 3.6s-.6 3.1-1.1 5.2c0 .2 0 .4.2.5s.4.1.5 0c1.9-1.1 4.6-2.6 4.6-2.6s2.8 1.6 4.6 2.6c.2.1.4.1.5 0 .2-.1.2-.3.2-.5-.4-2.1-1.1-5.2-1.1-5.2s2.4-2.1 3.9-3.6c.1-.1.2-.3.1-.5s-.2-.3-.4-.3c-2.1-.2-5.3-.6-5.3-.6s-1.3-2.9-2.2-4.9c-.1-.2-.3-.3-.5-.3s-.4.1-.5.3c-.5 2-1.8 4.9-1.8 4.9" fill="#d5d5d5"/><path d="m169.7 37.2s-3.2.4-5.3.6c-.2 0-.4.2-.4.3-.1.2 0 .4.1.5 1.6 1.4 3.9 3.6 3.9 3.6s-.6 3.1-1.1 5.2c0 .2 0 .4.2.5s.4.1.5 0c1.9-1.1 4.6-2.6 4.6-2.6s2.8 1.6 4.6 2.6c.2.1.4.1.5 0 .2-.1.2-.3.2-.5-.4-2.1-1.1-5.2-1.1-5.2s2.4-2.1 3.9-3.6c.1-.1.2-.3.1-.5s-.2-.3-.4-.3c-2.1-.2-5.3-.6-5.3-.6s-1.3-2.9-2.2-4.9c-.1-.2-.3-.3-.5-.3s-.4.1-.5.3c-.5 2-1.8 4.9-1.8 4.9" fill="#eac448"/><path d="m151.6 37.2s-3.2.4-5.3.6c-.2 0-.4.2-.4.3-.1.2 0 .4.1.5 1.6 1.4 3.9 3.6 3.9 3.6s-.6 3.1-1.1 5.2c0 .2 0 .4.2.5s.4.1.5 0c1.9-1.1 4.6-2.6 4.6-2.6s2.8 1.6 4.6 2.6c.2.1.4.1.5 0 .2-.1.2-.3.2-.5-.4-2.1-1.1-5.2-1.1-5.2s2.4-2.1 3.9-3.6c.1-.1.2-.3.1-.5s-.2-.3-.4-.3c-2.1-.2-5.3-.6-5.3-.6s-1.3-2.9-2.2-4.9c-.1-.2-.3-.3-.5-.3s-.4.1-.5.3c-.5 2-1.8 4.9-1.8 4.9" fill="#eac448"/><path d="m133.5 37.2s-3.2.4-5.3.6c-.2 0-.4.2-.4.3-.1.2 0 .4.1.5 1.6 1.4 3.9 3.6 3.9 3.6s-.6 3.1-1.1 5.2c0 .2 0 .4.2.5s.4.1.5 0c1.9-1.1 4.6-2.6 4.6-2.6s2.8 1.6 4.6 2.6c.2.1.4.1.5 0 .2-.1.2-.3.2-.5-.4-2.1-1.1-5.2-1.1-5.2s2.4-2.1 3.9-3.6c.1-.1.2-.3.1-.5s-.2-.3-.4-.3c-2.1-.2-5.3-.6-5.3-.6s-1.3-2.9-2.2-4.9c-.1-.2-.3-.3-.5-.3s-.4.1-.5.3c-.5 2-1.8 4.9-1.8 4.9" fill="#eac448"/><path d="m115.3 37.2s-3.2.4-5.3.6c-.2 0-.4.2-.4.3-.1.2 0 .4.1.5 1.6 1.4 3.9 3.6 3.9 3.6s-.6 3.1-1.1 5.2c0 .2 0 .4.2.5s.4.1.5 0c1.9-1.1 4.6-2.6 4.6-2.6s2.8 1.6 4.6 2.6c.2.1.4.1.5 0 .2-.1.2-.3.2-.5-.4-2.1-1.1-5.2-1.1-5.2s2.4-2.1 3.9-3.6c.1-.1.2-.3.1-.5s-.2-.3-.4-.3c-2.1-.2-5.3-.6-5.3-.6s-1.3-2.9-2.2-4.9c-.1-.2-.3-.3-.5-.3s-.4.1-.5.3c-.5 2-1.8 4.9-1.8 4.9" fill="#eac448"/><path d="m97.1 37.2s-3.2.4-5.3.6c-.2 0-.4.2-.4.3-.1.2 0 .4.1.5 1.6 1.4 3.9 3.6 3.9 3.6s-.6 3.1-1.1 5.2c0 .2 0 .4.2.5s.4.1.5 0c1.9-1.1 4.6-2.6 4.6-2.6s2.8 1.6 4.6 2.6c.2.1.4.1.5 0 .2-.1.2-.3.2-.5-.4-2.1-1.1-5.2-1.1-5.2s2.4-2.1 3.9-3.6c.1-.1.2-.3.1-.5s-.2-.3-.4-.3c-2.1-.2-5.3-.6-5.3-.6s-1.3-2.9-2.2-4.9c-.1-.2-.3-.3-.5-.3s-.4.1-.5.3c-.5 2-1.8 4.9-1.8 4.9" fill="#eac448"/><g fill="#d5d5d5"><path d="m57.3 21.9s-2.4.3-4 .4c-.1 0-.3.1-.3.3 0 .1 0 .3.1.4 1.2 1.1 3 2.7 3 2.7s-.5 2.4-.8 3.9c0 .1 0 .3.1.4s.3.1.4 0l3.5-2s2.1 1.2 3.5 2c.1.1.3.1.4 0s.2-.2.1-.4c-.3-1.6-.8-3.9-.8-3.9s1.8-1.6 3-2.7c.1-.1.2-.3.1-.4s-.2-.2-.3-.3c-1.6-.2-4-.4-4-.4s-1-2.2-1.7-3.7c-.1-.1-.2-.2-.3-.2s-.3.1-.3.2c-.7 1.5-1.7 3.7-1.7 3.7"/><path d="m44.2 21.9s-2.4.3-4 .4c-.1 0-.3.1-.3.3 0 .1 0 .3.1.4 1.2 1.1 3 2.7 3 2.7s-.5 2.4-.8 3.9c0 .1 0 .3.1.4s.3.1.4 0l3.5-2s2.1 1.2 3.5 2c.1.1.3.1.4 0s.2-.2.1-.4c-.3-1.6-.8-3.9-.8-3.9s1.8-1.6 3-2.7c.1-.1.2-.3.1-.4 0-.1-.2-.2-.3-.3-1.6-.2-4-.4-4-.4s-1-2.2-1.7-3.7c-.1-.1-.2-.2-.3-.2s-.3.1-.3.2c-.7 1.5-1.7 3.7-1.7 3.7"/><path d="m31 21.9s-2.4.3-4 .4c-.1 0-.3.1-.3.3 0 .1 0 .3.1.4 1.2 1.1 3 2.7 3 2.7s-.5 2.4-.8 3.9c0 .1 0 .3.1.4s.3.1.4 0l3.5-2s2.1 1.2 3.5 2c.1.1.3.1.4 0s.2-.2.1-.4c-.3-1.6-.8-3.9-.8-3.9s1.8-1.6 3-2.7c.1-.1.2-.3.1-.4s-.2-.2-.3-.3c-1.6-.2-4-.4-4-.4s-1-2.2-1.7-3.7c0-.1-.1-.2-.3-.2s-.3.1-.3.2c-.7 1.5-1.7 3.7-1.7 3.7"/><path d="m18 21.9s-2.4.3-4 .4c-.1 0-.3.1-.3.3 0 .1 0 .3.1.4 1.2 1.1 3 2.7 3 2.7s-.5 2.4-.8 3.9c0 .1 0 .3.1.4s.3.1.4 0l3.5-2s2.1 1.2 3.5 2c.1.1.3.1.4 0s.2-.2.1-.4c-.3-1.6-.8-3.9-.8-3.9s1.8-1.6 3-2.7c.1-.1.2-.3.1-.4s-.2-.2-.3-.3c-1.6-.2-4-.4-4-.4s-1-2.2-1.7-3.7c-.1-.1-.2-.2-.3-.2s-.3.1-.3.2c-.7 1.5-1.7 3.7-1.7 3.7"/><path d="m4.9 21.9s-2.4.3-4 .4c-.1 0-.3.1-.3.3 0 .1 0 .3.1.4 1.2 1.1 3 2.7 3 2.7s-.5 2.4-.8 3.9c0 .1 0 .3.1.4s.3.1.4 0l3.5-2s2.1 1.2 3.5 2c.1.1.3.1.4 0s.2-.2.1-.4c-.3-1.6-.8-3.9-.8-3.9s1.8-1.6 3-2.7c.1-.1.2-.3.1-.4 0-.1-.2-.2-.3-.3-1.6-.2-4-.4-4-.4s-1-2.2-1.7-3.7c-.1-.1-.2-.2-.3-.2-.2 0-.3.1-.3.2-.7 1.5-1.7 3.7-1.7 3.7"/></g><g fill="#d5d5d5"><path d="m57.3 21.9s-2.4.3-4 .4c-.1 0-.3.1-.3.3 0 .1 0 .3.1.4 1.2 1.1 3 2.7 3 2.7s-.5 2.4-.8 3.9c0 .1 0 .3.1.4s.3.1.4 0l3.5-2s2.1 1.2 3.5 2c.1.1.3.1.4 0s.2-.2.1-.4c-.3-1.6-.8-3.9-.8-3.9s1.8-1.6 3-2.7c.1-.1.2-.3.1-.4s-.2-.2-.3-.3c-1.6-.2-4-.4-4-.4s-1-2.2-1.7-3.7c-.1-.1-.2-.2-.3-.2s-.3.1-.3.2c-.7 1.5-1.7 3.7-1.7 3.7"/><path d="m44.2 21.9s-2.4.3-4 .4c-.1 0-.3.1-.3.3 0 .1 0 .3.1.4 1.2 1.1 3 2.7 3 2.7s-.5 2.4-.8 3.9c0 .1 0 .3.1.4s.3.1.4 0l3.5-2s2.1 1.2 3.5 2c.1.1.3.1.4 0s.2-.2.1-.4c-.3-1.6-.8-3.9-.8-3.9s1.8-1.6 3-2.7c.1-.1.2-.3.1-.4 0-.1-.2-.2-.3-.3-1.6-.2-4-.4-4-.4s-1-2.2-1.7-3.7c-.1-.1-.2-.2-.3-.2s-.3.1-.3.2c-.7 1.5-1.7 3.7-1.7 3.7"/><path d="m31 21.9s-2.4.3-4 .4c-.1 0-.3.1-.3.3 0 .1 0 .3.1.4 1.2 1.1 3 2.7 3 2.7s-.5 2.4-.8 3.9c0 .1 0 .3.1.4s.3.1.4 0l3.5-2s2.1 1.2 3.5 2c.1.1.3.1.4 0s.2-.2.1-.4c-.3-1.6-.8-3.9-.8-3.9s1.8-1.6 3-2.7c.1-.1.2-.3.1-.4s-.2-.2-.3-.3c-1.6-.2-4-.4-4-.4s-1-2.2-1.7-3.7c0-.1-.1-.2-.3-.2s-.3.1-.3.2c-.7 1.5-1.7 3.7-1.7 3.7"/><path d="m18 21.9s-2.4.3-4 .4c-.1 0-.3.1-.3.3 0 .1 0 .3.1.4 1.2 1.1 3 2.7 3 2.7s-.5 2.4-.8 3.9c0 .1 0 .3.1.4s.3.1.4 0l3.5-2s2.1 1.2 3.5 2c.1.1.3.1.4 0s.2-.2.1-.4c-.3-1.6-.8-3.9-.8-3.9s1.8-1.6 3-2.7c.1-.1.2-.3.1-.4s-.2-.2-.3-.3c-1.6-.2-4-.4-4-.4s-1-2.2-1.7-3.7c-.1-.1-.2-.2-.3-.2s-.3.1-.3.2c-.7 1.5-1.7 3.7-1.7 3.7"/><path d="m4.9 21.9s-2.4.3-4 .4c-.1 0-.3.1-.3.3 0 .1 0 .3.1.4 1.2 1.1 3 2.7 3 2.7s-.5 2.4-.8 3.9c0 .1 0 .3.1.4s.3.1.4 0l3.5-2s2.1 1.2 3.5 2c.1.1.3.1.4 0s.2-.2.1-.4c-.3-1.6-.8-3.9-.8-3.9s1.8-1.6 3-2.7c.1-.1.2-.3.1-.4 0-.1-.2-.2-.3-.3-1.6-.2-4-.4-4-.4s-1-2.2-1.7-3.7c-.1-.1-.2-.2-.3-.2-.2 0-.3.1-.3.2-.7 1.5-1.7 3.7-1.7 3.7"/></g><path d="m123.3 21.9s-2.4.3-4 .4c-.1 0-.3.1-.3.3 0 .1 0 .3.1.4 1.2 1.1 3 2.7 3 2.7s-.5 2.4-.8 3.9c0 .1 0 .3.1.4s.3.1.4 0l3.5-2s2.1 1.2 3.5 2c.1.1.3.1.4 0s.2-.2.1-.4c-.3-1.6-.8-3.9-.8-3.9s1.8-1.6 3-2.7c.1-.1.2-.3.1-.4s-.2-.2-.3-.3c-1.6-.2-4-.4-4-.4s-1-2.2-1.7-3.7c-.1-.1-.2-.2-.3-.2-.2 0-.3.1-.3.2-.7 1.5-1.7 3.7-1.7 3.7" fill="#eac448"/><path d="m110.2 21.9s-2.4.3-4 .4c-.1 0-.3.1-.3.3 0 .1 0 .3.1.4 1.2 1.1 3 2.7 3 2.7s-.5 2.4-.8 3.9c0 .1 0 .3.1.4s.3.1.4 0l3.5-2s2.1 1.2 3.5 2c.1.1.3.1.4 0s.2-.2.1-.4c-.3-1.6-.8-3.9-.8-3.9s1.8-1.6 3-2.7c.1-.1.2-.3.1-.4s-.2-.2-.3-.3c-1.6-.2-4-.4-4-.4s-1-2.2-1.7-3.7c-.1-.1-.2-.2-.3-.2-.2 0-.3.1-.3.2-.7 1.5-1.7 3.7-1.7 3.7" fill="#eac448"/><path d="m97 21.9s-2.4.3-4 .4c-.1 0-.3.1-.3.3 0 .1 0 .3.1.4 1.2 1.1 3 2.7 3 2.7s-.5 2.4-.8 3.9c0 .1 0 .3.1.4s.3.1.4 0l3.5-2s2.1 1.2 3.5 2c.1.1.3.1.4 0s.2-.2.1-.4c-.3-1.6-.8-3.9-.8-3.9s1.8-1.6 3-2.7c.1-.1.2-.3.1-.4s-.2-.2-.3-.3c-1.6-.2-4-.4-4-.4s-1-2.2-1.7-3.7c0-.1-.2-.2-.3-.2-.2 0-.3.1-.3.2-.7 1.5-1.7 3.7-1.7 3.7" fill="#eac448"/><path d="m83.9 21.9s-2.4.3-4 .4c-.1 0-.3.1-.3.3 0 .1 0 .3.1.4 1.2 1.1 3 2.7 3 2.7s-.5 2.4-.8 3.9c0 .1 0 .3.1.4s.3.1.4 0l3.5-2s2.1 1.2 3.5 2c.1.1.3.1.4 0s.2-.2.1-.4c-.3-1.6-.8-3.9-.8-3.9s1.8-1.6 3-2.7c.1-.1.2-.3.1-.4s-.2-.2-.3-.3c-1.6-.2-4-.4-4-.4s-1-2.2-1.7-3.7c-.1-.1-.2-.2-.3-.2-.2 0-.3.1-.3.2-.7 1.5-1.7 3.7-1.7 3.7" fill="#eac448"/><path d="m70.8 21.9s-2.4.3-4 .4c-.1 0-.3.1-.3.3 0 .1 0 .3.1.4 1.2 1.1 3 2.7 3 2.7s-.5 2.4-.8 3.9c0 .1 0 .3.1.4s.3.1.4 0l3.5-2s2.1 1.2 3.5 2c.1.1.3.1.4 0s.2-.2.1-.4c-.3-1.6-.8-3.9-.8-3.9s1.8-1.6 3-2.7c.1-.1.2-.3.1-.4 0-.1-.2-.2-.3-.3-1.6-.2-4-.4-4-.4s-1-2.2-1.7-3.7c0-.1-.1-.2-.3-.2s-.3.1-.3.2c-.7 1.5-1.7 3.7-1.7 3.7" fill="#eac448"/></g></svg>