<?xml version="1.0" encoding="utf-8"?>
<!-- Generator: Adobe Illustrator 19.2.1, SVG Export Plug-In . SVG Version: 6.00 Build 0)  -->
<svg version="1.1" id="Capa_1" xmlns="http://www.w3.org/2000/svg" xmlns:xlink="http://www.w3.org/1999/xlink" x="0px" y="0px"
	 width="98.6px" height="312.4px" viewBox="0 0 98.6 312.4" enable-background="new 0 0 98.6 312.4" xml:space="preserve">
<g>
	<g>
		<g>
			<path fill="#FFFFFF" d="M36.7,60h-20c-0.3,0-0.6-0.2-0.8-0.4L5.7,44.4c-0.9-1.3-1.3-3.6-0.5-5.1c0.5-1,1.4-1.5,2.6-1.5
				c2.6,0,4.9,0.5,8.9,6V20c0-2.6,2.3-4.9,5-4.9s5,2.3,5,4.9v14.3l10.4,3.6c3.1,1,3.8,4.6,3.2,7.5l-2.6,13.8
				C37.6,59.7,37.2,60,36.7,60z M17.2,58h18.6l2.5-13.1c0.5-2.1,0.1-4.5-1.8-5.2l-11.1-3.8c-0.4-0.1-0.7-0.5-0.7-0.9V20
				c0-1.5-1.5-2.9-3-2.9s-3,1.4-3,2.9v27c0,0.4-0.3,0.8-0.7,1c-0.4,0.1-0.9,0-1.1-0.4c-5-7.7-7.1-7.7-9.1-7.7
				c-0.5,0-0.7,0.2-0.8,0.4c-0.4,0.7-0.2,2.1,0.4,3.1L17.2,58z"/>
		</g>
		<g>
			<path fill="#FFFFFF" d="M87.7,32h-54c-0.6,0-1-0.4-1-1s0.4-1,1-1h54c3.4,0,7-2.2,7-6V9c0-3.6-3.4-7-7-7h-78c-3.6,0-7,3.4-7,7v15
				c0,3.8,3.6,6,7,6c0.6,0,1,0.4,1,1s-0.4,1-1,1c-5,0-9-3.5-9-8V9c0-4.7,4.3-9,9-9h78c4.7,0,9,4.3,9,9v15C96.7,28.5,92.8,32,87.7,32
				z"/>
		</g>
	</g>
	<g>
		<path fill="#FFFFFF" d="M34.4,21.5c-0.3-0.3-0.5-0.7-0.5-1.1s0.2-0.8,0.5-1.1c0.3-0.3,0.7-0.5,1.1-0.5c0.4,0,0.8,0.2,1.1,0.5
			s0.5,0.7,0.5,1.1s-0.2,0.8-0.5,1.1S35.9,22,35.5,22C35.1,21.9,34.7,21.8,34.4,21.5z"/>
		<path fill="#FFFFFF" d="M45.1,21.9c-1.6,0-2.9-0.5-4-1.6s-1.7-2.4-1.7-4.1c0-1.7,0.6-3.1,1.8-4.2s2.6-1.6,4.3-1.6s3.1,0.6,4.3,1.7
			l-1.4,1.7c-1-0.8-1.9-1.3-2.9-1.3s-1.8,0.3-2.6,1c-0.7,0.7-1.1,1.5-1.1,2.5s0.4,1.9,1.1,2.6s1.6,1.1,2.6,1.1s2-0.5,3-1.4l1.4,1.5
			C48.4,21.2,46.9,21.9,45.1,21.9z"/>
		<path fill="#FFFFFF" d="M61.3,20.2c-1.1,1.1-2.5,1.7-4.2,1.7s-3.1-0.6-4.2-1.7c-1.1-1.1-1.7-2.5-1.7-4.1s0.6-3,1.7-4.1
			c1.1-1.1,2.5-1.7,4.2-1.7s3.1,0.6,4.2,1.7c1.1,1.1,1.7,2.5,1.7,4.1C63,17.8,62.5,19.1,61.3,20.2z M54.6,18.8c0.7,0.7,1.5,1,2.5,1
			s1.9-0.3,2.5-1c0.7-0.7,1-1.6,1-2.6s-0.3-2-1-2.6c-0.7-0.7-1.5-1-2.5-1s-1.9,0.3-2.5,1c-0.7,0.7-1,1.6-1,2.6S53.9,18.1,54.6,18.8z
			"/>
		<path fill="#FFFFFF" d="M68,15.7v6h-2.4V10.6H68v2c0.3-0.7,0.8-1.2,1.5-1.6s1.4-0.6,2.2-0.6c1.8,0,3,0.7,3.6,2.2
			c1.1-1.5,2.5-2.2,4.1-2.2c1.3,0,2.3,0.4,3.1,1.2c0.8,0.8,1.2,1.9,1.2,3.3v6.8h-2.4v-6.1c0-2.1-0.9-3.1-2.6-3.1
			c-0.8,0-1.5,0.3-2.1,0.8s-0.9,1.3-0.9,2.2v6.2h-2.4v-6.1c0-1.1-0.2-1.8-0.6-2.3s-1-0.7-1.8-0.7s-1.5,0.3-2.1,0.8
			C68.3,13.9,68,14.7,68,15.7z"/>
	</g>
</g>
<g>
	<g>
		<polyline fill="none" stroke="#FFFFFF" stroke-width="2" stroke-linejoin="round" stroke-miterlimit="10" points="32.6,95.3 
			23.9,110.1 32.7,108.3 35.3,116.2 43.4,104.5 		"/>
		<polyline fill="none" stroke="#FFFFFF" stroke-width="2" stroke-linejoin="round" stroke-miterlimit="10" points="67.1,96.5 
			74.7,109.2 66,108.3 63.3,116.2 56.3,104.7 		"/>
		
			<circle fill="none" stroke="#FFFFFF" stroke-width="2" stroke-linejoin="round" stroke-miterlimit="10" cx="50.2" cy="85.5" r="20.1"/>
		<polygon fill="none" stroke="#FFFFFF" stroke-width="2" stroke-linejoin="round" stroke-miterlimit="10" points="50.2,75.9 
			53.7,82.9 59.8,82.9 54.6,87.3 57.2,95.2 50.2,90.8 43.2,95.2 45.8,87.3 40.6,82.9 46.7,82.9 		"/>
	</g>
</g>
<g>
	<g>
		<path fill="none" d="M15.7,146.5v38h34.5c-1.8-3.2-2.8-6.8-2.8-10.7c0-12.2,9.9-22.2,22.2-22.2c0.7,0,1.4,0,2.1,0.1v-5.2
			L15.7,146.5L15.7,146.5z"/>
		<rect x="25.7" y="128.5" fill="none" width="6" height="8"/>
		<path fill="none" d="M71.7,132.5h-8v5c0,0.6-0.4,1-1,1h-8c-0.6,0-1-0.4-1-1v-5h-20v5c0,0.6-0.4,1-1,1h-8c-0.6,0-1-0.4-1-1v-5h-8
			v12h56V132.5z"/>
		<rect x="55.7" y="128.5" fill="none" width="6" height="8"/>
		<path fill="#272424" d="M15.7,184.5v-38h56v5.2c0.7,0.1,1.3,0.2,2,0.3v-20.5c0-0.6-0.4-1-1-1h-9v-3c0-0.6-0.4-1-1-1h-8
			c-0.6,0-1,0.4-1,1v3h-20v-3c0-0.6-0.4-1-1-1h-8c-0.6,0-1,0.4-1,1v3h-9c-0.6,0-1,0.4-1,1v54c0,0.6,0.4,1,1,1h36.8
			c-0.5-0.6-0.9-1.3-1.3-2H15.7z M55.7,128.5h6v8h-6V128.5z M25.7,128.5h6v8h-6V128.5z M15.7,132.5h8v5c0,0.6,0.4,1,1,1h8
			c0.6,0,1-0.4,1-1v-5h20v5c0,0.6,0.4,1,1,1h8c0.6,0,1-0.4,1-1v-5h8v12h-56C15.7,144.5,15.7,132.5,15.7,132.5z"/>
	</g>
	<g>
		<rect x="29.7" y="166.5" fill="none" width="12" height="8"/>
		<path fill="none" d="M43.7,164.5h5.8c1.4-3.1,3.6-5.9,6.2-8h-12V164.5z"/>
		<rect x="29.7" y="156.5" fill="none" width="12" height="8"/>
		<path fill="none" d="M43.7,174.5h3.8c0-0.2,0-0.5,0-0.7c0-2.5,0.4-5,1.2-7.3h-5V174.5z"/>
		<path fill="#272424" d="M43.7,174.5v-8h5c0.2-0.7,0.5-1.3,0.8-2h-5.8v-8h12c0.9-0.7,1.9-1.4,2.9-2h-0.9v-4.3c0-0.6-0.4-1-1-1
			s-1,0.4-1,1v4.3h-12v-4.3c0-0.6-0.4-1-1-1s-1,0.4-1,1v4.3h-12v-4.3c0-0.6-0.4-1-1-1s-1,0.4-1,1v4.3h-8c-0.6,0-1,0.4-1,1s0.4,1,1,1
			h8v8h-8c-0.6,0-1,0.4-1,1s0.4,1,1,1h8v8h-8c-0.6,0-1,0.4-1,1s0.4,1,1,1h8v4c0,0.6,0.4,1,1,1s1-0.4,1-1v-4h12v4c0,0.6,0.4,1,1,1
			s1-0.4,1-1v-4h3.9c-0.1-0.7-0.1-1.3-0.2-2H43.7z M41.7,174.5h-12v-8h12V174.5z M41.7,164.5h-12v-8h12V164.5z"/>
	</g>
	<circle fill="none" stroke="#272424" stroke-width="2" stroke-miterlimit="10" cx="69.7" cy="173.8" r="14"/>
	
		<line fill="none" stroke="#272424" stroke-width="2" stroke-linecap="round" stroke-miterlimit="10" x1="62.8" y1="173.8" x2="76.6" y2="173.8"/>
	
		<line fill="none" stroke="#272424" stroke-width="2" stroke-linecap="round" stroke-miterlimit="10" x1="69.7" y1="180.7" x2="69.7" y2="167"/>
</g>
<g>
	<g>
		<path fill="none" stroke="#030104" stroke-width="2" stroke-linecap="round" stroke-linejoin="round" stroke-miterlimit="10" d="
			M66.8,244.6h15.8c3.4,0,6.2-2.8,6.2-6.2v-37c0-3.4-2.8-6.2-6.2-6.2H14.8c-3.4,0-6.2,2.8-6.2,6.2v37c0,3.4,2.8,6.2,6.2,6.2h15.5"/>
		
			<line fill="none" stroke="#030104" stroke-width="2" stroke-linecap="round" stroke-linejoin="round" stroke-miterlimit="10" x1="9.4" y1="209.1" x2="88" y2="209.1"/>
		
			<line fill="none" stroke="#030104" stroke-width="2" stroke-linecap="round" stroke-linejoin="round" stroke-miterlimit="10" x1="68.3" y1="234.1" x2="88" y2="234.1"/>
		
			<line fill="none" stroke="#030104" stroke-width="2" stroke-linecap="round" stroke-linejoin="round" stroke-miterlimit="10" x1="9.4" y1="234.1" x2="28.8" y2="234.1"/>
	</g>
	<g>
		
			<circle fill="none" stroke="#272424" stroke-width="2" stroke-linecap="round" stroke-linejoin="round" stroke-miterlimit="10" cx="48.7" cy="237.5" r="12.8"/>
		
			<line fill="none" stroke="#272424" stroke-width="2" stroke-linecap="round" stroke-linejoin="round" stroke-miterlimit="10" x1="53.3" y1="232.9" x2="43.7" y2="242.5"/>
		
			<line fill="none" stroke="#272424" stroke-width="2" stroke-linecap="round" stroke-linejoin="round" stroke-miterlimit="10" x1="53.7" y1="242.5" x2="44.2" y2="232.9"/>
	</g>
</g>
<g>
	<path fill="none" stroke="#030104" stroke-width="2" stroke-linecap="round" stroke-miterlimit="10" d="M64.2,295.1h4.2
		c0,0,12.3-1.1,12.3-13.1c0-7.6-6.3-13.9-14.1-13.6c-3.1-6.5-9.6-10.9-17.2-10.9c-10.2,0-18.4,7.9-19,17.9
		c-6.4-1.3-12.3,3.5-12.3,10c0,10.4,10.9,9.7,10.9,9.7h5.4"/>
	
		<line fill="none" stroke="#030104" stroke-width="2" stroke-linecap="round" stroke-linejoin="round" stroke-miterlimit="10" x1="49.6" y1="310.9" x2="49.6" y2="282.2"/>
	
		<polyline fill="none" stroke="#030104" stroke-width="2" stroke-linecap="round" stroke-linejoin="round" stroke-miterlimit="10" points="
		40.5,301.9 49.6,310.9 58.6,301.9 	"/>
</g>
</svg>
