<svg xmlns="http://www.w3.org/2000/svg" xmlns:xlink="http://www.w3.org/1999/xlink" width="276" height="45" viewBox="0.25 0 276 45"><path fill="#393939" d="M131.49 42.96a2.334 2.334 0 0 1-2.333 2.334H2.334A2.334 2.334 0 0 1 0 42.96V2.334A2.334 2.334 0 0 1 2.334 0h126.822a2.334 2.334 0 0 1 2.334 2.334V42.96zM276.49 42.96a2.335 2.335 0 0 1-2.334 2.334H147.334A2.333 2.333 0 0 1 145 42.96V2.334A2.333 2.333 0 0 1 147.334 0h126.822a2.335 2.335 0 0 1 2.334 2.334V42.96z"/><path fill="#FFF" d="M168.795 8.417h-11.076c-1.362 0-2.841 1.639-2.841 2.764v23.243c0 1.218 1.331 2.569 2.568 2.569h11.661c1.232 0 2.53-1.382 2.53-2.53V11.258c0-1.68-1.493-2.841-2.842-2.841zm-5.545 27.885a1.623 1.623 0 1 1 0-3.245 1.623 1.623 0 0 1 0 3.245zm6.388-4.155h-12.793V13.062h12.793v19.085z"/><g fill="#FFF"><path d="M182.283 30.808l-1.242 4.09h-2.72l4.625-14.432h3.362l4.689 14.432h-2.827l-1.307-4.09h-4.58zm4.133-1.993l-1.135-3.554c-.278-.877-.514-1.863-.729-2.698h-.042c-.215.835-.43 1.841-.686 2.698l-1.114 3.554h3.706zM192.475 27.938c0-1.37-.042-2.484-.086-3.469h2.313l.128 1.605h.042c.772-1.177 1.991-1.84 3.577-1.84 2.398 0 4.39 2.055 4.39 5.31 0 3.769-2.377 5.589-4.754 5.589-1.306 0-2.397-.558-2.933-1.393h-.044v5.396h-2.633V27.938zm2.633 2.59c0 .257.022.493.087.729a2.38 2.38 0 0 0 2.312 1.842c1.671 0 2.655-1.392 2.655-3.448 0-1.842-.898-3.341-2.59-3.341-1.092 0-2.099.792-2.355 1.948-.064.214-.106.45-.106.665v1.605h-.003zM204.572 27.938c0-1.37-.043-2.484-.086-3.469h2.312l.129 1.605h.043c.771-1.177 1.991-1.84 3.576-1.84 2.398 0 4.39 2.055 4.39 5.31 0 3.769-2.378 5.589-4.753 5.589-1.307 0-2.398-.558-2.935-1.393h-.042v5.396h-2.634V27.938zm2.634 2.59c0 .257.021.493.085.729a2.385 2.385 0 0 0 2.313 1.842c1.669 0 2.655-1.392 2.655-3.448 0-1.842-.9-3.341-2.591-3.341-1.092 0-2.098.792-2.355 1.948-.064.214-.106.45-.106.665l-.001 1.605zM220.717 32.027a7.269 7.269 0 0 0 3.489.921c1.691 0 2.634-.792 2.634-1.97 0-1.092-.729-1.733-2.569-2.397-2.377-.857-3.896-2.12-3.896-4.198 0-2.355 1.97-4.154 5.096-4.154 1.563 0 2.72.343 3.47.728l-.642 2.12c-.515-.278-1.521-.685-2.87-.685-1.67 0-2.397.899-2.397 1.734 0 1.114.835 1.627 2.762 2.376 2.506.943 3.725 2.206 3.725 4.283 0 2.313-1.755 4.326-5.481 4.326-1.52 0-3.104-.43-3.896-.9l.575-2.184zM234.376 21.493v2.976h2.506v1.971h-2.506v4.603c0 1.263.343 1.928 1.351 1.928a3.85 3.85 0 0 0 1.027-.129l.043 2.014c-.386.149-1.07.257-1.906.257-.963 0-1.776-.321-2.27-.857-.557-.599-.812-1.54-.812-2.911V26.44h-1.499v-1.97h1.499v-2.355l2.567-.622zM248.36 29.588c0 3.832-2.698 5.545-5.354 5.545-2.954 0-5.224-2.034-5.224-5.375 0-3.426 2.247-5.523 5.396-5.523 3.104-.001 5.182 2.182 5.182 5.353zm-7.859.105c0 2.014.985 3.534 2.591 3.534 1.499 0 2.548-1.479 2.548-3.576 0-1.629-.728-3.49-2.526-3.49-1.863.001-2.613 1.799-2.613 3.532zM250.093 27.831c0-1.414-.021-2.419-.086-3.362h2.291l.087 1.992h.085c.514-1.479 1.733-2.227 2.848-2.227.257 0 .407.021.621.063v2.485a3.65 3.65 0 0 0-.771-.086c-1.264 0-2.119.813-2.354 1.991a4.41 4.41 0 0 0-.086.813v5.396h-2.634v-7.065zM259.15 30.421c.063 1.885 1.542 2.698 3.21 2.698 1.222 0 2.1-.172 2.892-.471l.386 1.82c-.899.363-2.142.642-3.64.642-3.384 0-5.375-2.076-5.375-5.267 0-2.891 1.756-5.611 5.096-5.611 3.383 0 4.497 2.784 4.497 5.075 0 .492-.043.877-.086 1.113h-6.98zm4.582-1.84c.021-.964-.407-2.55-2.163-2.55-1.627 0-2.312 1.478-2.419 2.55h4.582z"/></g><g fill="#FFF"><path d="M97.043 33.575c-.511 0-.976-.095-1.397-.283a2.632 2.632 0 0 1-1.062-.869h-.085c.057.459.085.892.085 1.302v3.224h-1.186V25.596h.964l.165 1.072h.057c.306-.429.66-.738 1.065-.93a3.266 3.266 0 0 1 1.394-.286c1.04 0 1.842.355 2.405 1.065.564.71.848 1.706.848 2.988 0 1.286-.288 2.287-.861 3.001-.575.712-1.372 1.069-2.392 1.069zm-.171-7.114c-.8 0-1.379.222-1.737.666-.356.442-.54 1.149-.55 2.116v.264c0 1.102.184 1.89.55 2.362.367.475.957.711 1.766.711.677 0 1.208-.273 1.591-.82.384-.548.576-1.305.576-2.268 0-.977-.192-1.726-.576-2.247-.384-.524-.924-.784-1.62-.784zM103.044 33.432h-1.186V22.308h1.186v11.124zM109.866 33.432l-.236-1.115h-.057c-.391.491-.78.824-1.169.997-.389.175-.874.262-1.455.262-.777 0-1.386-.201-1.827-.601-.441-.4-.661-.97-.661-1.709 0-1.582 1.266-2.411 3.796-2.487l1.33-.043v-.486c0-.614-.131-1.069-.396-1.362-.265-.292-.688-.439-1.27-.439-.653 0-1.392.2-2.215.6l-.365-.908c.387-.21.809-.374 1.27-.493.461-.12.92-.18 1.383-.18.934 0 1.627.207 2.076.622.45.415.676 1.08.676 1.995v5.348h-.88zm-2.68-.837c.739 0 1.319-.203 1.741-.607.421-.405.633-.973.633-1.702v-.706l-1.187.05c-.944.034-1.625.181-2.041.439-.417.26-.625.664-.625 1.213 0 .429.129.754.39.978.258.222.621.335 1.089.335zM111.434 25.596h1.271l1.715 4.467c.376 1.021.611 1.757.701 2.21h.058c.062-.242.192-.659.39-1.248s.845-2.398 1.94-5.429h1.273l-3.366 8.921c-.334.881-.723 1.507-1.169 1.877-.445.368-.992.554-1.641.554-.362 0-.72-.041-1.073-.121v-.95c.262.058.555.086.88.086.814 0 1.396-.458 1.744-1.372l.436-1.115-3.159-7.88z"/><g><path d="M75.061 26.324c.377.312 1.164.966 1.164 2.213 0 1.212-.688 1.787-1.376 2.326-.213.214-.459.443-.459.805 0 .359.246.557.427.704l.59.458c.721.606 1.375 1.165 1.375 2.295 0 1.54-1.492 3.098-4.31 3.098-2.376 0-3.523-1.131-3.523-2.345 0-.59.293-1.425 1.262-1.999 1.014-.623 2.393-.704 3.13-.754-.231-.295-.492-.606-.492-1.114 0-.279.082-.442.163-.64a5.808 5.808 0 0 1-.525.032c-1.736 0-2.719-1.293-2.719-2.571 0-.755.344-1.59 1.048-2.196.935-.771 2.049-.902 2.934-.902h3.375l-1.048.59h-1.016zm-1.164 7.277c-.131-.018-.214-.018-.376-.018-.147 0-1.033.034-1.721.264-.36.13-1.409.522-1.409 1.688 0 1.163 1.13 2 2.884 2 1.573 0 2.41-.755 2.41-1.771-.001-.837-.543-1.278-1.788-2.163zm.475-3.115c.376-.376.409-.901.409-1.196 0-1.179-.703-3.014-2.064-3.014-.428 0-.885.213-1.147.541-.279.344-.361.786-.361 1.213 0 1.099.639 2.917 2.049 2.917a1.686 1.686 0 0 0 1.114-.461zM64.744 33.339c-2.602 0-3.993-2.03-3.993-3.862 0-2.144 1.75-3.975 4.238-3.975 2.404 0 3.91 1.881 3.91 3.861 0 1.93-1.488 3.976-4.155 3.976zm2.045-1.326c.393-.524.492-1.179.492-1.816 0-1.439-.687-4.188-2.716-4.188-.54 0-1.08.213-1.472.558-.638.572-.754 1.292-.754 1.997 0 1.618.802 4.284 2.782 4.284.637-.001 1.293-.312 1.668-.835zM55.876 33.339c-2.602 0-3.993-2.03-3.993-3.862 0-2.144 1.75-3.975 4.238-3.975 2.405 0 3.91 1.881 3.91 3.861 0 1.93-1.489 3.976-4.155 3.976zm2.044-1.326c.393-.524.492-1.179.492-1.816 0-1.439-.688-4.188-2.717-4.188-.54 0-1.08.213-1.473.558-.638.572-.752 1.292-.752 1.997 0 1.618.801 4.284 2.782 4.284.638-.001 1.292-.312 1.668-.835zM50.633 33.082l-2.352.543c-.955.149-1.81.279-2.714.279-4.541 0-6.267-3.341-6.267-5.956 0-3.19 2.451-6.15 6.646-6.15.889 0 1.744.13 2.517.345 1.233.346 1.809.772 2.171 1.02l-1.365 1.3-.576.131.411-.66c-.559-.542-1.58-1.544-3.52-1.544-2.6 0-4.557 1.974-4.557 4.853 0 3.093 2.237 6.004 5.822 6.004 1.054 0 1.596-.213 2.089-.412v-2.648l-2.483.132 1.315-.707h3.488l-.428.411c-.116.099-.132.132-.165.263-.018.148-.033.626-.033.79l.001 2.006z"/><path d="M80.26 32.608c-.544-.049-.656-.148-.656-.79v-9.311l.008-.106c.067-.575.231-.674.741-.971H78l-1.234.593h1.257v.007-.006 10.155c0 .328-.064.379-.444.871h2.912l.609-.36c-.28-.034-.56-.048-.84-.082zM86.953 32.76c-.179.098-.359.213-.538.294-.541.244-1.096.311-1.586.311-.521 0-1.338-.034-2.172-.639-1.16-.816-1.666-2.222-1.666-3.447 0-2.531 2.059-3.773 3.741-3.773.587 0 1.192.148 1.683.458.815.537 1.029 1.241 1.142 1.616l-3.838 1.553-1.258.099c.408 2.074 1.812 3.282 3.365 3.282.833 0 1.438-.294 1.993-.571l-.866.817zm-1.534-4.869c.31-.114.473-.212.473-.441 0-.653-.735-1.405-1.617-1.405-.654 0-1.879.507-1.879 2.271 0 .278.032.571.05.867l2.973-1.292zM88.529 25.618v1.078h-.131v-1.078h-.356v-.112h.844v.112h-.357zM90 26.695v-1.087h-.006l-.332 1.087h-.103l-.334-1.087h-.005v1.087h-.12v-1.188h.204l.304.962h.003l.299-.962h.207v1.188H90z"/></g></g><defs><path id="a" d="M28.331 17.972l-5.595-3.23-10.792-6.231c-.599-.346-1.196-.137-1.196.586V34.485c0 .541.426.776.947.476l11.042-6.375 5.595-3.231 5.378-3.104c.631-.364.57-.865.038-1.151-.533-.288-5.417-3.128-5.417-3.128z"/></defs><clipPath id="b"><use xlink:href="#a" overflow="visible"/></clipPath><linearGradient id="c" gradientUnits="userSpaceOnUse" x1="265.178" y1="-76.56" x2="265.178" y2="-104.049" gradientTransform="matrix(1 0 0 -1 -247.5 -68.64)"><stop offset="0" stop-color="#0d76ab"/><stop offset=".297" stop-color="#3e8eaf"/><stop offset=".771" stop-color="#64b1af"/><stop offset="1" stop-color="#71bdac"/></linearGradient><path clip-path="url(#b)" fill="url(#c)" d="M10.747 7.919V35.408l13.861-13.744z"/><g><defs><path id="d" d="M28.331 17.972l-5.595-3.23-10.792-6.231c-.599-.346-1.196-.137-1.196.586V34.485c0 .541.426.776.947.476l11.042-6.375 5.595-3.231 5.378-3.104c.631-.364.57-.865.038-1.151-.533-.288-5.417-3.128-5.417-3.128z"/></defs><clipPath id="e"><use xlink:href="#d" overflow="visible"/></clipPath><linearGradient id="f" gradientUnits="userSpaceOnUse" x1="258.247" y1="-83.382" x2="275.831" y2="-83.382" gradientTransform="matrix(1 0 0 -1 -247.5 -68.64)"><stop offset="0" stop-color="#44b1a0"/><stop offset="1" stop-color="#d6e291"/></linearGradient><path clip-path="url(#e)" fill="url(#f)" d="M28.331 17.972l-5.595-3.231-11.989-6.922v.1l13.861 13.745z"/></g><g><defs><path id="g" d="M28.331 17.972l-5.595-3.23-10.792-6.231c-.599-.346-1.196-.137-1.196.586V34.485c0 .541.426.776.947.476l11.042-6.375 5.595-3.231 5.378-3.104c.631-.364.57-.865.038-1.151-.533-.288-5.417-3.128-5.417-3.128z"/></defs><clipPath id="h"><use xlink:href="#g" overflow="visible"/></clipPath><linearGradient id="i" gradientUnits="userSpaceOnUse" x1="267.039" y1="-90.305" x2="267.039" y2="-104.149" gradientTransform="matrix(1 0 0 -1 -247.5 -68.64)"><stop offset="0" stop-color="#e23834"/><stop offset=".163" stop-color="#d23949"/><stop offset=".573" stop-color="#a23a72"/><stop offset=".861" stop-color="#853b89"/><stop offset="1" stop-color="#7a3b8f"/></linearGradient><path clip-path="url(#h)" fill="url(#i)" d="M10.747 35.408v.1l11.989-6.922 5.595-3.231-3.723-3.691z"/></g><g><defs><path id="j" d="M28.331 17.972l-5.595-3.23-10.792-6.231c-.599-.346-1.196-.137-1.196.586V34.485c0 .541.426.776.947.476l11.042-6.375 5.595-3.231 5.378-3.104c.631-.364.57-.865.038-1.151-.533-.288-5.417-3.128-5.417-3.128z"/></defs><clipPath id="k"><use xlink:href="#j" overflow="visible"/></clipPath><linearGradient id="l" gradientUnits="userSpaceOnUse" x1="277.166" y1="-86.612" x2="277.166" y2="-93.996" gradientTransform="matrix(1 0 0 -1 -247.5 -68.64)"><stop offset="0" stop-color="#ea7d6f"/><stop offset=".153" stop-color="#ec8970"/><stop offset=".724" stop-color="#f4b16f"/><stop offset="1" stop-color="#f7c06d"/></linearGradient><path clip-path="url(#k)" fill="url(#l)" d="M28.331 17.972l-3.723 3.692 3.723 3.691 6.395-3.691z"/></g></svg>