<svg xmlns="http://www.w3.org/2000/svg" width="270px" height="75px" viewBox="0 0 270 75"><path d="M0,0h100v8H0V0z" fill="#4BAA3B"/><path d="m20 0v8m20-8v8m20-8v8m20-8v8" fill="none" stroke="#fff" stroke-miterlimit="10" stroke-width="2"/><path d="m78.6 37.2s-3.2 0.4-5.3 0.6c-0.2 0-0.4 0.2-0.4 0.3-0.1 0.2 0 0.4 0.1 0.5 1.6 1.4 3.9 3.6 3.9 3.6s-0.6 3.1-1.1 5.2c0 0.2 0 0.4 0.2 0.5s0.4 0.1 0.5 0c1.9-1.1 4.6-2.6 4.6-2.6s2.8 1.6 4.6 2.6c0.2 0.1 0.4 0.1 0.5 0 0.2-0.1 0.2-0.3 0.2-0.5-0.4-2.1-1.1-5.2-1.1-5.2s2.4-2.1 3.9-3.6c0.1-0.1 0.2-0.3 0.1-0.5s-0.2-0.3-0.4-0.3c-2.1-0.2-5.3-0.6-5.3-0.6s-1.3-2.9-2.2-4.9c-0.1-0.2-0.3-0.3-0.5-0.3s-0.4 0.1-0.5 0.3c-0.4 2-1.8 4.9-1.8 4.9" fill="#D5D5D5"/><path d="m60.6 37.2s-3.2 0.4-5.3 0.6c-0.2 0-0.4 0.2-0.4 0.3-0.1 0.2 0 0.4 0.1 0.5 1.6 1.4 3.9 3.6 3.9 3.6s-0.6 3.1-1.1 5.2c0 0.2 0 0.4 0.2 0.5s0.4 0.1 0.5 0c1.9-1.1 4.6-2.6 4.6-2.6s2.9 1.7 4.8 2.7c0.2 0.1 0.4 0.1 0.5 0 0.2-0.1 0.2-0.3 0.2-0.5-0.4-2.1-1.1-5.2-1.1-5.2s2.4-2.1 3.9-3.6c0.1-0.1 0.2-0.3 0.1-0.5s-0.2-0.3-0.4-0.3c-2.1-0.2-5.3-0.6-5.3-0.6s-1.3-2.9-2.2-4.9c-0.1-0.2-0.3-0.3-0.5-0.3s-0.4 0.1-0.5 0.3c-0.7 1.9-2 4.8-2 4.8" fill="#D5D5D5"/><path d="m42.5 37.2s-3.2 0.4-5.3 0.6c-0.2 0-0.4 0.2-0.4 0.3-0.1 0.2 0 0.4 0.1 0.5 1.6 1.4 3.9 3.6 3.9 3.6s-0.6 3.1-1.1 5.2c0 0.2 0 0.4 0.2 0.5s0.4 0.1 0.5 0c1.9-1.1 4.6-2.6 4.6-2.6s2.8 1.6 4.6 2.6c0.2 0.1 0.4 0.1 0.5 0 0.2-0.1 0.2-0.3 0.2-0.5-0.4-2.1-1.1-5.2-1.1-5.2s2.4-2.1 3.9-3.6c0.1-0.1 0.2-0.3 0.1-0.5s-0.2-0.3-0.4-0.3c-2.1-0.2-5.3-0.6-5.3-0.6s-1.3-2.9-2.2-4.9c-0.1-0.2-0.3-0.3-0.5-0.3s-0.4 0.1-0.5 0.3c-0.5 2-1.8 4.9-1.8 4.9" fill="#D5D5D5"/><path d="m24.3 37.2s-3.2 0.4-5.3 0.6c-0.2 0-0.4 0.2-0.4 0.3-0.1 0.2 0 0.4 0.1 0.5 1.6 1.4 3.9 3.6 3.9 3.6s-0.6 3.1-1.1 5.2c0 0.2 0 0.4 0.2 0.5s0.4 0.1 0.5 0c1.9-1.1 4.6-2.6 4.6-2.6s2.8 1.6 4.6 2.6c0.2 0.1 0.4 0.1 0.5 0 0.2-0.1 0.2-0.3 0.2-0.5-0.4-2.1-1.1-5.2-1.1-5.2s2.4-2.1 3.9-3.6c0.1-0.1 0.2-0.3 0.1-0.5s-0.2-0.3-0.4-0.3c-2.1-0.2-5.3-0.6-5.3-0.6s-1.3-2.9-2.2-4.9c-0.1-0.2-0.3-0.3-0.5-0.3s-0.4 0.1-0.5 0.3c-0.5 2-1.8 4.9-1.8 4.9" fill="#D5D5D5"/><path d="m6.1 37.2s-3.2 0.4-5.3 0.6c-0.2 0-0.4 0.2-0.4 0.3-0.1 0.2 0 0.4 0.1 0.5 1.6 1.4 3.9 3.6 3.9 3.6s-0.6 3.1-1.1 5.2c0 0.2 0 0.4 0.2 0.5s0.4 0.1 0.5 0c1.9-1.1 4.6-2.6 4.6-2.6s2.8 1.6 4.6 2.6c0.2 0.1 0.4 0.1 0.5 0 0.2-0.1 0.2-0.3 0.2-0.5-0.4-2.1-1.1-5.2-1.1-5.2s2.4-2.1 3.9-3.6c0.1-0.1 0.2-0.3 0.1-0.5s-0.2-0.3-0.4-0.3c-2.1-0.2-5.3-0.6-5.3-0.6s-1.3-2.9-2.2-4.9c-0.1-0.2-0.3-0.3-0.5-0.3s-0.4 0.1-0.5 0.3c-0.5 2-1.8 4.9-1.8 4.9" fill="#D5D5D5"/><path d="m169.7 37.2s-3.2 0.4-5.3 0.6c-0.2 0-0.4 0.2-0.4 0.3-0.1 0.2 0 0.4 0.1 0.5 1.6 1.4 3.9 3.6 3.9 3.6s-0.6 3.1-1.1 5.2c0 0.2 0 0.4 0.2 0.5s0.4 0.1 0.5 0c1.9-1.1 4.6-2.6 4.6-2.6s2.8 1.6 4.6 2.6c0.2 0.1 0.4 0.1 0.5 0 0.2-0.1 0.2-0.3 0.2-0.5-0.4-2.1-1.1-5.2-1.1-5.2s2.4-2.1 3.9-3.6c0.1-0.1 0.2-0.3 0.1-0.5s-0.2-0.3-0.4-0.3c-2.1-0.2-5.3-0.6-5.3-0.6s-1.3-2.9-2.2-4.9c-0.1-0.2-0.3-0.3-0.5-0.3s-0.4 0.1-0.5 0.3c-0.5 2-1.8 4.9-1.8 4.9" fill="#EAC448"/><path d="m151.6 37.2s-3.2 0.4-5.3 0.6c-0.2 0-0.4 0.2-0.4 0.3-0.1 0.2 0 0.4 0.1 0.5 1.6 1.4 3.9 3.6 3.9 3.6s-0.6 3.1-1.1 5.2c0 0.2 0 0.4 0.2 0.5s0.4 0.1 0.5 0c1.9-1.1 4.6-2.6 4.6-2.6s2.8 1.6 4.6 2.6c0.2 0.1 0.4 0.1 0.5 0 0.2-0.1 0.2-0.3 0.2-0.5-0.4-2.1-1.1-5.2-1.1-5.2s2.4-2.1 3.9-3.6c0.1-0.1 0.2-0.3 0.1-0.5s-0.2-0.3-0.4-0.3c-2.1-0.2-5.3-0.6-5.3-0.6s-1.3-2.9-2.2-4.9c-0.1-0.2-0.3-0.3-0.5-0.3s-0.4 0.1-0.5 0.3c-0.5 2-1.8 4.9-1.8 4.9" fill="#EAC448"/><path d="m133.5 37.2s-3.2 0.4-5.3 0.6c-0.2 0-0.4 0.2-0.4 0.3-0.1 0.2 0 0.4 0.1 0.5 1.6 1.4 3.9 3.6 3.9 3.6s-0.6 3.1-1.1 5.2c0 0.2 0 0.4 0.2 0.5s0.4 0.1 0.5 0c1.9-1.1 4.6-2.6 4.6-2.6s2.8 1.6 4.6 2.6c0.2 0.1 0.4 0.1 0.5 0 0.2-0.1 0.2-0.3 0.2-0.5-0.4-2.1-1.1-5.2-1.1-5.2s2.4-2.1 3.9-3.6c0.1-0.1 0.2-0.3 0.1-0.5s-0.2-0.3-0.4-0.3c-2.1-0.2-5.3-0.6-5.3-0.6s-1.3-2.9-2.2-4.9c-0.1-0.2-0.3-0.3-0.5-0.3s-0.4 0.1-0.5 0.3c-0.5 2-1.8 4.9-1.8 4.9" fill="#EAC448"/><path d="m115.3 37.2s-3.2 0.4-5.3 0.6c-0.2 0-0.4 0.2-0.4 0.3-0.1 0.2 0 0.4 0.1 0.5 1.6 1.4 3.9 3.6 3.9 3.6s-0.6 3.1-1.1 5.2c0 0.2 0 0.4 0.2 0.5s0.4 0.1 0.5 0c1.9-1.1 4.6-2.6 4.6-2.6s2.8 1.6 4.6 2.6c0.2 0.1 0.4 0.1 0.5 0 0.2-0.1 0.2-0.3 0.2-0.5-0.4-2.1-1.1-5.2-1.1-5.2s2.4-2.1 3.9-3.6c0.1-0.1 0.2-0.3 0.1-0.5s-0.2-0.3-0.4-0.3c-2.1-0.2-5.3-0.6-5.3-0.6s-1.3-2.9-2.2-4.9c-0.1-0.2-0.3-0.3-0.5-0.3s-0.4 0.1-0.5 0.3c-0.5 2-1.8 4.9-1.8 4.9" fill="#EAC448"/><path d="m97.1 37.2s-3.2 0.4-5.3 0.6c-0.2 0-0.4 0.2-0.4 0.3-0.1 0.2 0 0.4 0.1 0.5 1.6 1.4 3.9 3.6 3.9 3.6s-0.6 3.1-1.1 5.2c0 0.2 0 0.4 0.2 0.5s0.4 0.1 0.5 0c1.9-1.1 4.6-2.6 4.6-2.6s2.8 1.6 4.6 2.6c0.2 0.1 0.4 0.1 0.5 0 0.2-0.1 0.2-0.3 0.2-0.5-0.4-2.1-1.1-5.2-1.1-5.2s2.4-2.1 3.9-3.6c0.1-0.1 0.2-0.3 0.1-0.5s-0.2-0.3-0.4-0.3c-2.1-0.2-5.3-0.6-5.3-0.6s-1.3-2.9-2.2-4.9c-0.1-0.2-0.3-0.3-0.5-0.3s-0.4 0.1-0.5 0.3c-0.5 2-1.8 4.9-1.8 4.9" fill="#EAC448"/><path d="m57.3 21.9s-2.4 0.3-4 0.4c-0.1 0-0.3 0.1-0.3 0.3 0 0.1 0 0.3 0.1 0.4 1.2 1.1 3 2.7 3 2.7s-0.5 2.4-0.8 3.9c0 0.1 0 0.3 0.1 0.4s0.3 0.1 0.4 0l3.5-2 3.5 2c0.1 0.1 0.3 0.1 0.4 0s0.2-0.2 0.1-0.4c-0.3-1.6-0.8-3.9-0.8-3.9s1.8-1.6 3-2.7c0.1-0.1 0.2-0.3 0.1-0.4s-0.2-0.2-0.3-0.3c-1.6-0.2-4-0.4-4-0.4s-1-2.2-1.7-3.7c-0.1-0.1-0.2-0.2-0.3-0.2s-0.3 0.1-0.3 0.2c-0.7 1.5-1.7 3.7-1.7 3.7" fill="#D5D5D5"/><path d="m44.2 21.9s-2.4 0.3-4 0.4c-0.1 0-0.3 0.1-0.3 0.3 0 0.1 0 0.3 0.1 0.4 1.2 1.1 3 2.7 3 2.7s-0.5 2.4-0.8 3.9c0 0.1 0 0.3 0.1 0.4s0.3 0.1 0.4 0l3.5-2 3.5 2c0.1 0.1 0.3 0.1 0.4 0s0.2-0.2 0.1-0.4c-0.3-1.6-0.8-3.9-0.8-3.9s1.8-1.6 3-2.7c0.1-0.1 0.2-0.3 0.1-0.4 0-0.1-0.2-0.2-0.3-0.3-1.6-0.2-4-0.4-4-0.4s-1-2.2-1.7-3.7c-0.1-0.1-0.2-0.2-0.3-0.2s-0.3 0.1-0.3 0.2c-0.7 1.5-1.7 3.7-1.7 3.7" fill="#D5D5D5"/><path d="m31 21.9s-2.4 0.3-4 0.4c-0.1 0-0.3 0.1-0.3 0.3 0 0.1 0 0.3 0.1 0.4 1.2 1.1 3 2.7 3 2.7s-0.5 2.4-0.8 3.9c0 0.1 0 0.3 0.1 0.4s0.3 0.1 0.4 0l3.5-2 3.5 2c0.1 0.1 0.3 0.1 0.4 0s0.2-0.2 0.1-0.4c-0.3-1.6-0.8-3.9-0.8-3.9s1.8-1.6 3-2.7c0.1-0.1 0.2-0.3 0.1-0.4s-0.2-0.2-0.3-0.3c-1.6-0.2-4-0.4-4-0.4s-1-2.2-1.7-3.7c0-0.1-0.1-0.2-0.3-0.2s-0.3 0.1-0.3 0.2c-0.7 1.5-1.7 3.7-1.7 3.7" fill="#D5D5D5"/><path d="m18 21.9s-2.4 0.3-4 0.4c-0.1 0-0.3 0.1-0.3 0.3 0 0.1 0 0.3 0.1 0.4 1.2 1.1 3 2.7 3 2.7s-0.5 2.4-0.8 3.9c0 0.1 0 0.3 0.1 0.4s0.3 0.1 0.4 0l3.5-2 3.5 2c0.1 0.1 0.3 0.1 0.4 0s0.2-0.2 0.1-0.4c-0.3-1.6-0.8-3.9-0.8-3.9s1.8-1.6 3-2.7c0.1-0.1 0.2-0.3 0.1-0.4s-0.2-0.2-0.3-0.3c-1.6-0.2-4-0.4-4-0.4s-1-2.2-1.7-3.7c-0.1-0.1-0.2-0.2-0.3-0.2s-0.3 0.1-0.3 0.2c-0.7 1.5-1.7 3.7-1.7 3.7" fill="#D5D5D5"/><path d="m4.9 21.9s-2.4 0.3-4 0.4c-0.1 0-0.3 0.1-0.3 0.3 0 0.1 0 0.3 0.1 0.4 1.2 1.1 3 2.7 3 2.7s-0.5 2.4-0.8 3.9c0 0.1 0 0.3 0.1 0.4s0.3 0.1 0.4 0l3.5-2 3.5 2c0.1 0.1 0.3 0.1 0.4 0s0.2-0.2 0.1-0.4c-0.3-1.6-0.8-3.9-0.8-3.9s1.8-1.6 3-2.7c0.1-0.1 0.2-0.3 0.1-0.4 0-0.1-0.2-0.2-0.3-0.3-1.6-0.2-4-0.4-4-0.4s-1-2.2-1.7-3.7c-0.1-0.1-0.2-0.2-0.3-0.2-0.2 0-0.3 0.1-0.3 0.2-0.7 1.5-1.7 3.7-1.7 3.7" fill="#D5D5D5"/><path d="m123.3 21.9s-2.4 0.3-4 0.4c-0.1 0-0.3 0.1-0.3 0.3 0 0.1 0 0.3 0.1 0.4 1.2 1.1 3 2.7 3 2.7s-0.5 2.4-0.8 3.9c0 0.1 0 0.3 0.1 0.4s0.3 0.1 0.4 0l3.5-2 3.5 2c0.1 0.1 0.3 0.1 0.4 0s0.2-0.2 0.1-0.4c-0.3-1.6-0.8-3.9-0.8-3.9s1.8-1.6 3-2.7c0.1-0.1 0.2-0.3 0.1-0.4s-0.2-0.2-0.3-0.3c-1.6-0.2-4-0.4-4-0.4s-1-2.2-1.7-3.7c-0.1-0.1-0.2-0.2-0.3-0.2-0.2 0-0.3 0.1-0.3 0.2-0.7 1.5-1.7 3.7-1.7 3.7" fill="#EAC448"/><path d="m110.2 21.9s-2.4 0.3-4 0.4c-0.1 0-0.3 0.1-0.3 0.3 0 0.1 0 0.3 0.1 0.4 1.2 1.1 3 2.7 3 2.7s-0.5 2.4-0.8 3.9c0 0.1 0 0.3 0.1 0.4s0.3 0.1 0.4 0l3.5-2 3.5 2c0.1 0.1 0.3 0.1 0.4 0s0.2-0.2 0.1-0.4c-0.3-1.6-0.8-3.9-0.8-3.9s1.8-1.6 3-2.7c0.1-0.1 0.2-0.3 0.1-0.4s-0.2-0.2-0.3-0.3c-1.6-0.2-4-0.4-4-0.4s-1-2.2-1.7-3.7c-0.1-0.1-0.2-0.2-0.3-0.2-0.2 0-0.3 0.1-0.3 0.2-0.7 1.5-1.7 3.7-1.7 3.7" fill="#EAC448"/><path d="m97 21.9s-2.4 0.3-4 0.4c-0.1 0-0.3 0.1-0.3 0.3 0 0.1 0 0.3 0.1 0.4 1.2 1.1 3 2.7 3 2.7s-0.5 2.4-0.8 3.9c0 0.1 0 0.3 0.1 0.4s0.3 0.1 0.4 0l3.5-2 3.5 2c0.1 0.1 0.3 0.1 0.4 0s0.2-0.2 0.1-0.4c-0.3-1.6-0.8-3.9-0.8-3.9s1.8-1.6 3-2.7c0.1-0.1 0.2-0.3 0.1-0.4s-0.2-0.2-0.3-0.3c-1.6-0.2-4-0.4-4-0.4s-1-2.2-1.7-3.7c0-0.1-0.2-0.2-0.3-0.2-0.2 0-0.3 0.1-0.3 0.2-0.7 1.5-1.7 3.7-1.7 3.7" fill="#EAC448"/><path d="m83.9 21.9s-2.4 0.3-4 0.4c-0.1 0-0.3 0.1-0.3 0.3 0 0.1 0 0.3 0.1 0.4 1.2 1.1 3 2.7 3 2.7s-0.5 2.4-0.8 3.9c0 0.1 0 0.3 0.1 0.4s0.3 0.1 0.4 0l3.5-2 3.5 2c0.1 0.1 0.3 0.1 0.4 0s0.2-0.2 0.1-0.4c-0.3-1.6-0.8-3.9-0.8-3.9s1.8-1.6 3-2.7c0.1-0.1 0.2-0.3 0.1-0.4s-0.2-0.2-0.3-0.3c-1.6-0.2-4-0.4-4-0.4s-1-2.2-1.7-3.7c-0.1-0.1-0.2-0.2-0.3-0.2-0.2 0-0.3 0.1-0.3 0.2-0.7 1.5-1.7 3.7-1.7 3.7" fill="#EAC448"/><path d="m70.8 21.9s-2.4 0.3-4 0.4c-0.1 0-0.3 0.1-0.3 0.3 0 0.1 0 0.3 0.1 0.4 1.2 1.1 3 2.7 3 2.7s-0.5 2.4-0.8 3.9c0 0.1 0 0.3 0.1 0.4s0.3 0.1 0.4 0l3.5-2 3.5 2c0.1 0.1 0.3 0.1 0.4 0s0.2-0.2 0.1-0.4c-0.3-1.6-0.8-3.9-0.8-3.9s1.8-1.6 3-2.7c0.1-0.1 0.2-0.3 0.1-0.4 0-0.1-0.2-0.2-0.3-0.3-1.6-0.2-4-0.4-4-0.4s-1-2.2-1.7-3.7c0-0.1-0.1-0.2-0.3-0.2s-0.3 0.1-0.3 0.2c-0.7 1.5-1.7 3.7-1.7 3.7" fill="#EAC448"/><path d="m117.2 57.9s-4.8 0.6-7.9 0.9c-0.3 0-0.6 0.3-0.6 0.4-0.1 0.3 0 0.6 0.1 0.7 2.4 2.1 5.8 5.4 5.8 5.4s-0.9 4.6-1.6 7.8c0 0.3 0 0.6 0.3 0.7s0.6 0.1 0.7 0c2.8-1.6 6.9-3.9 6.9-3.9s4.2 2.4 6.9 3.9c0.3 0.1 0.6 0.1 0.7 0 0.3-0.1 0.3-0.4 0.3-0.7-0.6-3.1-1.6-7.8-1.6-7.8s3.6-3.1 5.8-5.4c0.1-0.1 0.3-0.4 0.1-0.7-0.1-0.3-0.3-0.4-0.6-0.4-3.1-0.3-7.9-0.9-7.9-0.9s-1.9-4.3-3.3-7.3c-0.1-0.3-0.4-0.4-0.7-0.4s-0.6 0.1-0.7 0.4c-0.6 3-2.7 7.3-2.7 7.3" fill="#D5D5D5"/><path d="m90.3 57.8s-4.8 0.6-7.9 0.9c-0.3 0-0.6 0.3-0.6 0.4-0.1 0.3 0 0.6 0.1 0.7 2.4 2.1 5.8 5.4 5.8 5.4s-0.9 4.6-1.6 7.8c0 0.3 0 0.6 0.3 0.7s0.6 0.1 0.7 0c2.8-1.6 6.9-3.9 6.9-3.9s4.3 2.5 7.2 4c0.3 0.1 0.6 0.1 0.7 0 0.3-0.1 0.3-0.4 0.3-0.7-0.6-3.1-1.6-7.8-1.6-7.8s3.6-3.1 5.8-5.4c0.1-0.1 0.3-0.4 0.1-0.7-0.1-0.3-0.3-0.4-0.6-0.4-3.1-0.3-7.9-0.9-7.9-0.9s-1.9-4.3-3.3-7.3c-0.1-0.3-0.4-0.4-0.7-0.4s-0.6 0.1-0.7 0.4c-1.1 2.8-3 7.2-3 7.2" fill="#D5D5D5"/><path d="m63.3 57.9s-4.8 0.6-7.9 0.9c-0.3 0-0.6 0.3-0.6 0.4-0.1 0.3 0 0.6 0.1 0.7 2.4 2.1 5.8 5.4 5.8 5.4s-0.9 4.6-1.6 7.8c0 0.3 0 0.6 0.3 0.7s0.6 0.1 0.7 0c2.9-1.6 6.9-3.8 6.9-3.8s4.2 2.4 6.9 3.9c0.3 0.1 0.6 0.1 0.7 0 0.3-0.1 0.3-0.4 0.3-0.7-0.6-3.1-1.6-7.8-1.6-7.8s3.6-3.1 5.8-5.4c0.1-0.1 0.3-0.4 0.1-0.7-0.1-0.3-0.3-0.4-0.6-0.4-3.1-0.3-7.9-0.9-7.9-0.9s-1.9-4.3-3.3-7.3c-0.1-0.3-0.4-0.4-0.7-0.4s-0.6 0.1-0.7 0.4c-0.8 2.9-2.7 7.2-2.7 7.2" fill="#D5D5D5"/><path d="m36.1 57.9s-4.8 0.6-7.9 0.9c-0.3 0-0.6 0.3-0.6 0.4-0.1 0.3 0 0.6 0.1 0.7 2.4 2.1 5.8 5.4 5.8 5.4s-0.9 4.6-1.6 7.8c0 0.3 0 0.6 0.3 0.7s0.6 0.1 0.7 0c2.8-1.6 6.9-3.9 6.9-3.9s4.2 2.4 6.9 3.9c0.3 0.1 0.6 0.1 0.7 0 0.3-0.1 0.3-0.4 0.3-0.7-0.6-3.1-1.6-7.8-1.6-7.8s3.6-3.1 5.8-5.4c0.1-0.1 0.3-0.4 0.1-0.7-0.1-0.3-0.3-0.4-0.6-0.4-3.1-0.3-7.9-0.9-7.9-0.9s-1.9-4.3-3.3-7.3c-0.1-0.3-0.4-0.4-0.7-0.4s-0.6 0.1-0.7 0.4c-0.8 3-2.7 7.3-2.7 7.3" fill="#D5D5D5"/><path d="m8.9 57.9s-4.8 0.6-7.9 0.9c-0.3 0-0.6 0.3-0.6 0.4-0.1 0.3 0 0.6 0.1 0.7 2.4 2.1 5.8 5.4 5.8 5.4s-0.8 4.7-1.5 7.8c0 0.3 0 0.6 0.3 0.7s0.6 0.1 0.7 0c2.8-1.6 6.9-3.9 6.9-3.9s4.2 2.4 6.9 3.9c0.3 0.1 0.6 0.1 0.7 0 0.3-0.1 0.3-0.4 0.3-0.7-0.6-3.1-1.6-7.8-1.6-7.8s3.6-3.1 5.8-5.4c0.1-0.1 0.3-0.4 0.1-0.7-0.1-0.3-0.3-0.4-0.6-0.4-3.1-0.3-7.9-0.9-7.9-0.9s-1.9-4.3-3.3-7.3c-0.1-0.3-0.4-0.4-0.7-0.4s-0.6 0.1-0.7 0.4c-0.8 3-2.8 7.3-2.8 7.3" fill="#D5D5D5"/><path d="m253.2 57.9s-4.8 0.6-7.9 0.9c-0.3 0-0.6 0.3-0.6 0.4-0.1 0.3 0 0.6 0.1 0.7 2.4 2.1 5.8 5.4 5.8 5.4s-0.9 4.6-1.6 7.8c0 0.3 0 0.6 0.3 0.7s0.6 0.1 0.7 0c2.8-1.6 6.9-3.9 6.9-3.9s4.2 2.4 6.9 3.9c0.3 0.1 0.6 0.1 0.7 0 0.3-0.1 0.3-0.4 0.3-0.7-0.6-3.1-1.6-7.8-1.6-7.8s3.6-3.1 5.8-5.4c0.1-0.1 0.3-0.4 0.1-0.7-0.1-0.3-0.3-0.4-0.6-0.4-3.1-0.3-7.9-0.9-7.9-0.9s-1.9-4.3-3.3-7.3c-0.1-0.3-0.4-0.4-0.7-0.4s-0.6 0.1-0.7 0.4c-0.8 3-2.7 7.3-2.7 7.3" fill="#EAC448"/><path d="m226.2 57.9s-4.8 0.6-7.9 0.9c-0.3 0-0.6 0.3-0.6 0.4-0.1 0.3 0 0.6 0.1 0.7 2.4 2.1 5.8 5.4 5.8 5.4s-0.9 4.6-1.6 7.8c0 0.3 0 0.6 0.3 0.7s0.6 0.1 0.7 0c2.8-1.6 6.9-3.9 6.9-3.9s4.2 2.4 6.9 3.9c0.3 0.1 0.6 0.1 0.7 0 0.3-0.1 0.3-0.4 0.3-0.7-0.6-3.1-1.6-7.8-1.6-7.8s3.6-3.1 5.8-5.4c0.1-0.1 0.3-0.4 0.1-0.7-0.1-0.3-0.3-0.4-0.6-0.4-3.1-0.3-7.9-0.9-7.9-0.9s-1.9-4.3-3.3-7.3c-0.1-0.3-0.4-0.4-0.7-0.4s-0.6 0.1-0.7 0.4c-0.8 3-2.7 7.3-2.7 7.3" fill="#EAC448"/><path d="m199.1 57.9s-4.8 0.6-7.9 0.9c-0.3 0-0.6 0.3-0.6 0.4-0.1 0.3 0 0.6 0.1 0.7 2.4 2.1 5.8 5.4 5.8 5.4s-0.9 4.6-1.6 7.8c0 0.3 0 0.6 0.3 0.7s0.6 0.1 0.7 0c2.8-1.6 6.9-3.9 6.9-3.9s4.2 2.4 6.9 3.9c0.3 0.1 0.6 0.1 0.7 0 0.3-0.1 0.3-0.4 0.3-0.7-0.6-3.1-1.6-7.8-1.6-7.8s3.6-3.1 5.8-5.4c0.1-0.1 0.3-0.4 0.1-0.7-0.1-0.3-0.3-0.4-0.6-0.4-3.1-0.3-7.9-0.9-7.9-0.9s-1.9-4.3-3.3-7.3c-0.1-0.3-0.4-0.4-0.7-0.4s-0.6 0.1-0.7 0.4c-0.7 3-2.7 7.3-2.7 7.3" fill="#EAC448"/><path d="m172 57.9s-4.8 0.6-7.9 0.9c-0.3 0-0.6 0.3-0.6 0.4-0.1 0.3 0 0.6 0.1 0.7 2.4 2.1 5.8 5.4 5.8 5.4s-0.9 4.6-1.6 7.8c0 0.3 0 0.6 0.3 0.7s0.6 0.1 0.7 0c2.8-1.6 6.9-3.9 6.9-3.9s4.2 2.4 6.9 3.9c0.3 0.1 0.6 0.1 0.7 0 0.3-0.1 0.3-0.4 0.3-0.7-0.6-3.1-1.6-7.8-1.6-7.8s3.6-3.1 5.8-5.4c0.1-0.1 0.3-0.4 0.1-0.7-0.1-0.3-0.3-0.4-0.6-0.4-3.1-0.3-7.9-0.9-7.9-0.9s-1.9-4.3-3.3-7.3c-0.1-0.3-0.4-0.4-0.7-0.4s-0.6 0.1-0.7 0.4c-0.8 3-2.7 7.3-2.7 7.3" fill="#EAC448"/><path d="m144.8 57.9s-4.8 0.6-7.9 0.9c-0.3 0-0.6 0.3-0.6 0.4-0.1 0.3 0 0.6 0.1 0.7 2.4 2.1 5.8 5.4 5.8 5.4s-0.9 4.6-1.6 7.8c0 0.3 0 0.6 0.3 0.7s0.6 0.1 0.7 0c2.8-1.6 6.9-3.9 6.9-3.9s4.2 2.4 6.9 3.9c0.3 0.1 0.6 0.1 0.7 0 0.3-0.1 0.3-0.4 0.3-0.7-0.6-3.1-1.6-7.8-1.6-7.8s3.6-3.1 5.8-5.4c0.1-0.1 0.3-0.4 0.1-0.7-0.1-0.3-0.3-0.4-0.6-0.4-3.1-0.3-7.9-0.9-7.9-0.9s-1.9-4.3-3.3-7.3c-0.1-0.3-0.4-0.4-0.7-0.4s-0.6 0.1-0.7 0.4c-0.8 3-2.7 7.3-2.7 7.3" fill="#EAC448"/></svg>