<?xml version="1.0" encoding="utf-8"?>
<!-- Generator: Adobe Illustrator 19.1.0, SVG Export Plug-In . SVG Version: 6.00 Build 0)  -->
<svg version="1.1" id="Capa_1" xmlns="http://www.w3.org/2000/svg" xmlns:xlink="http://www.w3.org/1999/xlink" x="0px" y="0px"
	 width="25px" height="78.6px" viewBox="-387 361.4 25 78.6" style="enable-background:new -387 361.4 25 78.6;"
	 xml:space="preserve">
<style type="text/css">
	.st0{fill:#52C65C;}
	.st1{fill:#FA626F;}
	.st2{fill:#444444;}
</style>
<path class="st0" d="M-379.9,383.3c-3.9,0-7.1,3.2-7.1,7.1s3.2,7.1,7.1,7.1s7.1-3.2,7.1-7.1S-375.9,383.3-379.9,383.3z
	 M-379.9,396.4c-3.3,0-6-2.7-6-6s2.7-6,6-6c3.3,0,6,2.7,6,6S-376.6,396.4-379.9,396.4z"/>
<path class="st0" d="M-376.7,389.8h-2.6v-2.6c0-0.3-0.3-0.6-0.6-0.6c-0.3,0-0.6,0.3-0.6,0.6v2.6h-2.6c-0.3,0-0.6,0.3-0.6,0.6
	s0.3,0.6,0.6,0.6h2.6v2.6c0,0.3,0.3,0.6,0.6,0.6c0.3,0,0.6-0.3,0.6-0.6V391h2.6c0.3,0,0.6-0.3,0.6-0.6S-376.3,389.8-376.7,389.8z"/>
<path class="st1" d="M-364.1,415.3v-4.5c0.1-0.8,0-1.6-0.3-2.4c-0.8-1.9-2.5-3.1-4.6-3.1c-0.6,0-1.2,0.1-1.8,0.3
	c-1.8,0.7-3,2.5-3.1,4.4v5.2c-0.2,0.2-0.4,0.4-0.6,0.5c-0.6-0.8-1.4-1.4-2.3-1.8c0.6-0.5,1.1-1.1,1.4-1.9c0.1-0.2,0.1-0.4,0.2-0.6
	v-0.2c0-0.1,0-0.2,0.1-0.4c0-0.2,0-0.3,0.1-0.5v-0.4v-0.6V409c-0.1-0.3-0.1-0.5-0.2-0.8v-0.1c-0.6-1.4-1.7-2.5-3.1-2.9
	c-0.7,0.2-1.2,0.1-1.7,0.1c-0.3,0-0.6,0-0.9,0.1c-0.3,0.1-0.6,0.1-0.9,0.3c-0.3,0.1-0.5,0.3-0.8,0.4c-0.1,0-0.1,0.1-0.2,0.2
	c-0.2,0.1-0.4,0.2-0.5,0.3l-0.2,0.2c-0.2,0.2-0.3,0.4-0.5,0.6l-0.1,0.1c-0.3,0.5-0.6,1-0.7,1.6v0.2c0,0.2-0.1,0.4-0.1,0.7v0.6
	c0,0.5,0.1,1,0.3,1.4c0.3,0.8,0.9,1.5,1.5,2c-2.3,1.2-3.9,3.7-3.9,6.4c0,0.3,0.2,0.5,0.5,0.5h24c0.3,0,0.5-0.2,0.5-0.5
	C-362,418.4-362.8,416.6-364.1,415.3z M-366,414c0.3-0.3,0.6-0.6,0.9-1v1.5c0,0-0.1,0-0.1-0.1C-365.5,414.3-365.7,414.1-366,414z
	 M-373,413c0.3,0.5,0.6,0.8,0.9,1c-0.3,0.2-0.6,0.3-0.9,0.5V413z M-367.6,413.8c-0.2,0.1-0.5,0.1-0.7,0.2h-1.1c-0.2,0-0.3,0-0.5-0.1
	c-0.1,0-0.2,0-0.3-0.1c-0.2-0.1-0.4-0.1-0.6-0.2c-0.3-0.1-0.6-0.3-0.8-0.5c1.6-0.3,3.2-1.1,4.3-2.3c0.2,0.7,0.6,1.3,1.1,1.8
	C-366.5,413.1-367,413.5-367.6,413.8z M-373,410.2c0-1.6,1-3,2.5-3.6c0.5-0.2,1-0.3,1.4-0.3c1.6,0,3,1,3.6,2.5
	c0.2,0.6,0.3,1.2,0.2,2v1.4c-0.8-0.6-1.2-1.5-1.2-2.5c0-0.2-0.1-0.4-0.4-0.5c-0.2-0.1-0.4,0-0.6,0.2c-1.2,1.8-3.1,2.9-5.3,3
	c-0.2,0-0.3,0.1-0.4,0.3v-2.3C-373,410.3-373,410.3-373,410.2z M-383.8,409.4c0.1-0.3,0.1-0.5,0.2-0.7v-0.1c0.2-0.4,0.5-0.8,0.8-1.2
	l0.1-0.1c0.1-0.1,0.3-0.2,0.4-0.3c0.1,0,0.1-0.1,0.2-0.1l0.6-0.3c0.5-0.2,1-0.3,1.5-0.3c1.6,0,3.1,1,3.6,2.5
	c0.1,0.2,0.1,0.4,0.2,0.6v0.2c0,0.2,0.1,0.4,0.1,0.6v0.4c-0.8-0.5-1.3-1.4-1.3-2.3c0-0.2-0.2-0.4-0.4-0.5h-0.1
	c-0.2,0-0.3,0.1-0.4,0.2c-0.9,1.4-2.5,2.3-4.2,2.3c-0.5,0-0.9-0.1-1.4-0.2C-383.9,409.9-383.9,409.7-383.8,409.4z M-383.6,411.7
	c-0.1-0.2-0.1-0.3-0.1-0.5c0.4,0.1,0.8,0.1,1.2,0.1c1.7,0,3.2-0.7,4.4-1.8c0.3,0.9,1,1.7,1.9,2.2v0.1c-0.4,1-1.2,1.7-2.1,2.1
	c-0.3,0.1-0.5,0.2-0.8,0.2h-0.8h-0.1c-0.3,0-0.5-0.1-0.8-0.1c-0.3-0.1-0.5-0.2-0.8-0.3C-382.6,413.3-383.3,412.6-383.6,411.7z
	 M-386,419.9c0.2-2.3,1.7-4.4,3.9-5.2l0.9,0.3h0.1c0.3,0.1,0.6,0.1,0.9,0.1h0.1c0.3,0,0.5,0,0.8-0.1h0.1c0.3-0.1,0.6-0.1,0.9-0.3
	c0.1,0,0.2-0.1,0.2-0.1c2.2,0.8,3.8,2.8,4,5.2L-386,419.9z M-372.9,419.9c0-1.2-0.3-2.2-1-3.2c0.7-0.8,1.9-1.6,3-2h0.1
	c0.3,0.1,0.5,0.2,0.8,0.3c0.3,0.1,0.7,0.1,1,0.1s0.5,0,0.8-0.1h0.1c0.3-0.1,0.6-0.1,0.9-0.3h0.1c0.2,0.1,0.5,0.2,0.7,0.3
	c0.1,0.1,0.2,0.1,0.3,0.2c0.1,0,0.2,0.1,0.3,0.2l0.9,0.6c1.1,1,1.8,2.4,1.9,4C-363,420-372.9,419.9-372.9,419.9z M-372.6,364h-3.1
	v-0.2c0-1.4-1-2.5-2.3-2.5h-2c-1.3,0.1-2.3,1.2-2.3,2.5v0.1h-3.1c-1,0.5-1.6,1.2-1.6,2.1v5.2c0,0.2,0.2,0.4,0.4,0.4h0.6v3.3
	c0,0.2,0.2,0.4,0.4,0.4h13.1c0.2,0,0.4-0.2,0.4-0.4v-3.3h0.7c0.2,0,0.4-0.2,0.4-0.4V366C-371,365.1-371.6,364.4-372.6,364z
	 M-380,362.1h2c0.8,0,1.5,0.8,1.5,1.7v0.1h-5v-0.1C-381.5,362.9-380.8,362.1-380,362.1z M-377.2,369.2h-3.6c-0.3,0-0.4,0.2-0.4,0.4
	v1.2h-5V366c0-0.5,0.4-1,1-1.2h12.4c0.6,0.3,1,0.7,1,1.2v4.8h-5v-1.2C-376.8,369.4-376.9,369.2-377.2,369.2z M-380.4,371.3V370h2.9
	v1.3C-377.5,371.3-380.4,371.3-380.4,371.3z M-385.2,371.6h3.9v0.1c0,0.2,0.2,0.4,0.4,0.4h3.7c0.2,0,0.4-0.2,0.4-0.4v-0.1h3.9v2.9
	h-12.3C-385.2,374.5-385.2,371.6-385.2,371.6z"/>
<g>
	<path class="st2" d="M-370,440.1h-17v-10.9h17C-370,429.2-370,440.1-370,440.1z M-386.1,439.2h15.2v-9.1h-15.2V439.2z"/>
	<path class="st2" d="M-378.5,436.7c-1.1,0-2.1-0.9-2.1-2.1c0-1.1,0.9-2.1,2.1-2.1s2.1,0.9,2.1,2.1
		C-376.4,435.8-377.4,436.7-378.5,436.7z M-378.5,433.4c-0.7,0-1.3,0.6-1.3,1.3c0,0.7,0.6,1.3,1.3,1.3s1.3-0.6,1.3-1.3
		C-377.2,434-377.8,433.4-378.5,433.4z M-374.4,436.8c-0.4,0-0.7-0.3-0.7-0.7s0.3-0.7,0.7-0.7s0.7,0.3,0.7,0.7
		S-374,436.8-374.4,436.8z M-374.4,435.8c-0.2,0-0.3,0.1-0.3,0.3c0,0.2,0.1,0.3,0.3,0.3c0.2,0,0.3-0.1,0.3-0.3
		C-374.1,435.9-374.3,435.8-374.4,435.8z M-382.6,433.9c-0.4,0-0.7-0.3-0.7-0.7c0-0.4,0.3-0.7,0.7-0.7s0.7,0.3,0.7,0.7
		C-381.9,433.6-382.2,433.9-382.6,433.9z M-382.6,432.9c-0.2,0-0.3,0.1-0.3,0.3c0,0.2,0.1,0.3,0.3,0.3c0.2,0,0.3-0.1,0.3-0.3
		C-382.3,433.1-382.4,432.9-382.6,432.9z"/>
	<path class="st2" d="M-373.7,438.4h-9.6c-0.9,0-1.6-0.7-1.6-1.6v-4.3c0-0.9,0.7-1.6,1.6-1.6h9.6c0.9,0,1.6,0.7,1.6,1.6v4.3
		C-372.1,437.7-372.8,438.4-373.7,438.4z M-383.3,431.7c-0.5,0-0.8,0.4-0.8,0.8v4.3c0,0.5,0.4,0.8,0.8,0.8h9.6
		c0.5,0,0.8-0.4,0.8-0.8v-4.3c0-0.5-0.4-0.8-0.8-0.8C-373.7,431.7-383.3,431.7-383.3,431.7z"/>
</g>
</svg>
