<?xml version="1.0" encoding="utf-8"?>
<!-- Generator: Adobe Illustrator 19.2.1, SVG Export Plug-In . SVG Version: 6.00 Build 0)  -->
<svg version="1.1" id="Capa_1" xmlns="http://www.w3.org/2000/svg" xmlns:xlink="http://www.w3.org/1999/xlink" x="0px" y="0px"
	 width="26px" height="957.9px" viewBox="0 0 26 957.9" enable-background="new 0 0 26 957.9" xml:space="preserve">
<title>sprite_website-settings</title>
<g>
	<g>
		<path fill="#FFFFFF" d="M23.2,675.3h-1.7c-0.2,0-0.3-0.1-0.4-0.2l-1.7-2.1c-0.1-0.1-0.2-0.2-0.4-0.2h-6.2c-0.1,0-0.3,0.1-0.4,0.2
			l-1.9,2.1c0,0.1-0.2,0.2-0.3,0.2H8.5v-0.1c0-1.1-0.9-2-2-2s-2,0.9-2,2v0.2c-1.1,0-2.5,1-2.5,2.1v9.4c0.5,1.1,1.4,1.8,2.4,1.8h18.8
			c1.1,0,2-0.9,2.1-2v-9.2C25.2,676.3,24.3,675.3,23.2,675.3L23.2,675.3z M5.4,674.6c0-0.3,0.3-0.6,0.6-0.6h1c0.3,0,0.6,0.3,0.6,0.6
			v0.6H5.4V674.6z M24.3,686.6c0,0.6-0.5,1.1-1.1,1.1H4.4c-0.6,0-1.1-0.4-1.5-1.2v-9.1c0-0.5,0.9-1.2,1.6-1.2h6.2
			c0.1,0,0.3-0.1,0.4-0.2l1.8-2.1c0.1-0.1,0.2-0.2,0.4-0.2h5.3c0.1,0,0.3,0.1,0.4,0.2l1.8,2.1c0,0.1,0.1,0.2,0.3,0.2h2.1
			c0.6,0,1.1,0.6,1.2,1.2L24.3,686.6L24.3,686.6z"/>
		<path fill="#FFFFFF" d="M6.6,677c-1.2,0-2.1,1-2.1,2.1s1,2.1,2.1,2.1s2.1-1,2.1-2.1S7.7,677,6.6,677z M6.6,680.3
			c-0.6,0-1.2-0.5-1.2-1.2s0.5-1.2,1.2-1.2s1.2,0.5,1.2,1.2S7.2,680.3,6.6,680.3z M17.4,678.5c-2.5-0.8-4.8,1.5-4,4
			c0.3,0.9,1,1.6,1.9,1.9c2.5,0.8,4.8-1.5,4-4C19,679.5,18.3,678.8,17.4,678.5z M16.4,683.6c-1.2,0-2.1-1-2.1-2.1
			c0-1.2,1-2.1,2.1-2.1c1.2,0,2.1,1,2.1,2.1S17.6,683.6,16.4,683.6z"/>
		<path fill="#FFFFFF" d="M16.4,676.2c-3.1,0-5.5,2.6-5.2,5.8c0.2,2.4,2.2,4.3,4.6,4.6c3.2,0.3,5.8-2.1,5.8-5.2
			C21.6,678.6,19.3,676.2,16.4,676.2L16.4,676.2z M16.4,685.6c-2.8,0-5-2.8-3.9-5.7c0.4-1.1,1.3-2,2.4-2.4c2.9-1.1,5.7,1.1,5.7,3.9
			C20.6,683.8,18.7,685.6,16.4,685.6z M18.6,192.7c-1.3,0-2.4,0.6-3,1.6l-6.3-2.8c0.2-0.4,0.3-0.9,0.3-1.5c0-0.5-0.1-1-0.3-1.4
			l6.1-3.1c0.6,1.1,1.8,1.9,3.2,1.9c2,0,3.7-1.6,3.7-3.7c0-2-1.6-3.7-3.7-3.7s-3.7,1.6-3.7,3.7c0,0.4,0.1,0.8,0.2,1.2L9,188
			c-0.7-1-1.8-1.6-3.1-1.6c-2,0-3.7,1.6-3.7,3.7c0,2,1.6,3.7,3.7,3.7c1.3,0,2.4-0.6,3-1.6l6.3,2.8c-0.2,0.4-0.3,0.9-0.3,1.5
			c0,2,1.6,3.7,3.7,3.7s3.7-1.6,3.7-3.7C22.3,194.3,20.7,192.7,18.6,192.7 M15.5,19.1c-3.7,0-6.7-3-6.7-6.7s3-6.7,6.7-6.7l0,0
			c3.7,0,6.7,3,6.7,6.7S19.2,19.1,15.5,19.1 M15.5,7.8c-2.5,0-4.6,2.1-4.6,4.6S13,17,15.5,17s4.6-2.1,4.6-4.6
			C20.1,9.8,18,7.8,15.5,7.8"/>
		<path fill="#FFFFFF" d="M9.1,19.1c-3.7,0-6.7-3-6.7-6.7s3-6.7,6.7-6.7l0,0c3.7,0,6.7,3,6.7,6.7S12.8,19.1,9.1,19.1 M9.1,7.8
			c-2.5,0-4.6,2.1-4.6,4.6S6.6,17,9.1,17s4.6-2.1,4.6-4.6C13.7,9.8,11.6,7.8,9.1,7.8 M15,2.4C15,1.6,14.3,1,13.6,1
			c-0.5,0-1,0.3-1.3,0.8C12.1,1.3,11.6,1,11.1,1c-0.8,0-1.5,0.6-1.5,1.4c0,0.4,0.2,0.7,0.4,1l2.3,2.3l2.3-2.3
			C14.8,3.1,15,2.8,15,2.4 M12.3,240c-5.5,0-10,4.5-10,10s4.5,10,10,10s10-4.5,10-10S17.8,240,12.3,240 M12.3,256c-0.6,0-1-0.5-1-1
			s0.5-1,1-1s1,0.5,1,1S12.9,256,12.3,256 M12.7,250.8v2.1c0,0.2-0.2,0.4-0.4,0.4s-0.4-0.2-0.4-0.4v-2.5c0-0.2,0.2-0.4,0.4-0.4
			c1.1,0,2.1-0.9,2.1-2.1c0-1.1-0.9-2.1-2.1-2.1s-2.1,0.9-2.1,2.1c0,0.2-0.2,0.4-0.4,0.4s-0.4-0.2-0.4-0.4c0-1.6,1.3-2.9,2.9-2.9
			s2.9,1.3,2.9,2.9C15.2,249.4,14.1,250.6,12.7,250.8 M18.8,325.2v1.3c0,0.4-0.1,0.7-0.3,0.9c-0.2,0.3-0.5,0.4-0.9,0.4h-7.1l3,3
			c0.3,0.2,0.4,0.5,0.4,0.9s-0.1,0.7-0.4,0.9l-0.8,0.8c-0.2,0.2-0.6,0.4-0.9,0.4c-0.4,0-0.7-0.1-0.9-0.4l-6.6-6.6
			c-0.2-0.2-0.4-0.6-0.4-0.9c0-0.4,0.1-0.7,0.4-0.9l6.6-6.6c0.3-0.3,0.6-0.4,0.9-0.4c0.4,0,0.7,0.1,0.9,0.4l0.8,0.7
			c0.3,0.3,0.4,0.6,0.4,0.9c0,0.4-0.1,0.7-0.4,0.9l-3,3h7.1c0.4,0,0.6,0.1,0.9,0.4C18.7,324.5,18.8,324.8,18.8,325.2L18.8,325.2z
			 M11.8,70.5c1.6,0,2.9,1.3,2.9,2.9s-1.3,2.9-2.9,2.9S8.9,75,8.9,73.4S10.2,70.5,11.8,70.5z M11.8,69.5c-2.2,0-3.9,1.8-3.9,3.9
			c0,2.2,1.8,3.9,3.9,3.9c2.2,0,3.9-1.8,3.9-3.9S14,69.5,11.8,69.5z"/>
		<path fill="#FFFFFF" d="M13.5,64.1v2l0.7,0.2c1.1,0.3,1.8,0.8,2.6,1.6l0.5,0.5l0.6-0.4l1.2-0.7l1.6,2.8l-1.2,0.7l-0.6,0.4l0.1,0.7
			c0.1,0.5,0.2,1.1,0.2,1.6s-0.1,1.1-0.2,1.6l-0.2,0.7l0.6,0.4l1.2,0.7L19,79.7L17.8,79l-0.6-0.4l-0.5,0.5c-0.8,0.8-1.5,1.3-2.6,1.6
			l-0.7,0.2v2.2h-3.3v-2.2l-0.7-0.2c-1-0.3-1.8-0.8-2.7-1.6l-0.5-0.5L5.6,79l-1.3,0.7l-1.6-2.8l1.2-0.7l0.6-0.4l-0.2-0.7
			c-0.1-0.5-0.2-1-0.2-1.6c0-0.5,0.1-1,0.2-1.6l0.1-0.7l-0.6-0.4l-1.2-0.7l1.6-2.8L5.4,68L6,68.4l0.5-0.5c0.9-0.8,1.7-1.3,2.7-1.6
			l0.7-0.2v-2L13.5,64.1L13.5,64.1z M14.5,63.1H9.2v2.2c-1.3,0.4-2.2,1-3.1,1.8L4,65.9l-2.6,4.5l2.1,1.2c-0.1,0.6-0.2,1.2-0.2,1.8
			s0.1,1.2,0.2,1.8l-2.1,1.2L4,80.9l2.1-1.2c0.9,0.8,1.8,1.4,3.1,1.8v2.4h5.3v-2.4c1.3-0.4,2.2-1,3-1.8l2,1.2l2.6-4.5L20,75.2
			c0.1-0.6,0.2-1.2,0.2-1.8s-0.1-1.2-0.2-1.8l2.1-1.2l-2.6-4.5l-2,1.2c-0.9-0.8-1.7-1.4-3-1.8C14.5,65.3,14.5,63.1,14.5,63.1z
			 M11.6,120c3,0,6,1.3,8.2,3.5c2.1,2.1,3.4,4.9,3.4,7.9c0.1,3-1,5.7-3,7.8c-0.9,0.9-2.1,1.4-3.5,1.4c-1.3,0-2.6-0.5-3.5-1.4
			l-4.6-4.6c-0.5-0.5-1.1-1-1.8-1c-0.5,0-0.9,0.2-1.3,0.6c-0.8,0.8-0.9,2.2,0.4,3.5c0.4,0.4,0.4,1.1,0,1.5c-0.2,0.2-0.5,0.3-0.7,0.3
			s-0.5-0.1-0.7-0.3c-2.1-2.1-3.3-5-3.4-8.1s1-5.9,3-8C6.2,121,8.8,120,11.6,120z M11.6,119c-2.9,0-5.9,1.1-8.1,3.3
			c-4.7,4.7-4.3,12.8,0.4,17.5c0.4,0.4,0.9,0.6,1.5,0.6s1-0.2,1.5-0.6c0.8-0.8,0.8-2.1,0-2.9c-0.8-0.8-0.8-1.7-0.4-2.1
			c0.2-0.2,0.3-0.3,0.5-0.3c0.3,0,0.6,0.2,1.1,0.7l4.6,4.6c1.1,1.1,2.6,1.7,4.2,1.7c1.5,0,3-0.6,4.2-1.7c4.7-4.7,4.3-12.3-0.4-17
			C18.1,120.3,14.8,119,11.6,119L11.6,119z"/>
		<path fill="#FFFFFF" d="M16.7,125.2c0.2,0,0.3,0.1,0.5,0.2c0.1,0.1,0.2,0.3,0.2,0.5s-0.1,0.3-0.2,0.5c-0.1,0.1-0.3,0.2-0.5,0.2
			s-0.3-0.1-0.5-0.2c-0.1-0.1-0.2-0.3-0.2-0.5s0.1-0.3,0.2-0.5S16.5,125.2,16.7,125.2z M16.7,124.2c-0.4,0-0.9,0.2-1.2,0.5
			c-0.6,0.6-0.6,1.7,0,2.4c0.3,0.3,0.8,0.5,1.2,0.5s0.9-0.2,1.2-0.5c0.6-0.6,0.6-1.7,0-2.4C17.5,124.3,17.1,124.2,16.7,124.2z
			 M19.6,130.8c0,0,0.1,0,0.2,0.1s0.1,0.1,0.1,0.2c0,0,0,0.1-0.1,0.2c-0.1,0.1-0.1,0.1-0.2,0.1c0,0-0.1,0-0.2-0.1s-0.1-0.1-0.1-0.2
			c0,0,0-0.1,0.1-0.2C19.4,130.8,19.5,130.8,19.6,130.8z M19.6,129.8c-0.3,0-0.6,0.1-0.9,0.4c-0.5,0.5-0.5,1.3,0,1.8
			c0.2,0.2,0.6,0.4,0.9,0.4s0.6-0.1,0.9-0.4c0.5-0.5,0.5-1.3,0-1.8C20.2,129.9,19.9,129.8,19.6,129.8z M16.7,135.1
			c0.3,0,0.6,0.1,0.8,0.3c0.2,0.2,0.3,0.5,0.3,0.8s-0.1,0.6-0.3,0.8c-0.2,0.2-0.5,0.3-0.8,0.3s-0.6-0.1-0.8-0.3s-0.3-0.5-0.3-0.8
			s0.1-0.6,0.3-0.8C16.1,135.3,16.4,135.1,16.7,135.1z M16.7,134.1c-0.5,0-1.1,0.2-1.5,0.6c-0.8,0.8-0.8,2.1,0,2.9
			c0.4,0.4,0.9,0.6,1.5,0.6c0.5,0,1.1-0.2,1.5-0.6c0.8-0.8,0.8-2.1,0-2.9C17.7,134.3,17.2,134.1,16.7,134.1z M10.1,124.1
			c0.2,0,0.3,0.1,0.5,0.2c0.1,0.1,0.2,0.3,0.2,0.5s-0.1,0.3-0.2,0.5s-0.3,0.2-0.5,0.2s-0.3-0.1-0.5-0.2c-0.1-0.1-0.2-0.3-0.2-0.5
			s0.1-0.3,0.2-0.5C9.8,124.1,10,124.1,10.1,124.1z M10.1,123.1c-0.4,0-0.9,0.2-1.2,0.5c-0.6,0.6-0.6,1.7,0,2.4
			c0.3,0.3,0.8,0.5,1.2,0.5s0.9-0.2,1.2-0.5c0.6-0.6,0.6-1.7,0-2.4C11,123.2,10.6,123.1,10.1,123.1z M19.5,381.6l-3.1-3.1
			c-0.2-0.2-0.5-0.2-0.7,0l-9.4,9.4c-0.1,0.1-0.1,0.1-0.1,0.2l-1.4,4.4c-0.1,0.2,0,0.4,0.1,0.5s0.2,0.2,0.4,0.2h0.1l4.5-1.3
			c0.1,0,0.1-0.1,0.1-0.1l9.4-9.4C19.7,382.1,19.7,381.8,19.5,381.6L19.5,381.6z M9.8,390.6l-2.4-2.4l6.2-6.2l2.4,2.4L9.8,390.6z
			 M6.9,389.1l2,2l-2.8,0.8L6.9,389.1z M16.7,383.7l-2.4-2.4l1.8-1.8l2.4,2.4L16.7,383.7z"/>
		<g>
			<path fill="#FFFFFF" d="M8,449.1c-0.7,0-1.4-0.3-1.9-0.8l-0.7-0.7c-1.1-1.1-1.1-2.9,0-4L9,440c0.7-0.7,1.6-1.1,2.4-1.1
				c0.9,0.1,1.7,0.6,2.3,1.4c0.1,0.1,0.1,0.3-0.1,0.5c-0.1,0.1-0.3,0.1-0.5-0.1c-0.5-0.7-1.2-1.1-1.8-1.2c-0.6,0-1.3,0.2-1.9,0.9
				L5.8,444c-0.8,0.8-0.8,2.3,0,3.1l0.6,0.7c0.4,0.4,1,0.6,1.6,0.6c0.7,0,1.3-0.4,1.9-0.9l2.6-2.6c0.1-0.1,0.3-0.1,0.5,0
				c0.1,0.1,0.1,0.3,0,0.5l-2.6,2.6C9.7,448.7,8.9,449.1,8,449.1L8,449.1L8,449.1z"/>
			<path fill="#FFFFFF" d="M13.4,444.2h-0.3c-0.8-0.1-1.4-0.5-1.8-1c-0.1-0.1-0.1-0.4,0.1-0.5s0.4-0.1,0.5,0.1
				c0.3,0.4,0.8,0.7,1.3,0.8s1-0.1,1.4-0.5l3.9-3.9c0.4-0.4,0.6-0.9,0.6-1.4s-0.2-1-0.6-1.4l-0.7-0.6c-0.4-0.4-1-0.7-1.6-0.8
				c-0.6-0.1-1.1,0.1-1.5,0.5l-2.9,2.9c-0.1,0.1-0.3,0.1-0.5,0c-0.1-0.1-0.1-0.3,0-0.5l2.9-2.9c0.5-0.5,1.3-0.8,2.1-0.7
				c0.7,0.1,1.4,0.4,2,1l0.7,0.6c0.5,0.5,0.8,1.2,0.8,1.9s-0.3,1.3-0.8,1.9l-3.9,3.9C14.6,443.9,14,444.2,13.4,444.2z"/>
		</g>
		<g>
			<path fill="#FFFFFF" d="M11.9,492v2.4c0,0.2,0.2,0.4,0.4,0.4s0.4-0.2,0.4-0.4V492c0.2-0.1,0.4-0.4,0.4-0.6c0-0.4-0.3-0.7-0.7-0.7
				s-0.7,0.3-0.7,0.7C11.5,491.7,11.6,491.9,11.9,492L11.9,492z"/>
			<path fill="#FFFFFF" d="M17.6,486.4v-2.9c0-2.8-2.2-5.7-5.4-5.7s-5.4,3-5.4,5.7v2.9H4.7v12.9h15v-12.9H17.6z M7.6,483.6
				c0-2.4,1.9-5,4.6-5c2.8,0,4.6,2.6,4.6,5v2.9H7.5L7.6,483.6L7.6,483.6L7.6,483.6z M19,498.6H5.4v-11.4H19V498.6z"/>
		</g>
		<g>
			<path fill="#FFFFFF" d="M12.2,552.1c-6.6,0-12-5.4-12-12s5.4-12,12-12s12,5.4,12,12C24.2,546.7,18.8,552.1,12.2,552.1z
				 M12.2,529.1c-6.1,0-11.1,5-11.1,11.1s5,11.1,11.1,11.1s11.1-5,11.1-11.1S18.3,529.1,12.2,529.1z"/>
			<path fill="#FFFFFF" d="M12.2,546.4c-0.3,0-0.5-0.2-0.5-0.5v-11.5c0-0.3,0.2-0.5,0.5-0.5s0.5,0.2,0.5,0.5v11.5
				C12.7,546.2,12.5,546.4,12.2,546.4z"/>
			<path fill="#FFFFFF" d="M18,540.6H6.5c-0.3,0-0.5-0.2-0.5-0.5s0.2-0.5,0.5-0.5H18c0.3,0,0.5,0.2,0.5,0.5S18.2,540.6,18,540.6z"/>
		</g>
		<g>
			<path fill="#FFFFFF" d="M22.2,588.1h-20c-1.1,0-2-0.9-2-2v-12c0-1.1,0.9-2,2-2h20c1.1,0,2,0.9,2,2v12
				C24.2,587.2,23.3,588.1,22.2,588.1z M2.2,572.9c-0.6,0-1.2,0.6-1.2,1.2v12c0,0.6,0.6,1.2,1.2,1.2h20c0.6,0,1.2-0.6,1.2-1.2v-12
				c0-0.6-0.6-1.2-1.2-1.2H2.2z"/>
			<path fill="#FFFFFF" d="M12.2,582.5c-0.1,0-0.2,0-0.2-0.1l-8.4-5.6c-0.2-0.1-0.2-0.4-0.1-0.6c0.1-0.2,0.4-0.2,0.6-0.1l8.2,5.5
				l8.2-5.5c0.2-0.1,0.4-0.1,0.6,0.1c0.1,0.2,0.1,0.4-0.1,0.6l-8.4,5.6C12.4,582.5,12.3,582.5,12.2,582.5L12.2,582.5z M3.8,584.5
				c-0.1,0-0.3-0.1-0.3-0.2c-0.1-0.2-0.1-0.4,0.1-0.6l3.6-2.4c0.2-0.1,0.4-0.1,0.6,0.1c0.1,0.2,0.1,0.4-0.1,0.6l-3.6,2.4
				C4,584.5,3.9,584.5,3.8,584.5L3.8,584.5z M20.6,584.5c-0.1,0-0.2,0-0.2-0.1l-3.6-2.4c-0.2-0.1-0.2-0.4-0.1-0.6s0.4-0.2,0.6-0.1
				l3.6,2.4c0.2,0.1,0.2,0.4,0.1,0.6S20.7,584.5,20.6,584.5L20.6,584.5z"/>
		</g>
		<g>
			<path fill="#FFFFFF" d="M0.8,640.7c-0.1,0-0.2,0-0.3-0.1s-0.1-0.2-0.1-0.4l1.6-6.4c0-0.1,0.1-0.1,0.1-0.2L17.7,618
				c0.9-0.9,2.4-1.4,3.4-0.4l2.4,2.4c1,1,0.5,2.4-0.4,3.4L7.5,639c-0.1,0.1-0.1,0.1-0.2,0.1L0.8,640.7L0.8,640.7z M2.7,634.1
				l-1.4,5.7l5.7-1.4l15.6-15.6c0.7-0.7,1-1.6,0.4-2.2l-2.4-2.4c-0.6-0.6-1.6-0.3-2.2,0.4L2.7,634.1z"/>
			<path fill="#FFFFFF" d="M22.2,623.7l-4.8-4.8l0.6-0.6l4.8,4.8L22.2,623.7z M21,624.9l-4.8-4.8l0.6-0.6l4.8,4.8L21,624.9z M7,639
				l-4.8-4.8l0.6-0.6l4.8,4.8L7,639z"/>
		</g>
	</g>
	<path fill="#FFFFFF" d="M21.1,741.2l-3.4-3.4c-0.2-0.2-0.4-0.2-0.6,0l-9.3,9.3l-0.1,0.1l-2.1,5.5c-0.1,0.2,0,0.3,0.1,0.5
		c0.1,0.1,0.2,0.1,0.3,0.1h0.2l5.5-2.1c0.1,0,0.1-0.1,0.1-0.1l9.3-9.3C21.3,741.7,21.3,741.4,21.1,741.2z M8.7,747.5l7-7l2.8,2.8
		l-7,7L8.7,747.5z M8.3,748.2l2.5,2.5l-4,1.5L8.3,748.2z M19.1,742.6l-2.8-2.8l1.1-1.1l2.8,2.8L19.1,742.6z"/>
	<path fill="#FFFFFF" d="M12.8,758.9c-7,0-12.7-5.7-12.7-12.7s5.7-12.7,12.7-12.7s12.7,5.7,12.7,12.7S19.8,758.9,12.8,758.9z
		 M12.8,734.4c-6.5,0-11.8,5.3-11.8,11.8S6.3,758,12.8,758s11.8-5.3,11.8-11.8S19.3,734.4,12.8,734.4z M21.1,816.4
		c-1.6,0-3.1,0.8-3.9,2.1l-8.1-3.6c0.3-0.6,0.4-1.2,0.4-1.9s-0.1-1.3-0.4-1.9l7.9-4c0.8,1.4,2.3,2.4,4.1,2.4c2.6,0,4.7-2.1,4.7-4.7
		s-2.1-4.7-4.7-4.7s-4.7,2.1-4.7,4.7c0,0.5,0.1,1.1,0.3,1.5l-7.9,4c-0.8-1.3-2.3-2.1-3.9-2.1c-2.6,0-4.7,2.1-4.7,4.7
		s2.1,4.7,4.7,4.7c1.6,0,3.1-0.8,3.9-2.1l8.1,3.6c-0.3,0.6-0.4,1.2-0.4,1.9c0,2.6,2.1,4.7,4.7,4.7s4.7-2.1,4.7-4.7
		S23.7,816.4,21.1,816.4L21.1,816.4z M21.1,800.9c2.1,0,3.9,1.7,3.9,3.9s-1.7,3.9-3.9,3.9s-3.9-1.7-3.9-3.9S19,800.9,21.1,800.9z
		 M4.8,816.8c-2.1,0-3.9-1.7-3.9-3.9c0-2.1,1.7-3.9,3.9-3.9s3.9,1.7,3.9,3.9S7,816.8,4.8,816.8z M21.1,824.9c-2.1,0-3.9-1.7-3.9-3.9
		c0-2.1,1.7-3.9,3.9-3.9s3.9,1.7,3.9,3.9S23.3,824.9,21.1,824.9z"/>
</g>
<g>
	<circle fill="none" stroke="#FFFFFF" stroke-miterlimit="10" cx="13" cy="873.4" r="5.4"/>
	<g>
		<path fill="none" stroke="#FFFFFF" stroke-linejoin="round" stroke-miterlimit="10" d="M18.2,878.8h-0.5c-1.2,1.2-2.9,1.9-4.7,1.9
			s-3.5-0.7-4.7-1.9H7.8c-5,0-4.7,8-4.7,8c0,2.1,1.7,3.7,3.7,3.7H13l0,0h6.2c2.1,0,3.7-1.7,3.7-3.7
			C22.9,886.8,23.2,878.8,18.2,878.8z"/>
	</g>
</g>
<g>
	<polyline fill="none" stroke="#FFFFFF" stroke-linejoin="round" stroke-miterlimit="10" points="5,940.2 0.8,947.3 5,946.4 
		6.3,950.2 10.2,944.6 	"/>
	<polyline fill="none" stroke="#FFFFFF" stroke-linejoin="round" stroke-miterlimit="10" points="21.5,940.7 25.2,946.8 21,946.4 
		19.7,950.2 16.4,944.7 	"/>
	<circle fill="none" stroke="#FFFFFF" stroke-linejoin="round" stroke-miterlimit="10" cx="13.4" cy="935.5" r="9.7"/>
	<polygon fill="none" stroke="#FFFFFF" stroke-linejoin="round" stroke-miterlimit="10" points="13.4,930.8 15.1,934.2 18.1,934.2 
		15.5,936.3 16.8,940.1 13.4,938 10.1,940.1 11.3,936.3 8.8,934.2 11.7,934.2 	"/>
</g>
</svg>
