<svg xmlns="http://www.w3.org/2000/svg" width="16" height="333.9" viewBox="0 0 16 333.9"><path fill="#FF5169" d="M15 10H1c-.6 0-1-.4-1-1V1.1c0-.6.4-1 1-1h14c.6 0 1 .4 1 1V9c0 .6-.5 1-1 1z"/><path fill="#FFD200" d="M0 1.9h15.9V8H0z"/><path fill="#FFBF00" d="M15 202.4H1c-.6 0-1-.4-1-1v-7.9c0-.6.4-1 1-1h14c.6 0 1 .4 1 1v7.9c0 .6-.5 1-1 1z"/><path fill="#0054B9" d="M15 202.4H1c-.6 0-1-.4-1-1v-4h16v4c0 .6-.5 1-1 1z"/><path fill="#FF5169" d="M0 202.4v-2.5h16v2.5"/><path fill="#00B048" d="M8.3 30H1.1c-.5 0-1-.5-1-1v-8c0-.6.4-1 1-1h7.3v10z"/><path fill="#FF5169" d="M15 30H8.5V20H15c.5 0 1 .4 1 1v8c0 .5-.5 1-1 1z"/><path fill="#F5F7FA" d="M5.5 20h5v9.9h-5z"/><path fill="#0059B9" d="M8.3 49H1.1c-.5 0-1-.4-1-1v-8c0-.5.4-1 1-1h7.3v10z"/><path fill="#FF5169" d="M15 49H8.5V39H15c.5 0 1 .5 1 1v8c0 .5-.5 1-1 1z"/><path fill="#F5F7FA" d="M5.5 39h5v9.9h-5z"/><path fill="#0054B9" d="M15 68.7H1c-.6 0-1-.4-1-1v-7.9c0-.5.4-1 1-1h14c.6 0 1 .5 1 1v7.9c0 .5-.5 1-1 1z"/><g fill="#FF5169"><path d="M15 58.7c.4 0 .7.3.9.6M.1 59.4c.1-.4.5-.7.9-.7M1 68.6c-.4 0-.7-.3-.9-.6M15.9 68c-.1.4-.5.6-.9.6"/><path d="M15.9 68L9 63.7l6.9-4.3c-.1-.4-.5-.6-.9-.6l-7 4.4-7-4.4c-.4 0-.7.3-.9.6l7 4.3-7 4.3c.1.4.5.6.9.6l7-4.4 7 4.4c.4 0 .8-.2.9-.6z"/></g><path fill="none" stroke="#FFF" stroke-width="3" stroke-miterlimit="10" d="M8 68.7v-10M0 63.7h16"/><path fill="none" stroke="#FF5169" stroke-miterlimit="10" d="M8 68.7v-10M0 63.7h16"/><path fill="#00B048" d="M5.5 88.5H1c-.6 0-1-.4-1-1v-7.9c0-.5.4-1 1-1h4.5v9.9z"/><path fill="#FF5169" d="M15 88.5h-4.5v-9.9H15c.6 0 1 .5 1 1v7.9c0 .6-.5 1-1 1z"/><path fill="#F5F7FA" d="M5.5 78.6h5v9.9h-5z"/><circle fill="#FFDA0E" cx="8" cy="83.5" r="1.9"/><g><path fill="#00B048" d="M4 107.5H1c-.6 0-1-.4-1-1v-7.9c0-.5.4-1 1-1h3v9.9z"/><path fill="#FF5169" d="M15 107.5H4v-9.9h11c.6 0 1 .5 1 1v7.9c0 .6-.5 1-1 1z"/><circle fill="#FFDA0E" cx="4" cy="102.5" r="1.1"/></g><g><path fill="#00BEEA" d="M15 130.6H1c-.6 0-1-.4-1-1v-7.9c0-.6.4-1 1-1h14c.6 0 1 .4 1 1v7.9c0 .5-.5 1-1 1z"/><path fill="#F5F7FA" d="M0 123.1h15.9v4.9H0z"/><circle fill="#FFC200" cx="8" cy="125.6" r="1.5"/></g><g><path fill="#0054B9" d="M15 155.6H1c-.6 0-1-.4-1-1v-7.9c0-.5.4-1 1-1h14c.6 0 1 .5 1 1v7.9c0 .6-.5 1-1 1z"/><path fill="#F5F7FA" d="M6 145.7h9c.6 0 1 .5 1 1v4H6v-5z"/><path fill="#FF5169" d="M0 155.6v-5h16v5"/><circle fill="#F5F7FA" cx="3" cy="148.2" r="1.2"/></g><g><path fill="#00C537" d="M15 178.4H1c-.6 0-1-.4-1-1v-7.9c0-.6.4-1 1-1h14c.6 0 1 .4 1 1v7.9c0 .6-.5 1-1 1z"/><path fill="#FFDA0E" d="M8 169l-6 4.4 6 4.5 6-4.4z"/><circle fill="#0054B9" cx="8" cy="173.5" r="3.6"/><path fill="#77A2D9" d="M6.1 170.4c-.3.2-.6.5-.9.8.1.1.2.1.3.1 0 0 3.5.5 5.4 3.6l.2.2c.2-.3.3-.7.4-1.1-1.8-2.5-4.3-3.3-5.4-3.6z"/></g><g><path fill="#FF5169" d="M15 228.7H1c-.6 0-1-.4-1-1v-7.9c0-.6.4-1 1-1h14c.6 0 1 .4 1 1v7.9c0 .5-.5 1-1 1z"/><path fill="#F5F7FA" d="M5 218.7h6.1v9.9H5z"/></g><g><path fill="#FFFEFE" d="M15 254.5H1c-.6 0-1-.4-1-1v-7.9c0-.5.4-1 1-1h14c.6 0 1 .5 1 1v7.9c0 .6-.5 1-1 1z"/><path fill="#FFF" d="M15 254.5H1c-.6 0-1-.4-1-1v-7.9c0-.5.4-1 1-1h14c.6 0 1 .5 1 1v7.9c0 .6-.5 1-1 1z"/><path fill="#0077CE" d="M7 247.4h9v1.4H7zM0 250.2h15.9v1.4H0zM15.4 244.6H7v1.4h9v-.4c0-.6-.3-1-.6-1zM0 253.5c0 .5.5 1 1 1h14c.5 0 1-.5 1-1v-.4H0v.4z"/><circle fill="#F0B200" cx="3.5" cy="246.9" r="1.9"/></g><g><path fill="#FFF" d="M15 281.5H1c-.6 0-1-.4-1-1v-7.9c0-.5.4-1 1-1h14c.6 0 1 .5 1 1v7.9c0 .6-.5 1-1 1z"/><path fill="#FF3434" d="M15 271.6H1c-.5 0-.9.4-1 .9h16c-.1-.5-.5-.9-1-.9zM1 281.5h14c.5 0 .9-.4 1-.8H.1c0 .5.4.8.9.8zM0 273.4h15.9v.9H0zM0 275.2h15.9v.9H0zM0 277.1h15.9v.9H0zM0 278.9h15.9v.9H0z"/><path fill="#0073ED" d="M8.9 278v-6.4H1c-.5 0-.9.4-1 .8v5.5h8.9z"/><g fill="#FFF"><circle cx="1.5" cy="273" r=".5"/><circle cx="3.5" cy="273" r=".5"/><circle cx="5.5" cy="273" r=".5"/><circle cx="7.5" cy="273" r=".5"/></g><g fill="#FFF"><circle cx="2.5" cy="274.8" r=".5"/><circle cx="4.5" cy="274.8" r=".5"/><circle cx="6.5" cy="274.8" r=".5"/></g><g fill="#FFF"><circle cx="1.5" cy="276.7" r=".5"/><circle cx="3.5" cy="276.7" r=".5"/><circle cx="5.5" cy="276.7" r=".5"/><circle cx="7.5" cy="276.7" r=".5"/></g></g><g><path fill="#F00" d="M15 307.3H1c-.6 0-1-.5-1-1v-7.9c0-.5.4-1 1-1h14c.6 0 1 .5 1 1v7.9c0 .6-.5 1-1 1z"/><path fill="#FFF" d="M3 297.4h10v9.9H3z"/><path fill="#F00" d="M8 297.9l-.7 1.4c-.1.1-.2.1-.4.1l-.4-.4.4 2.1c.1.4-.2.4-.3.2l-.9-1-.1.5c0 .1-.1.1-.2.1l-1.1-.2.3 1.1c.1.2.1.3-.1.4l-.5.2 1.9 1.6c.1.1.1.2.1.3l-.2.6c.7-.1 1.2-.2 1.9-.2.1 0 .2.1.2.1l-.1 2.1h.3l-.1-2.1c0-.1.1-.1.1-.1.7.1 1.2.2 1.9.2l-.2-.6c0-.1 0-.2.1-.3l1.9-1.6-.4-.2c-.2-.1-.1-.2-.1-.4l.3-1.1-1.1.2c-.1 0-.2-.1-.2-.1l-.1-.5-.9 1c-.1.2-.4.2-.3-.2l.4-2.1-.5.3c-.1.1-.3.1-.4-.1l-.5-1.3z"/></g><path fill="#F15523" d="M15 333.9H1c-.6 0-1-.5-1-1V325c0-.6.4-1 1-1h14c.6 0 1 .4 1 1v7.9c0 .5-.5 1-1 1z"/><path fill="#FFF" d="M15 333.9H1c-.6 0-1-.5-1-1v-5.7h16v5.7c0 .5-.5 1-1 1z"/><g><path fill="#F15523" d="M1 333.9h14.2H.8 1z"/><path fill="#008748" d="M0 332.9c0 .5.4.9.8 1h14.3c.5-.1.8-.5.8-1v-2.2H0v2.2z"/></g><circle fill="#0C1A3B" cx="8" cy="328.9" r="1.6"/><circle fill="#FFF" cx="8" cy="328.9" r="1.3"/><g><circle fill="#0C1A3B" cx="8" cy="328.9" r=".5"/><circle fill="none" stroke="#0C1A3B" stroke-width="2" stroke-miterlimit="10" stroke-dasharray="9.947009e-02,9.947009e-02" cx="8" cy="328.9" r=".5"/></g></svg>