<svg height="49" viewBox="0 0 200 49" width="200" xmlns="http://www.w3.org/2000/svg"><g fill="none" fill-rule="evenodd"><g fill-rule="nonzero"><path d="m65.3 24-2.7 2.7.7 3.8v.2c0 .2-.1.4-.3.4-.1 0-.2 0-.3-.1l-3.4-1.8-3.4 1.8h-.4c-.2 0-.3-.2-.3-.4v-.2l.7-3.8-2.8-2.6c-.1-.1-.2-.2-.2-.4s.2-.3.4-.3l3.8-.6 1.7-3.4c.1-.1.2-.3.4-.3s.3.2.4.3l1.7 3.4 3.8.6c.2 0 .4.1.4.3s-.1.3-.2.4zm-52.4 0-2.7 2.7.7 3.8v.2c0 .2-.1.4-.3.4-.1 0-.2 0-.3-.1l-3.4-1.8-3.4 1.8h-.4c-.2 0-.3-.2-.3-.4v-.2l.7-3.8-2.8-2.6c-.1-.1-.2-.2-.2-.4s.2-.3.4-.3l3.8-.6 1.7-3.4c.1-.1.2-.3.4-.3s.3.2.4.3l1.7 3.4 3.8.6c.2 0 .4.1.4.3s-.1.3-.2.4zm13.1 0-2.7 2.7.7 3.8v.2c0 .2-.1.4-.3.4-.1 0-.2 0-.3-.1l-3.4-1.8-3.4 1.8h-.4c-.2 0-.3-.2-.3-.4v-.2l.7-3.8-2.8-2.6c-.1-.1-.2-.2-.2-.4s.2-.3.4-.3l3.8-.6 1.7-3.4c.1-.1.2-.3.4-.3s.3.2.4.3l1.7 3.4 3.8.6c.2 0 .4.1.4.3s-.1.3-.2.4zm13.1 0-2.7 2.7.7 3.8v.2c0 .2-.1.4-.3.4-.1 0-.2 0-.3-.1l-3.5-1.9-3.4 1.8c-.1.1-.2.1-.3.1-.2 0-.3-.2-.3-.4v-.2l.7-3.8-2.8-2.6c-.1-.1-.2-.2-.2-.4s.2-.3.4-.3l3.8-.6 1.7-3.4c.1-.1.2-.3.4-.3s.3.2.4.3l1.7 3.4 3.8.6c.2 0 .4.1.4.3s-.1.3-.2.4zm13.1 0-2.7 2.7.7 3.8v.2c0 .2-.1.4-.3.4-.1 0-.2 0-.3-.1l-3.4-1.8-3.4 1.8h-.4c-.2 0-.3-.2-.3-.4v-.2l.7-3.8-2.8-2.6c-.1-.1-.2-.2-.2-.4s.2-.3.4-.3l3.8-.6 1.7-3.4c.1-.1.2-.3.4-.3s.3.2.4.3l1.7 3.4 3.8.6c.2 0 .4.1.4.3s-.1.3-.2.4z" fill="#d5d5d5"/><path d="m89.7 39.7-3.8 3.6.9 5v.2c0 .3-.1.5-.4.5-.1 0-.3 0-.4-.1l-4.7-2.4-4.7 2.4c-.1.1-.3.1-.4.1-.3 0-.4-.2-.4-.5v-.2l.9-5-3.8-3.6c-.1-.1-.3-.3-.3-.5 0-.3.3-.4.6-.5l5.3-.7 2.4-4.6c.1-.2.3-.4.5-.4s.4.2.5.4l2.4 4.6 5.3.7c.3 0 .6.2.6.5-.2.2-.3.4-.5.5zm-72.6 0-3.8 3.6.9 5v.2c0 .3-.1.5-.4.5-.1 0-.3 0-.4-.1l-4.7-2.4-4.7 2.4c-.1.1-.3.1-.4.1-.3 0-.4-.2-.4-.5v-.2l.9-5-3.8-3.6c-.2-.1-.3-.3-.3-.5 0-.3.3-.4.6-.5l5.2-.7 2.4-4.6c.1-.2.3-.4.5-.4s.4.2.5.4l2.4 4.6 5.3.7c.3 0 .6.2.6.5-.1.2-.2.4-.4.5zm18.2 0-3.8 3.6.9 5v.2c0 .3-.1.5-.4.5-.1 0-.3 0-.4-.1l-4.7-2.4-4.7 2.4c-.2.1-.3.1-.5.1-.3 0-.4-.2-.4-.5v-.2l.9-5-3.8-3.6c-.1-.1-.3-.3-.3-.5 0-.3.3-.4.6-.5l5.3-.7 2.4-4.6c.1-.2.3-.4.5-.4s.4.2.5.4l2.4 4.6 5.3.7c.3 0 .6.2.6.5-.1.2-.3.4-.4.5zm18.1 0-3.8 3.6.9 5v.2c0 .3-.1.5-.4.5-.1 0-.3 0-.4-.1l-4.7-2.4-4.7 2.4c-.1.1-.3.1-.4.1-.3 0-.4-.2-.4-.5v-.2l.9-5-3.8-3.6c-.1-.1-.3-.3-.3-.5 0-.3.3-.4.6-.5l5.3-.7 2.4-4.6c.1-.2.3-.4.5-.4s.4.2.5.4l2.4 4.6 5.3.7c.3 0 .6.2.6.5-.2.2-.3.4-.5.5zm18.2 0-3.8 3.6.9 5v.2c0 .3-.1.5-.4.5-.1 0-.3 0-.4-.1l-4.7-2.4-4.7 2.4c-.2.1-.3.1-.5.1-.3 0-.4-.2-.4-.5v-.2l.9-5-3.8-3.6c-.1-.1-.3-.3-.3-.5 0-.3.3-.4.6-.5l5.3-.7 2.4-4.6c.1-.2.3-.4.5-.4s.4.2.5.4l2.3 4.6 5.3.7c.3 0 .6.2.6.5 0 .2-.2.4-.3.5z" fill="#d5d5d5"/><g fill="#eac448"><path d="m131.3 24-2.7 2.7.7 3.8v.2c0 .2-.1.4-.3.4-.1 0-.2 0-.3-.1l-3.4-1.8-3.4 1.8c-.1.1-.2.1-.3.1-.2 0-.3-.2-.3-.4v-.2l.7-3.8-2.8-2.7c-.1-.1-.2-.2-.2-.4s.2-.3.4-.3l3.8-.6 1.7-3.4c.1-.1.2-.3.4-.3s.3.2.4.3l1.7 3.4 3.8.6c.2 0 .4.1.4.3-.1.2-.2.3-.3.4zm-52.4 0-2.7 2.7.7 3.8v.2c0 .2-.1.4-.3.4-.1 0-.2 0-.3-.1l-3.4-1.8-3.4 1.8h-.4c-.2 0-.3-.2-.3-.4v-.2l.7-3.8-2.8-2.6c-.1-.1-.2-.2-.2-.4s.2-.3.4-.3l3.8-.6 1.7-3.4c.1-.1.2-.3.4-.3s.3.2.4.3l1.7 3.4 3.8.6c.2 0 .4.1.4.3s-.1.3-.2.4zm13.1 0-2.7 2.7.7 3.8v.2c0 .2-.1.4-.3.4-.1 0-.2 0-.3-.1l-3.4-1.8-3.4 1.8h-.4c-.2 0-.3-.2-.3-.4v-.2l.7-3.8-2.8-2.6c-.1-.1-.2-.2-.2-.4s.2-.3.4-.3l3.8-.6 1.7-3.4c.1-.1.2-.3.4-.3s.3.2.4.3l1.7 3.4 3.8.6c.2 0 .4.1.4.3s-.1.3-.2.4zm13.1 0-2.7 2.7.7 3.8v.2c0 .2-.1.4-.3.4-.1 0-.2 0-.3-.1l-3.5-1.9-3.4 1.8c-.1.1-.2.1-.3.1-.2 0-.3-.2-.3-.4v-.2l.7-3.8-2.8-2.6c-.1-.1-.2-.2-.2-.4s.2-.3.4-.3l3.8-.6 1.7-3.4c.1-.1.2-.3.4-.3s.3.2.4.3l1.7 3.4 3.8.6c.2 0 .4.1.4.3s-.1.3-.2.4zm13.1 0-2.7 2.7.7 3.8v.2c0 .2-.1.4-.3.4-.1 0-.2 0-.3-.1l-3.4-1.8-3.4 1.8c-.1.1-.2.1-.3.1-.2 0-.3-.2-.3-.4v-.2l.7-3.8-2.9-2.7c-.1-.1-.2-.2-.2-.4s.2-.3.4-.3l3.8-.6 1.7-3.4c.1-.1.2-.3.4-.3s.3.2.4.3l1.7 3.4 3.8.6c.2 0 .4.1.4.3s-.1.3-.2.4z"/><path d="m180.7 39.7-3.8 3.6.9 5v.2c0 .3-.1.5-.4.5-.1 0-.3 0-.4-.1l-4.7-2.4-4.7 2.4c-.1.1-.3.1-.4.1-.3 0-.4-.2-.4-.5v-.2l.9-5-3.8-3.6c-.1-.1-.3-.3-.3-.5 0-.3.3-.4.6-.5l5.3-.7 2.4-4.6c.1-.2.3-.4.5-.4s.4.2.5.4l2.4 4.6 5.3.7c.3 0 .6.2.6.5-.2.2-.3.4-.5.5zm-72.6 0-3.8 3.6.9 5v.2c0 .3-.1.5-.4.5-.1 0-.3 0-.4-.1l-4.7-2.4-4.7 2.4c-.1.1-.3.1-.4.1-.3 0-.4-.2-.4-.5v-.2l.9-5-3.8-3.6c-.1-.1-.3-.3-.3-.5 0-.3.3-.4.6-.5l5.3-.7 2.4-4.6c.1-.2.3-.4.5-.4s.4.2.5.4l2.4 4.6 5.3.7c.3 0 .6.2.6.5-.2.2-.3.4-.5.5zm18.2 0-3.8 3.6.9 5v.2c0 .3-.1.5-.4.5-.1 0-.3 0-.4-.1l-4.7-2.4-4.7 2.4c-.1.1-.3.1-.4.1-.3 0-.4-.2-.4-.5v-.2l.9-5-3.8-3.6c-.1-.1-.3-.3-.3-.5 0-.3.3-.4.6-.5l5.2-.7 2.4-4.6c.1-.2.3-.4.5-.4s.4.2.5.4l2.4 4.6 5.3.7c.3 0 .6.2.6.5-.1.2-.3.4-.4.5zm18.1 0-3.8 3.6.9 5v.2c0 .3-.1.5-.4.5-.1 0-.3 0-.4-.1l-4.7-2.4-4.7 2.4c-.1.1-.3.1-.4.1-.3 0-.4-.2-.4-.5v-.2l.9-5-3.8-3.6c-.1-.1-.3-.3-.3-.5 0-.3.3-.4.6-.5l5.3-.7 2.4-4.6c.1-.2.3-.4.5-.4s.4.2.5.4l2.4 4.6 5.3.7c.3 0 .6.2.6.5-.2.2-.3.4-.5.5zm18.2 0-3.8 3.6.9 5v.2c0 .3-.1.5-.4.5-.1 0-.3 0-.4-.1l-4.7-2.4-4.7 2.4c-.1.1-.3.1-.4.1-.3 0-.4-.2-.4-.5v-.2l.9-5-3.8-3.6c-.1-.1-.3-.3-.3-.5 0-.3.3-.4.6-.5l5.3-.7 2.4-4.6c.1-.2.3-.4.5-.4s.4.2.5.4l2.2 4.6 5.3.7c.3 0 .6.2.6.5 0 .2-.2.4-.3.5z"/></g></g><path d="m100 0h100v8h-100z" fill="#4baa3b"/><path d="m119.3 0v8m20-8v8m20-8v8m20-8v8" stroke="#fff" stroke-width="2"/><path d="m0 0h100v8h-100z" fill="#d5d5d5"/><path d="m20 0v8m20-8v8m20-8v8m20-8v8" stroke="#fff" stroke-width="2"/></g></svg>