<?xml version="1.0" encoding="utf-8"?>
<!-- Generator: Adobe Illustrator 19.2.1, SVG Export Plug-In . SVG Version: 6.00 Build 0)  -->
<svg version="1.1" id="Capa_1" xmlns="http://www.w3.org/2000/svg" xmlns:xlink="http://www.w3.org/1999/xlink" x="0px" y="0px"
	 width="50px" height="269.7px" viewBox="0 0 50 269.7" style="enable-background:new 0 0 50 269.7;" xml:space="preserve">
<style type="text/css">
	.st0{fill:#F46269;}
	.st1{fill:#FFC484;}
	.st2{fill:#DDDDDD;}
	.st3{fill:#44DBC5;}
	.st4{fill:#B6603B;}
	.st5{fill:#FFFFFF;}
	.st6{fill:#666666;}
</style>
<path class="st0" d="M0,26.8V5.7l50-0.1l-5.1,10.6L50,26.8H0z"/>
<path class="st1" d="M0,80.4V59.3l50-0.1l-5.1,10.6L50,80.4H0z"/>
<path class="st2" d="M0,134.4v-21.1l50-0.1l-5.1,10.6l5.1,10.6H0z"/>
<path class="st3" d="M0,189.5v-21.1l50-0.1l-5.1,10.6l5.1,10.6H0z"/>
<path class="st0" d="M0,245.3v-21.1l50-0.1l-5.1,10.6l5.1,10.6H0z"/>
<g>
	<path class="st4" d="M15.4,67.6l0,5.9h-1.8l-0.1-6h-2.4l0-1.7l6.5,0l0,1.7C17.6,67.6,15.4,67.6,15.4,67.6z M22,65.9
		c2.3,0,4,1.7,4,4s-1.7,4-4,4s-4-1.7-3.9-3.9C18.1,67.6,19.8,65.9,22,65.9z M22,71.9c1.3,0,2.1-0.9,2.1-2.1c0-1.3-0.8-2.1-2.1-2.2
		c-1.1,0-2.1,0.9-2.1,2.2C19.9,70.9,20.7,71.9,22,71.9z M27.1,66h3.8c1.6,0,2.8,0.8,2.8,2.8c0,1.7-1.3,2.8-2.8,2.8L29,71.6l0,2h-1.8
		L27.1,66z M29,67.6l0,2.4l1.6,0c0.7,0,1.1-0.4,1.1-1.1s-0.5-1.2-1.2-1.2L29,67.6z"/>
</g>
<g>
	<path class="st5" d="M3.6,13.1h2.5c1,0,1.9,0.8,2,2.3c0,1.4-0.8,2.3-1.9,2.2l-1.3,0l0,1.6H3.6C3.6,19.1,3.6,13.1,3.6,13.1z
		 M4.8,14.3l0,1.8H6c0.4,0,0.8-0.4,0.8-0.9c0-0.6-0.4-0.9-0.8-0.9C6,14.3,4.8,14.3,4.8,14.3z M8.9,13.1l2.5,0.1
		c1.2,0.1,2.1,0.6,2.1,2.1c0,0.8-0.5,1.6-1.2,1.8l1.6,2l0,0.3h-1.4L10.8,17h-0.6v2.1H8.9L8.9,13.1z M10.2,14.3v1.6h1.1
		c0.4,0,0.7-0.3,0.7-0.7c0-0.4-0.3-0.7-0.7-0.7C11.3,14.5,10.2,14.3,10.2,14.3z M14.5,19.2v-6.1l4.2,0.1v1.3h-3l0,1h2.4v1.3h-2.4
		l0,1.1h3v1.3C18.7,19.1,14.5,19.2,14.5,19.2z M24.4,15.5l-1.5,2.2h-0.3L21,15.4v3.7l-1.3,0.1v-6.1h1.1l1.8,2.5l1.8-2.5h1.1l0,6.1
		h-1.3C24.4,19.2,24.4,15.5,24.4,15.5z M26.9,13.2h1.3l0,6.1h-1.3C26.9,19.3,26.9,13.2,26.9,13.2z M30.7,16.6c0,0.8,0.4,1.4,1.1,1.4
		c0.7,0,1.1-0.6,1.1-1.4v-3.4h1.3l0.1,3.5c0,1.4-0.8,2.7-2.4,2.7c-1.6,0-2.4-1.1-2.4-2.7l-0.1-3.5h1.3
		C30.7,13.2,30.7,16.6,30.7,16.6z M40.1,15.6l-1.6,2.3h-0.3l-1.6-2.3l0.1,3.7h-1.3v-6.1l1.1,0l1.8,2.5l1.8-2.5l1.1-0.1l0,6.1l-1.3,0
		C40.1,19.3,40.1,15.6,40.1,15.6z"/>
</g>
<g>
	<path class="st6" d="M15.4,121.6l0,5.9h-1.8l0-5.9h-2.4l0-1.7h6.5l0,1.7C17.7,121.6,15.4,121.6,15.4,121.6z M22,119.8
		c2.3,0,4,1.7,4,4s-1.7,4-4,4c-2.3,0-4-1.7-3.9-3.9C18.1,121.5,19.7,119.8,22,119.8z M22,125.9c1.3,0,2.1-0.9,2.1-2.1
		c0-1.3-0.8-2.1-2.1-2.2c-1.1,0-2.1,0.9-2.1,2.2C19.9,124.9,20.8,125.8,22,125.9z M27.1,120h3.8c1.6,0,2.8,0.8,2.8,2.8
		c0,1.7-1.3,2.8-2.8,2.8l-1.8,0l0,2h-1.8C27.2,127.6,27.1,120,27.1,120z M29,121.6l0,2.4h1.6c0.7,0,1.1-0.4,1.1-1.1
		s-0.5-1.2-1.2-1.2L29,121.6z"/>
</g>
<g>
	<path class="st5" d="M9.9,178v4.9l-2.1,0.1l0-8.2l1.7,0l4.1,4.9v-4.9h2l0,8.2h-1.7L9.9,178L9.9,178z M17.2,183.1l0-8.2h6.5l0,1.7
		H19v1.4h3.7l0,1.7H19l0,1.6l4.7,0l0,1.7L17.2,183.1L17.2,183.1z M30.4,179.9l-1.3,3.1h-2.3l-3-8.1h2.1l2.2,5.9l1.3-3.3l-0.9-2.6
		h2.3l1.9,5.6l2.1-5.6l2.3,0l-3.2,8.1l-2.3,0L30.4,179.9z"/>
</g>
<path class="st5" d="M30.1,232.2v7.1c0,1.1-0.9,2.1-2.1,2.1H16.9c-1.1,0-2.1-0.9-2.1-2.1v-7.1c0-1.1,0.9-2.1,2.1-2.1h1.8L19,229
	c0.2-0.5,0.8-1,1.3-0.9h4.1c0.6,0,1.1,0.4,1.3,0.9l0.4,1.1H28C29.2,230.1,30.1,231,30.1,232.2L30.1,232.2z M26,235.7
	c0-2-1.6-3.5-3.5-3.5c-2,0-3.5,1.6-3.5,3.5c0,2,1.6,3.5,3.5,3.5C24.4,239.2,26,237.7,26,235.7z M24.7,235.7c0,1.3-1,2.3-2.3,2.3
	s-2.3-1-2.3-2.3c0-1.3,1-2.3,2.3-2.3S24.7,234.4,24.7,235.7z"/>
</svg>
