<svg version="1.1" id="Capa_1" xmlns="http://www.w3.org/2000/svg" xmlns:xlink="http://www.w3.org/1999/xlink" x="0px" y="0px"
	 width="400px" height="40px" viewBox="0 0 400 40" style="enable-background:new 0 0 400 40;" xml:space="preserve">
<path fill="#D9D9D9" d="M218.4,0.1c-10,0-18.2,8.1-18.2,18.2s8.1,18.2,18.2,18.2c10,0,18.2-8.1,18.2-18.2S228.5,0.1,218.4,0.1z
	 M218.4,33.4c-8.4,0-15.2-6.8-15.2-15.2S210,3,218.4,3s15.2,6.8,15.2,15.2C233.6,26.6,226.8,33.4,218.4,33.4z"/>
<path fill="#538C56" d="M257.7,0.1c-10,0-18.2,8.1-18.2,18.2s8.1,18.2,18.2,18.2c10,0,18.2-8.1,18.2-18.2S267.8,0.1,257.7,0.1z
	 M257.7,33.4c-8.4,0-15.2-6.8-15.2-15.2S249.3,3,257.7,3s15.2,6.8,15.2,15.2C272.9,26.6,266.1,33.4,257.7,33.4z"/>
<path fill="#538C56" d="M297.9,0.1c-10,0-18.2,8.1-18.2,18.2s8.1,18.2,18.2,18.2c10,0,18.2-8.1,18.2-18.2S307.9,0.1,297.9,0.1z"/>
<circle fill="#FFFFFF" cx="297.9" cy="18.3" r="6.1"/>
<path fill="#538C56" d="M114.5,0H81.6c-0.8,0-1.5,0.7-1.5,1.5v33c0,0.8,0.7,1.5,1.5,1.5h32.9c0.8,0,1.5-0.7,1.5-1.5v-33
	C116.1,0.7,115.4,0,114.5,0z M114.1,2v32"/>
<g>
	<path fill="#FFFFFF" d="M96.2,26.5c-0.2,0.2-0.7,0.2-0.9,0L85.9,17c-0.9-0.9-0.9-2.2,0-3s2.2-0.9,3,0l6.4,6.5c0.2,0.3,0.6,0.3,0.9,0
		L107,9.8c0.9-0.9,2.2-0.9,3,0c0.9,0.9,0.9,2.2,0,3L96.2,26.5z"/>
</g>
<path fill="#D9D9D9" d="M34.5,0h-33C0.7,0,0,0.7,0,1.5v33C0,35.3,0.7,36,1.5,36h32.9c0.8,0,1.5-0.7,1.5-1.5v-33C36,0.7,35.3,0,34.5,0z
	 M33,33H3V3h30V33z"/>
<path fill="#538C56" d="M74.4,0h-33c-0.8,0-1.5,0.7-1.5,1.5v33c0,0.8,0.7,1.5,1.5,1.5h32.9c0.8,0,1.5-0.7,1.5-1.5v-33
	C75.9,0.7,75.2,0,74.4,0z M72.9,33h-30V3h30V33z"/>
</svg>