<svg height="42" viewBox="0 0 121 42" width="121" xmlns="http://www.w3.org/2000/svg"><path d="m99.3590076 27.9943111c1.0080764-2.0177778.1338155-4.9831111-1.2025549-6.7484444-.8582031-1.136-2.2213366-2.2257778-3.5773332-2.8977778-.1177576.4248889-.2551415.8515555-.406799 1.2782222-.4567567 3.0133333-.3514886 6.5777778.926003 8.4337778.5638091.8177778 1.2828442 1.1982222 2.2623733 1.1982222.9081609 0 1.5790224-.4248889 1.9983108-1.264zm14.4806164 2.1031111c1.282844-1.664 2.173163-3.6248889 2.456852-4.7431111l2.105363.5297778c-.683351 2.6826667-4.128653 9.1146667-8.598089 9.1146667-1.107992 0-2.050053-.3822223-2.804772-1.1377778-1.678938-1.6835556-2.348015-5.04-2.306978-11.584.008921-1.4008889.028547-2.6328889.058878-3.76-2.058973.0995555-4.141142.0942222-6.1840579-.0195556.4977935.4586667.9474134.944 1.3256651 1.4453334 2.0982268 2.7733333 2.6798778 6.4817777 1.4113068 9.0168888-.783266 1.5662223-2.2195521 2.464-3.9430952 2.464-1.687859 0-3.0902449-.7395555-4.051932-2.1386666-.9081609-1.3208889-1.3488598-3.0986667-1.4915963-4.9688889-1.8216744 2.6826667-3.9109797 4.16-5.9057221 4.16-3.3739337 0-3.9181166-3.8186667-4.2107264-5.8666667-.1141892-.7928889-.2051837-1.4542222-.2819045-2.0231111l-3.8645904 8.784-2.0678949-.592c.2408679-1.6071111.4424831-3.2266667.6048459-4.8497778-.0071368.0142223-.0160579.0284445-.0231947.0408889-1.939432 3.5608889-5.1581398 5.5235556-9.0673353 5.5235556-2.4907517 0-4.7067356-.6542222-6.4962943-1.4613334-.0749367 2.6417778-.1159734 4.9991112-.0981314 6.7431112l-2.1713788.0213333c-.0196262-1.9982222.0339-4.7946667.1302471-7.9004445-1.05625-.6506666-1.8198902-1.2622222-2.2195524-1.6053333l.5031461-1.8808889c.6119827-.1191111 1.229318-.2808889 1.8591428-.4906666.2819045-7.1164445.7172508-14.75200004 1.0223501-17.94844449l2.1606735.20444445c-.2872572 3.02755555-.6958404 10.06933334-.9741765 16.84444444 1.4469911-.6968889 2.9760557-1.6284444 4.6353674-2.8231111 1.8912584-1.3617778 5.3097973-4.5351111 6.4552576-6.1617778l1.7788535 1.2426667c-1.3167441 1.8684444-4.8851563 5.1768889-6.9619722 6.672-2.1553209 1.552-4.121516 2.6986666-6.0020692 3.488-.0160579.4124444-.0303315.8231111-.042821 1.2266666 1.6718011.8728889 3.8860009 1.664 6.4213577 1.664 3.939527 0 6.0680849-2.3875555 7.1582348-4.3893333 1.2007707-2.2044444 1.8555743-3.808 2.4140308-5.9217778l2.1374789.3128889c-.0535262 1.536-.139168 3.0773334-.2604941 4.6186667l2.5692568-5.8417778 2.0714633.2968889c.0749366.576.1338154 1.0702222.1944784 1.5875556.1284629 1.0808888.2622783 2.1973333.5655933 4.3128888.3621939 2.5386667.8153822 4.0071112 2.0607581 4.0071112 1.9162373 0 4.6995988-3.1733334 6.1590794-7.1804445.2355152-1.4773333.5745143-2.7715555.9188661-3.6568889l2.0893053.5351111c3.1437711.4035556 6.4820208.5102223 9.7506858.3448889.155226-3.3386666.438915-5.8951111.859988-9.71911109.098131-.89955555.205183-1.86844444.321157-2.94044444l2.158889.23111111c-.115973 1.072-.223026 2.04444444-.321157 2.94755555-.417504 3.77066667-.686919 6.22399997-.838577 9.32977777 4.927977-.4337778 9.559776-1.4826667 12.956905-3.0506667l.913513 1.9644445c-3.664759 1.6888889-8.665889 2.8124444-13.954275 3.2568889-.032116 1.1608889-.051742 2.4426666-.062448 3.9182222-.02141 3.568.128463 8.4906667 1.677154 10.0426667.340783.3431111.74223.5013333 1.263218.5013333 1.243592 0 2.676309-.9724444 4.035874-2.7377778zm-70.668124-11.0803472c-.9654828 0-3.7001379 2.73-4.167931 6.88275 3.1514482-1.8515 4.3103793-5.3025 4.3103793-6.46975 0-.22225-.0316552-.35175-.0527586-.40775-.0193449-.0035-.0492414-.00525-.0896897-.00525zm4.1046207 5.77675 2.0997931.4095c-.1301379.6685-.6682759 3.0065-2.0681379 5.0505-1.4649311 2.135-3.4029311 3.262-5.6064828 3.262-2.5658276 0-4.2681724-1.66775-4.7588276-4.55-.8072069.17325-1.6759655.2695-2.6115517.2695-1.6196897 0-2.9351379-.50575-3.9111724-1.505-1.6900345-1.7325-1.9942759-4.5395-2.003069-7.21875-.8652414 1.24075-1.7568621 2.50425-2.6731034 3.808-1.0885862 1.54175-2.2141035 3.13775-3.3132414 4.718l-1.9450345-.504c-.2637931-2.688-.2374138-5.95875-.1090345-8.9565-.0545172.14-.1107931.27825-.1670689.413-1.9995518 4.8195-7.4248966 13.42775-11.11624142 13.42775-.53110345 0-1.0112069-.21525-1.39282759-.6195-1.24862069-1.33-1.28731035-4.725-.94613793-9.77375l.03693103-.57925c.0844138-1.34225.21279311-2.67925.36579311-4.07225-2.58868966.2695-5.11582759.50575-7.00282759.6405l-.15475862-2.1245c1.98548276-.14175 4.67968965-.39725 7.40555172-.68425.06331035-.54075.13013793-1.0885.19872414-1.6555.26906897-2.21025.57331035-4.71975.85996552-7.63525l2.12968963.20475c-.2866551 2.94175-.59441377 5.46175-.86524136 7.68775-.04748275.39375-.09320689.7805-.13893103 1.16025 2.19651729-.245 4.29279309-.49525 5.91775859-.7105l.283138 2.1105c-1.7568621.23275-4.0624138.50925-6.45413797.77175-.17410345 1.5365-.31655172 2.99075-.408 4.43975l-.03868965.588c-.08617242 1.281-.21631035 3.21475-.17410345 4.95075.05451724 2.23825.3745862 2.961.49944827 3.1605 1.9678966-.266 6.7618966-6.67275 9.0164483-12.10125.9355862-2.2505 2.011862-5.75575 2.8841379-9.009.3728276-3.3495 1.0235173-8.16375 1.7603793-8.97225.2286207-.25025.5346207-.3885.8599655-.3885.3816207 0 .7386207.19075.9531725.51275.2637931.39025.6612413.98175-1.1589311 8.07625-.0896896.35-.1846552.714-.2848965 1.09025-.5047242 4.56575-.9127242 10.2515-.8019311 14.805.5205518-.7385 1.0375862-1.4735 1.5475862-2.19625 1.6443104-2.33275 3.1989311-4.53775 4.6867242-6.713l1.9538276.6125c-.0035173.4165-.0175862.868-.0298966 1.3405-.0791379 2.67225-.1881724 6.3315 1.3558966 7.9135.5627586.5775 1.3400689.8575 2.3741379.8575.9004138 0 1.7216896-.10675 2.4673448-.301.1336552-5.285 3.6174828-9.919 6.3732414-9.919 1.1044138 0 2.2844483.6685 2.2844483 2.5445 0 2.233-1.9168966 6.87925-6.4523793 8.869.1934482 1.596.8652413 3.087 2.6977241 3.087 4.2277241 0 5.522069-6.32275 5.5748276-6.59225z" fill="#fff" fill-rule="evenodd"/></svg>