<svg height="42" viewBox="0 0 203 42" width="203" xmlns="http://www.w3.org/2000/svg"><path d="m0 12.0684717h3.55844913l4.49051848 14.1287329 4.61714489-14.2137946h2.8384168l4.6593537 14.2137946 4.4905184-14.1287329h3.4740316l-6.5661977 19.2509427h-2.8806257l-4.6598502-13.7444546-4.65935361 13.7444546h-2.92333101zm30.9665023 0h14.0212628v2.9881642h-10.7175562v4.9510859h9.4895288v2.9881642h-9.4895288v5.1222098h10.8868879v3.0306951h-14.1905945zm21.1378631 2.9029024v13.06146h3.7282775c3.9815301 0 6.5657011-2.6889475 6.5657011-6.4456684v-.0850616c0-3.7562205-2.584171-6.53073-6.5657011-6.53073zm-3.3037067-2.9031026h7.0741929c5.9727919 0 10.0397327 4.097968 10.0397327 9.5188942v.085562c0 5.3358646-4.151855 9.5183938-10.0397327 9.5183938h-7.0741929zm24.103552 2.9031026v13.06146h3.7277808c3.9815302 0 6.5657012-2.6889475 6.5657012-6.4456684v-.0850616c0-3.7562205-2.584171-6.53073-6.5657012-6.53073zm-3.3464121-2.9031026h7.0741929c5.9727918 0 10.0397327 4.097968 10.0397327 9.5188942v.085562c0 5.3358646-4.151855 9.5183938-10.0397327 9.5183938h-7.0741929zm20.8415079 19.0804693v-19.0803192h3.346412v19.0803192zm7.8791393-19.0802691h3.1775772l10.123653 13.1895527v-13.1895527h3.219786v19.0803192h-2.795711l-10.463807-13.5738311v13.5738311h-3.2614982zm20.2912042 9.6041059c0-5.4209262 4.066445-9.945203 9.785487-9.945203 3.303707 0 5.294968.9386799 7.28623 2.6033855l-2.076176 2.518324c-1.482273-1.2373962-2.922834-2.0059529-5.294968-2.0059529-3.473535 0-6.142124 3.1157567-6.142124 6.7869156v.0855619c0 3.9268441 2.583675 6.8719772 6.481284 6.8719772 1.821433 0 3.388621-.5974327 4.574936-1.4085202v-3.5855969h-4.829182v-2.9451331h8.048471v8.0243118c-1.906347 1.5791437-4.574936 3.0311954-7.879139 3.0311954-6.057706-.256686-9.954819-4.5247772-9.954819-10.0312653zm70.522692 4.7246218c1.601947-4.477743-1.362103-10.3800178-6.098425-12.1452964l-.330718-.1370993-.140034.3067222c-1.214124 3.012682-2.778828 8.1864291-1.233987 12.0872544.562619 1.4190277 1.666999 2.4933058 2.953622 2.8740816 1.088987.3212326 2.09306.1441043 3.069821-.5423929.792035-.556403 1.406794-1.4015151 1.779721-2.4432696zm-37.340874 1.3860039c2.905951-1.6546985 4.668292-5.3108465 4.489526-9.314246-.03625-.8105871-.249777-2.3196801-1.26974-3.3194041-.531831-.5213776-1.126726-.7630527-1.811998-.7305291-.967326.0420304-2.069224.6514718-2.876653 1.5911524-.929587 1.0822838-1.78717 2.559854-2.548915 4.3921811l-.039229.0935678c-.020856.0530384-.512464 1.2969393-.680803 1.7607752-.751813 2.0730014-1.046778 4.2425728-1.319397 6.5277278 1.754892.2461783 3.986496.1771283 6.057209-1.0012251zm40.244342-12.0982624c-.952429 0-1.869105-.0545395-2.732647-.1401014 2.6815 3.3189037 3.808723 7.8947178 2.41484 11.7915402-.566591 1.5836469-1.531931 2.8890924-2.792236 3.7757346-1.128216.792574-2.356243 1.1948654-3.620521 1.1948654-.592413 0-1.193267-.0885642-1.795611-.2666932-2.122357-.6274544-3.846959-2.2691434-4.732847-4.5047626-.403218-1.0172368-.64207-2.0865112-.754792-3.1707965l-.191181.418303c-.542756 1.1873599-1.346212 2.1450535-2.323967 2.7690054-1.283147.8185929-2.659153.9476864-3.872283.3622624-1.954019-.9426827-2.078659-3.34142-2.145697-4.6303536-.05214-1.0182375-.026815-2.0139586.076473-2.9606443.181249-1.6662067.438475-3.2438494.7682-4.712413-1.099415-.1050761-2.059293-.4668381-2.868708-1.083785-.18125-.1381-.349588-.2852065-.505512-.4388178-1.605424 7.0621149-5.284541 11.1600829-8.275902 13.4182184-3.366772 2.5408402-6.513065 3.3048936-7.179467 3.4449951-1.900885.5073674-5.157914.6014356-6.076576.5829221l-.706128 10.4655799h-2.754992l.739895-10.9634404-.017877-.0020015c.014401-.1080783.050651-.4838504.050651-.4838504.841693-13.319647-1.763334-16.6215384-2.062769-16.953779l2.034961-1.8623489c.701162.7785639 1.950542 2.7805139 2.57126 7.4959291.87397-2.0810072 1.843282-3.7307021 2.961567-5.032645 1.305989-1.520101 3.114015-2.4712899 4.837127-2.5463442 1.436589-.0640464 2.772373.4603334 3.846462 1.5125955 1.259312 1.2338937 2.005166 3.0732258 2.099018 5.1802519.099315 2.2176061-.293972 4.3591571-1.087993 6.2480252 2.970505-2.5618555 5.943494-6.8404543 6.829382-13.9220833l.100804-.76805627 2.952629-.28320511.002979.02151558c.088887.6794921.380376 1.9779325 1.299535 2.6779395.653491.4988613 1.593009.6629802 2.792235.4853516l1.520013 1.7512683c-.513954 1.8063083-.896813 3.8482872-1.138644 6.0703966-.086901.7990788-.108253 1.6446912-.063562 2.5143211.037243.7145175.106267 2.0444807.586951 2.2766488.140034.0670486.509485.2451776 1.215613-.2046482.528355-.3377446.976761-.8866421 1.297548-1.5866491l5.998613-13.0684651 2.656671 1.0967944c.634622.2091515 10.697693 3.3969603 17.045399-1.3134513l1.629259 2.2306156c-3.244615 2.4077438-7.155631 3.1142555-10.628173 3.1142555z" fill="#4b1a78" fill-rule="evenodd"/></svg>