<svg height="42" viewBox="0 0 203 42" width="203" xmlns="http://www.w3.org/2000/svg"><path d="m0 2.44942403h3.55844913l4.49051848 14.12873297 4.61714489-14.21379458h2.8384168l4.6593537 14.21379458 4.4905184-14.12873297h3.4740316l-6.5661977 19.25094277h-2.8806257l-4.6598502-13.74445461-4.65935361 13.74445461h-2.92333101zm30.9665023 0h14.0212628v2.98816422h-10.7175562v4.95108595h9.4895288v2.9881642h-9.4895288v5.1222098h10.8868879v3.030695h-14.1905945zm21.1378631 2.90290247v13.06146h3.7282775c3.9815301 0 6.5657011-2.6889476 6.5657011-6.4456684v-.0850616c0-3.75622052-2.584171-6.53073-6.5657011-6.53073zm-3.3037067-2.90310261h7.0741929c5.9727919 0 10.0397327 4.09796801 10.0397327 9.51889421v.085562c0 5.3358645-4.151855 9.5183938-10.0397327 9.5183938h-7.0741929zm24.103552 2.90310261v13.06146h3.7277808c3.9815302 0 6.5657012-2.6889476 6.5657012-6.4456684v-.0850616c0-3.75622052-2.584171-6.53073-6.5657012-6.53073zm-3.3464121-2.90310261h7.0741929c5.9727918 0 10.0397327 4.09796801 10.0397327 9.51889421v.085562c0 5.3358645-4.151855 9.5183938-10.0397327 9.5183938h-7.0741929zm20.8415079 19.08046931v-19.0803192h3.346412v19.0803192zm7.8791393-19.08026917h3.1775772l10.123653 13.18955277v-13.18955277h3.219786v19.08031917h-2.795711l-10.463807-13.57383101v13.57383101h-3.2614982zm20.2912042 9.60410587c0-5.42092614 4.066445-9.94520291 9.785487-9.94520291 3.303707 0 5.294968.93867985 7.28623 2.60338554l-2.076176 2.51832393c-1.482273-1.2373962-2.922834-2.00595284-5.294968-2.00595284-3.473535 0-6.142124 3.11575663-6.142124 6.78691548v.085562c0 3.9268441 2.583675 6.8719771 6.481284 6.8719771 1.821433 0 3.388621-.5974327 4.574936-1.4085201v-3.5855969h-4.829182v-2.9451331h8.048471v8.0243117c-1.906347 1.5791438-4.574936 3.0311954-7.879139 3.0311954-6.057706-.2566859-9.954819-4.5247771-9.954819-10.0312653zm70.522692 4.7246219c1.601947-4.477743-1.362103-10.38001786-6.098425-12.14529639l-.330718-.13709929-.140034.30672215c-1.214124 3.01268197-2.778828 8.18642913-1.233987 12.08725433.562619 1.4190278 1.666999 2.4933059 2.953622 2.8740816 1.088987.3212327 2.09306.1441044 3.069821-.5423928.792035-.556403 1.406794-1.4015151 1.779721-2.4432696zm-37.340874 1.3860039c2.905951-1.6546985 4.668292-5.3108465 4.489526-9.31424602-.03625-.81058708-.249777-2.31968007-1.26974-3.31940413-.531831-.52137762-1.126726-.76305265-1.811998-.7305291-.967326.04203044-2.069224.65147184-2.876653 1.59115242-.929587 1.08228386-1.78717 2.55985401-2.548915 4.39218113l-.039229.0935677c-.020856.0530385-.512464 1.2969394-.680803 1.7607753-.751813 2.0730014-1.046778 4.2425728-1.319397 6.5277278 1.754892.2461783 3.986496.1771283 6.057209-1.0012251zm40.244342-12.09826239c-.952429 0-1.869105-.0545395-2.732647-.14010147 2.6815 3.31890377 3.808723 7.89471786 2.41484 11.79154016-.566591 1.583647-1.531931 2.8890925-2.792236 3.7757347-1.128216.792574-2.356243 1.1948654-3.620521 1.1948654-.592413 0-1.193267-.0885642-1.795611-.2666932-2.122357-.6274544-3.846959-2.2691434-4.732847-4.5047626-.403218-1.0172368-.64207-2.0865112-.754792-3.1707965l-.191181.4183029c-.542756 1.18736-1.346212 2.1450536-2.323967 2.7690055-1.283147.8185929-2.659153.9476864-3.872283.3622624-1.954019-.9426827-2.078659-3.3414201-2.145697-4.6303536-.05214-1.0182375-.026815-2.0139586.076473-2.9606443.181249-1.66620676.438475-3.24384939.7682-4.71241302-1.099415-.1050761-2.059293-.46683812-2.868708-1.08378495-.18125-.13810002-.349588-.28520656-.505512-.43881782-1.605424 7.06211489-5.284541 11.16008289-8.275902 13.41821839-3.366772 2.5408402-6.513065 3.3048936-7.179467 3.444995-1.900885.5073675-5.157914.6014356-6.076576.5829222l-.706128 10.4655799h-2.754992l.739895-10.9634405-.017877-.0020014c.014401-.1080783.050651-.4838504.050651-.4838504.841693-13.31964699-1.763334-16.62153843-2.062769-16.95377906l2.034961-1.86234883c.701162.77856388 1.950542 2.78051382 2.57126 7.49592903.87397-2.0810072 1.843282-3.73070201 2.961567-5.03264496 1.305989-1.52010096 3.114015-2.47128987 4.837127-2.54634423 1.436589-.06404639 2.772373.4603334 3.846462 1.51259552 1.259312 1.23389366 2.005166 3.07322583 2.099018 5.18025187.099315 2.21760616-.293972 4.35915716-1.087993 6.24802526 2.970505-2.5618555 5.943494-6.84045433 6.829382-13.92208331l.100804-.76805627 2.952629-.28320512.002979.02151558c.088887.67949214.380376 1.97793255 1.299535 2.67793954.653491.49886131 1.593009.66298017 2.792235.48535152l1.520013 1.75126838c-.513954 1.80630825-.896813 3.84828718-1.138644 6.07039658-.086901.7990787-.108253 1.6446912-.063562 2.514321.037243.7145175.106267 2.0444808.586951 2.2766489.140034.0670486.509485.2451776 1.215613-.2046482.528355-.3377446.976761-.8866422 1.297548-1.5866491l5.998613-13.06846507 2.656671 1.09679437c.634622.20915148 10.697693 3.3969603 17.045399-1.31345129l1.629259 2.23061556c-3.244615 2.40774384-7.155631 3.11425554-10.628173 3.11425554z" fill="#fff" fill-rule="evenodd" transform="translate(0 9.619048)"/></svg>