<svg height="42" viewBox="0 0 247 42" width="247" xmlns="http://www.w3.org/2000/svg"><path d="m18.4310732 17.2060279c-1.183564 0-2.1427026.9587303-2.1427026 2.1409839 0 1.1826147.9591386 2.141345 2.1427026 2.141345s2.1427026-.9587303 2.1427026-2.141345c0-1.1822536-.9591386-2.1409839-2.1427026-2.1409839zm0-.8067057c1.4665352 0 2.6551587-1.1876702 2.6551587-2.6530291 0-1.4653588-1.1886235-2.6533901-2.6551587-2.6533901s-2.6551587 1.1880313-2.6551587 2.6533901c0 1.4653589 1.1886235 2.6530291 2.6551587 2.6530291zm6.7714317-2.3587295c-1.4665352 0-2.6555201 1.1880312-2.6555201 2.6533901 0 .9031204.4528262 1.7000763 1.1427266 2.1792609-2.1260785 2.527726-3.722354 5.5848301-4.7002851 8.9362337v-5.2273374h-1.1167062v5.2273374c-.9779311-3.3517647-2.5742066-6.4085077-4.7002851-8.9362337.6899004-.4791846 1.1427266-1.2761405 1.1427266-2.1792609 0-1.4653589-1.1886235-2.6533901-2.6551587-2.6533901s-2.65552015 1.1880312-2.65552015 2.6533901 1.18898495 2.653029 2.65552015 2.653029c.1416663 0 .28008-.014083.415964-.0357493 3.6977792 4.2397188 5.7967532 10.1365425 5.7967532 16.4103585h1.1167062c0-6.273816 2.098974-12.1706397 5.7967532-16.4103585.135884.0216663.2742978.0357493.4163254.0357493 1.4661738 0 2.6551588-1.1876701 2.6551588-2.653029s-1.188985-2.6533901-2.6551588-2.6533901zm-6.7714317 26.6350102c-9.53934526 0-17.27280674-7.7272585-17.27280674-17.2593133 0-9.5316937 7.73346148-17.25895219 17.27280674-17.25895219 9.5397067 0 17.2731681 7.72725849 17.2731681 17.25895219 0 9.5320548-7.7334614 17.2593133-17.2731681 17.2593133zm0-35.6756029c-10.17901191 0-18.4310732 8.2454423-18.4310732 18.4162896 0 10.1712084 8.25206129 18.4162896 18.4310732 18.4162896 10.1793733 0 18.4310732-8.2450812 18.4310732-18.4162896 0-10.1708473-8.2516999-18.4162896-18.4310732-18.4162896zm214.7997028 9.0405927h13.304343v1.8918223h-11.227053v6.2788715h10.043851v1.8918224h-10.043851v6.4363126h11.358601v1.8914613h-13.435891zm-10.85518 9.3793079c2.761047 0 4.732811-1.4187765 4.732811-3.7832836v-.0523601c0-2.2594259-1.735051-3.6258424-4.706429-3.6258424h-5.6793v7.4614861zm-7.729847-9.3793079h7.914158c2.260878 0 4.075436.6832082 5.232257 1.8391012.893726.8933706 1.419554 2.1807054 1.419554 3.6254813v.0527212c0 3.0473542-2.103311 4.8337343-4.995183 5.3595013l5.652557 7.5134851h-2.550354l-5.337422-7.1458815h-5.258638v7.1458815h-2.076929zm-7.011759 18.3902901h2.077291v-18.3902901h-2.077291zm-29.928087-18.3902901h2.261601l5.258638 15.3165753 5.048307-15.3689354h1.708669l5.048307 15.3689354 5.258638-15.3165753h2.182456l-6.573749 18.5213707h-1.761433l-5.047945-14.9218889-5.074689 14.9218889h-1.735051zm-19.024482 9.2478662v-.0527212c0-5.1489779 3.94425-9.5103886 9.491642-9.5103886 3.207729 0 5.179854.8933706 7.073195 2.4959489l-2.05127 2.4432278c-1.419554-1.2086142-2.813088-1.9701819-5.153473-1.9701819-3.391679 0-5.968053 2.9686337-5.968053 6.4890338v.05236c0 3.7832837 2.497591 6.5681156 6.25753 6.5681156 1.735412 0 3.312895-.5517665 4.443334-1.392416v-3.4416795h-4.706429v-2.8111925h7.835375v7.7243697c-1.813835 1.5498571-4.417314 2.8631913-7.677446 2.8631913-5.758445 0-9.544405-4.098166-9.544405-9.4576674zm-19.573799-9.2478662h2.997398l9.85954 12.7155452v-12.7155452h3.181709v18.3902901h-2.708283l-10.149378-13.0831488v13.0831488h-3.180986zm-7.745388 18.3902901h3.234111v-18.3902901h-3.234111zm-17.028505-15.4476559v12.5053828h3.628031c3.865104 0 6.389438-2.6010301 6.389438-6.2001508v-.0527212c0-3.5991207-2.524334-6.2525108-6.389438-6.2525108zm-3.234111-2.9426342h6.862142c5.784466 0 9.780756 3.9670854 9.780756 9.142785v.05236c0 5.1756996-3.99629 9.1951451-9.780756 9.1951451h-6.862142zm-16.9002098 2.9426342v12.5053828h3.6280303c3.8651045 0 6.3894385-2.6010301 6.3894385-6.2001508v-.0527212c0-3.5991207-2.524334-6.2525108-6.3894385-6.2525108zm-3.2341113-2.9426342h6.8621416c5.7844655 0 9.7811175 3.9670854 9.7811175 9.142785v.05236c0 5.1756996-3.996652 9.1951451-9.7811175 9.1951451h-6.8621416zm-17.3342436 0h13.646222v2.889913h-10.4121108v4.7817354h9.2285468v2.8899131h-9.2285468v4.9388155h10.5432967v2.8899131h-13.7774079zm-30.1170964 0h3.4968444l4.3909321 13.6352763 4.5224794-13.6876364h2.734304l4.5224794 13.6876364 4.3909321-13.6352763h3.3916789l-6.3894387 18.5213707h-2.8130878l-4.522118-13.2142294-4.5224794 13.2142294h-2.7870674z" fill="#fff" fill-rule="evenodd"/></svg>