<svg id="Capa_1" xmlns="http://www.w3.org/2000/svg" width="200.1" height="407.7" viewBox="0 0 200.1 407.7"><style>.st0{fill:#444}</style><path class="st0" d="M118.8 288.2c0 1.7-.6 3.2-1.9 4.4-1.2 1.2-2.7 1.9-4.4 1.9H50c-1.7 0-3.2-.6-4.4-1.9-1.2-1.2-1.9-2.7-1.9-4.4 0-1.7.6-3.2 1.9-4.4 1.2-1.2 2.7-1.9 4.4-1.9h62.5c1.7 0 3.2.6 4.4 1.9 1.2 1.3 1.9 2.8 1.9 4.4zm-34.6 71.7c-9.9 0-19.1-1.9-27.7-5.6s-16.1-8.7-22.6-15c-6.4-6.3-11.6-13.7-15.3-22.3-3.8-8.5-5.7-17.6-5.7-27.2s1.9-18.7 5.7-27.2 8.9-16 15.3-22.3 14-11.3 22.6-15 17.8-5.6 27.7-5.6c9.8 0 19 1.9 27.6 5.6 8.7 3.7 16.2 8.7 22.7 15 6.4 6.3 11.5 13.7 15.2 22.3 3.7 8.5 5.6 17.6 5.6 27.2s-1.9 18.7-5.6 27.2c-3.7 8.5-8.8 16-15.2 22.3s-14 11.3-22.7 15c-8.6 3.8-17.9 5.6-27.6 5.6zM198 396.1l-51.6-50.8c6.8-7.3 12.1-15.7 16-25.2s5.9-19.6 5.9-30.3c0-11.5-2.2-22.2-6.6-32.2-4.4-10-10.4-18.8-18.1-26.3-7.6-7.5-16.5-13.4-26.8-17.8-10.1-4.3-21-6.5-32.6-6.5s-22.5 2.2-32.7 6.5c-10.2 4.4-19.1 10.3-26.8 17.8s-13.6 16.3-18.1 26.3c-4.4 10-6.6 20.8-6.6 32.2C0 301.2 2.2 312 6.6 322s10.4 18.8 18.1 26.3c7.6 7.5 16.5 13.4 26.8 17.8s21.1 6.5 32.7 6.5c10 0 19.5-1.6 28.5-4.9s17.1-7.8 24.4-13.7l51.8 51c1.3 1.3 2.8 2 4.6 2s3.3-.7 4.6-2c1.3-1.2 2-2.6 2-4.4s-.8-3.2-2.1-4.5zM118.8 81.2c0 1.7-.6 3.2-1.9 4.4-1.2 1.2-2.7 1.9-4.4 1.9h-25v25c0 1.7-.6 3.2-1.9 4.4-1.2 1.2-2.7 1.9-4.4 1.9s-3.2-.6-4.4-1.9c-1.2-1.2-1.9-2.7-1.9-4.4v-25H50c-1.7 0-3.2-.6-4.4-1.9-1.2-1.2-1.9-2.7-1.9-4.4s.6-3.2 1.9-4.4c1.2-1.2 2.7-1.9 4.4-1.9h25V50c0-1.7.6-3.2 1.9-4.4 1.2-1.2 2.7-1.9 4.4-1.9s3.2.6 4.4 1.9c1.2 1.2 1.9 2.7 1.9 4.4v25h25c1.7 0 3.2.6 4.4 1.9 1.1 1.2 1.8 2.7 1.8 4.3zm-34.6 71.7c-9.9 0-19.1-1.9-27.7-5.6-8.6-3.7-16.1-8.7-22.6-15-6.4-6.3-11.6-13.7-15.3-22.3-3.8-8.5-5.7-17.6-5.7-27.2s1.9-18.7 5.7-27.2 8.9-16 15.3-22.3 14-11.3 22.6-15 17.8-5.6 27.7-5.6c9.8 0 19 1.9 27.6 5.6 8.7 3.7 16.2 8.7 22.7 15 6.4 6.3 11.5 13.7 15.2 22.3 3.7 8.5 5.6 17.6 5.6 27.2s-1.9 18.7-5.6 27.2c-3.7 8.5-8.8 16-15.2 22.3s-14 11.3-22.7 15c-8.6 3.8-17.9 5.6-27.6 5.6zM198 189.1l-51.6-50.8c6.8-7.3 12.1-15.7 16-25.2s5.9-19.6 5.9-30.3c0-11.5-2.2-22.2-6.6-32.2-4.4-10-10.4-18.8-18.1-26.3-7.6-7.5-16.5-13.4-26.8-17.8C106.7 2.2 95.8 0 84.2 0S61.7 2.2 51.5 6.5c-10.2 4.4-19.1 10.3-26.8 17.8S11.1 40.6 6.6 50.6C2.2 60.6 0 71.4 0 82.8S2.2 105 6.6 115s10.4 18.8 18.1 26.3c7.6 7.5 16.5 13.4 26.8 17.8s21.1 6.5 32.7 6.5c10 0 19.5-1.6 28.5-4.9 9-3.3 17.1-7.8 24.4-13.7l51.8 51c1.3 1.3 2.8 2 4.6 2s3.3-.7 4.6-2c1.3-1.2 2-2.6 2-4.4s-.8-3.2-2.1-4.5z"/></svg>